G04 #@! TF.GenerationSoftware,KiCad,Pcbnew,10.0.1*
G04 #@! TF.CreationDate,2026-06-05T01:59:55+08:00*
G04 #@! TF.ProjectId,Spotify Car Thing,53706f74-6966-4792-9043-617220546869,rev?*
G04 #@! TF.SameCoordinates,Original*
G04 #@! TF.FileFunction,Copper,L1,Top*
G04 #@! TF.FilePolarity,Positive*
%FSLAX46Y46*%
G04 Gerber Fmt 4.6, Leading zero omitted, Abs format (unit mm)*
G04 Created by KiCad (PCBNEW 10.0.1) date 2026-06-05 01:59:55*
%MOMM*%
%LPD*%
G01*
G04 APERTURE LIST*
G04 #@! TA.AperFunction,ComponentPad*
%ADD10C,2.200000*%
G04 #@! TD*
G04 #@! TA.AperFunction,ComponentPad*
%ADD11R,1.700000X1.700000*%
G04 #@! TD*
G04 #@! TA.AperFunction,ComponentPad*
%ADD12C,1.700000*%
G04 #@! TD*
G04 #@! TA.AperFunction,ViaPad*
%ADD13C,0.600000*%
G04 #@! TD*
G04 #@! TA.AperFunction,Conductor*
%ADD14C,0.127000*%
G04 #@! TD*
G04 #@! TA.AperFunction,Conductor*
%ADD15C,0.400000*%
G04 #@! TD*
G04 #@! TA.AperFunction,Conductor*
%ADD16C,0.200000*%
G04 #@! TD*
G04 APERTURE END LIST*
D10*
X214460000Y-76200000D03*
X208110000Y-78740000D03*
X214460000Y-97470000D03*
X208110000Y-100010000D03*
D11*
X150940000Y-59940000D03*
D12*
X150940000Y-57400000D03*
X148400000Y-59940000D03*
X148400000Y-57400000D03*
X145860000Y-59940000D03*
X145860000Y-57400000D03*
X143320000Y-59940000D03*
X143320000Y-57400000D03*
X140780000Y-59940000D03*
X140780000Y-57400000D03*
X138240000Y-59940000D03*
X138240000Y-57400000D03*
X135700000Y-59940000D03*
X135700000Y-57400000D03*
X133160000Y-59940000D03*
X133160000Y-57400000D03*
X130620000Y-59940000D03*
X130620000Y-57400000D03*
X128080000Y-59940000D03*
X128080000Y-57400000D03*
X125540000Y-59940000D03*
X125540000Y-57400000D03*
X123000000Y-59940000D03*
X123000000Y-57400000D03*
X120460000Y-59940000D03*
X120460000Y-57400000D03*
D10*
X214460000Y-55880000D03*
X208110000Y-58420000D03*
D11*
X118220000Y-80800000D03*
D12*
X120760000Y-80800000D03*
X123300000Y-80800000D03*
X125840000Y-80800000D03*
X128380000Y-80800000D03*
X130920000Y-80800000D03*
X133460000Y-80800000D03*
X136000000Y-80800000D03*
X138540000Y-80800000D03*
X141080000Y-80800000D03*
X143620000Y-80800000D03*
X146160000Y-80800000D03*
X148700000Y-80800000D03*
X151240000Y-80800000D03*
X153780000Y-80800000D03*
D11*
X118220000Y-106250000D03*
D12*
X120760000Y-106250000D03*
X123300000Y-106250000D03*
X125840000Y-106250000D03*
X128380000Y-106250000D03*
X130920000Y-106250000D03*
X133460000Y-106250000D03*
X136000000Y-106250000D03*
X138540000Y-106250000D03*
X141080000Y-106250000D03*
X143620000Y-106250000D03*
X146160000Y-106250000D03*
X148700000Y-106250000D03*
X151240000Y-106250000D03*
X153780000Y-106250000D03*
D13*
X128995500Y-78600000D03*
X201400000Y-82200000D03*
X154000000Y-59100000D03*
X123390500Y-63900000D03*
X125300000Y-63009500D03*
X124500000Y-63200000D03*
X123746836Y-64956336D03*
X120050000Y-63150000D03*
X201000000Y-78200000D03*
D14*
X129135500Y-78740000D02*
X208110000Y-78740000D01*
X128995500Y-78600000D02*
X129135500Y-78740000D01*
X201400000Y-88000000D02*
X208110000Y-94710000D01*
X201400000Y-82200000D02*
X201400000Y-88000000D01*
X208110000Y-94710000D02*
X208110000Y-100010000D01*
D15*
X154000000Y-59100000D02*
X154000000Y-57700000D01*
X153700000Y-57400000D02*
X153500000Y-57400000D01*
X154000000Y-57700000D02*
X153700000Y-57400000D01*
X153500000Y-57400000D02*
X150940000Y-57400000D01*
D14*
X126100000Y-63500000D02*
X129579500Y-60020500D01*
X123390500Y-63809500D02*
X123700000Y-63500000D01*
X129579500Y-60020500D02*
X129579500Y-58440500D01*
X123700000Y-63500000D02*
X126100000Y-63500000D01*
X123390500Y-63900000D02*
X123390500Y-63809500D01*
X129579500Y-58440500D02*
X130620000Y-57400000D01*
X125600000Y-62709500D02*
X126196828Y-62709500D01*
X126196828Y-62709500D02*
X126500000Y-62406328D01*
X126500000Y-61520000D02*
X128080000Y-59940000D01*
X126500000Y-62406328D02*
X126500000Y-61520000D01*
D16*
X128080000Y-60680000D02*
X128080000Y-59940000D01*
D14*
X125300000Y-63009500D02*
X125600000Y-62709500D01*
X124500000Y-60910500D02*
X124500000Y-63200000D01*
X125540000Y-57400000D02*
X124499500Y-58440500D01*
X124499500Y-58440500D02*
X124499500Y-60910000D01*
X124499500Y-60910000D02*
X124500000Y-60910500D01*
X122900000Y-60040000D02*
X123000000Y-59940000D01*
X122900000Y-64109500D02*
X122900000Y-60040000D01*
X123746836Y-64956336D02*
X122900000Y-64109500D01*
X121959500Y-58440500D02*
X123000000Y-57400000D01*
X120050000Y-63150000D02*
X121959500Y-61240500D01*
X121959500Y-61240500D02*
X121959500Y-58440500D01*
X201000000Y-62800000D02*
X205380000Y-58420000D01*
D16*
X207682944Y-58420000D02*
X208110000Y-58420000D01*
D14*
X205380000Y-58420000D02*
X208110000Y-58420000D01*
X201000000Y-78200000D02*
X201000000Y-62800000D01*
G04 #@! TA.AperFunction,Conductor*
G36*
X145394075Y-57592993D02*
G01*
X145459901Y-57707007D01*
X145552993Y-57800099D01*
X145667007Y-57865925D01*
X145730590Y-57882962D01*
X145098282Y-58515269D01*
X145098282Y-58515270D01*
X145152452Y-58554626D01*
X145152451Y-58554626D01*
X145161495Y-58559234D01*
X145212292Y-58607208D01*
X145229087Y-58675029D01*
X145206550Y-58741164D01*
X145161499Y-58780202D01*
X145152182Y-58784949D01*
X144980213Y-58909890D01*
X144829890Y-59060213D01*
X144704949Y-59232182D01*
X144700484Y-59240946D01*
X144652509Y-59291742D01*
X144584688Y-59308536D01*
X144518553Y-59285998D01*
X144479516Y-59240946D01*
X144475050Y-59232182D01*
X144350109Y-59060213D01*
X144199786Y-58909890D01*
X144027820Y-58784951D01*
X144027115Y-58784591D01*
X144019054Y-58780485D01*
X143968259Y-58732512D01*
X143951463Y-58664692D01*
X143973999Y-58598556D01*
X144019054Y-58559515D01*
X144027816Y-58555051D01*
X144117554Y-58489853D01*
X144199786Y-58430109D01*
X144199788Y-58430106D01*
X144199792Y-58430104D01*
X144350104Y-58279792D01*
X144350106Y-58279788D01*
X144350109Y-58279786D01*
X144435890Y-58161717D01*
X144475051Y-58107816D01*
X144479793Y-58098508D01*
X144527763Y-58047711D01*
X144595583Y-58030911D01*
X144661719Y-58053445D01*
X144700763Y-58098500D01*
X144705373Y-58107547D01*
X144744728Y-58161716D01*
X145377037Y-57529408D01*
X145394075Y-57592993D01*
G37*
G04 #@! TD.AperFunction*
G04 #@! TA.AperFunction,Conductor*
G36*
X146975270Y-58161717D02*
G01*
X146975270Y-58161716D01*
X147014622Y-58107555D01*
X147019232Y-58098507D01*
X147067205Y-58047709D01*
X147135025Y-58030912D01*
X147201161Y-58053447D01*
X147240204Y-58098504D01*
X147244949Y-58107817D01*
X147369890Y-58279786D01*
X147520213Y-58430109D01*
X147692182Y-58555050D01*
X147700946Y-58559516D01*
X147751742Y-58607491D01*
X147768536Y-58675312D01*
X147745998Y-58741447D01*
X147700946Y-58780484D01*
X147692182Y-58784949D01*
X147520213Y-58909890D01*
X147369890Y-59060213D01*
X147244949Y-59232182D01*
X147240484Y-59240946D01*
X147192509Y-59291742D01*
X147124688Y-59308536D01*
X147058553Y-59285998D01*
X147019516Y-59240946D01*
X147015050Y-59232182D01*
X146890109Y-59060213D01*
X146739786Y-58909890D01*
X146567817Y-58784949D01*
X146558504Y-58780204D01*
X146507707Y-58732230D01*
X146490912Y-58664409D01*
X146513449Y-58598274D01*
X146558507Y-58559232D01*
X146567555Y-58554622D01*
X146621716Y-58515270D01*
X146621717Y-58515270D01*
X145989408Y-57882962D01*
X146052993Y-57865925D01*
X146167007Y-57800099D01*
X146260099Y-57707007D01*
X146325925Y-57592993D01*
X146342962Y-57529408D01*
X146975270Y-58161717D01*
G37*
G04 #@! TD.AperFunction*
G04 #@! TA.AperFunction,Conductor*
G36*
X218502211Y-42000578D02*
G01*
X218994924Y-42018176D01*
X219003735Y-42018807D01*
X219491734Y-42071273D01*
X219500495Y-42072532D01*
X219983503Y-42159675D01*
X219992139Y-42161554D01*
X220467705Y-42282936D01*
X220476185Y-42285426D01*
X220538667Y-42306222D01*
X220941866Y-42440419D01*
X220950160Y-42443512D01*
X221403602Y-42631335D01*
X221411653Y-42635012D01*
X221737022Y-42797879D01*
X221850551Y-42854708D01*
X221858298Y-42858938D01*
X222280420Y-43109393D01*
X222287843Y-43114164D01*
X222612377Y-43339492D01*
X222691010Y-43394088D01*
X222698082Y-43399381D01*
X223080258Y-43707358D01*
X223086932Y-43713142D01*
X223446152Y-44047588D01*
X223452411Y-44053847D01*
X223786857Y-44413067D01*
X223792642Y-44419744D01*
X224100614Y-44801913D01*
X224105911Y-44808989D01*
X224385827Y-45212144D01*
X224390610Y-45219586D01*
X224593721Y-45561913D01*
X224641052Y-45641684D01*
X224645294Y-45649453D01*
X224864987Y-46088346D01*
X224868664Y-46096397D01*
X225056487Y-46549839D01*
X225059580Y-46558133D01*
X225214571Y-47023808D01*
X225217065Y-47032301D01*
X225338443Y-47507853D01*
X225340325Y-47516503D01*
X225427467Y-47999504D01*
X225428726Y-48008265D01*
X225481192Y-48496264D01*
X225481824Y-48505093D01*
X225499421Y-48997788D01*
X225499500Y-49002214D01*
X225499500Y-114497785D01*
X225499421Y-114502211D01*
X225481824Y-114994906D01*
X225481192Y-115003735D01*
X225428726Y-115491734D01*
X225427467Y-115500495D01*
X225340325Y-115983496D01*
X225338443Y-115992146D01*
X225217065Y-116467698D01*
X225214571Y-116476191D01*
X225059580Y-116941866D01*
X225056487Y-116950160D01*
X224868664Y-117403602D01*
X224864987Y-117411653D01*
X224645294Y-117850546D01*
X224641052Y-117858315D01*
X224390613Y-118280408D01*
X224385827Y-118287855D01*
X224105911Y-118691010D01*
X224100607Y-118698096D01*
X223792654Y-119080242D01*
X223786857Y-119086932D01*
X223452411Y-119446152D01*
X223446152Y-119452411D01*
X223086932Y-119786857D01*
X223080242Y-119792654D01*
X222698096Y-120100607D01*
X222691010Y-120105911D01*
X222287855Y-120385827D01*
X222280408Y-120390613D01*
X221858315Y-120641052D01*
X221850546Y-120645294D01*
X221411653Y-120864987D01*
X221403602Y-120868664D01*
X220950160Y-121056487D01*
X220941866Y-121059580D01*
X220476191Y-121214571D01*
X220467698Y-121217065D01*
X219992146Y-121338443D01*
X219983496Y-121340325D01*
X219500495Y-121427467D01*
X219491734Y-121428726D01*
X219003735Y-121481192D01*
X218994906Y-121481824D01*
X218502212Y-121499421D01*
X218497786Y-121499500D01*
X117002214Y-121499500D01*
X116997788Y-121499421D01*
X116505093Y-121481824D01*
X116496264Y-121481192D01*
X116008265Y-121428726D01*
X115999504Y-121427467D01*
X115516503Y-121340325D01*
X115507853Y-121338443D01*
X115032301Y-121217065D01*
X115023808Y-121214571D01*
X114558133Y-121059580D01*
X114549839Y-121056487D01*
X114096397Y-120868664D01*
X114088346Y-120864987D01*
X113649453Y-120645294D01*
X113641691Y-120641056D01*
X113219586Y-120390610D01*
X113212144Y-120385827D01*
X112808989Y-120105911D01*
X112801913Y-120100614D01*
X112419744Y-119792642D01*
X112413067Y-119786857D01*
X112053847Y-119452411D01*
X112047588Y-119446152D01*
X111713142Y-119086932D01*
X111707358Y-119080258D01*
X111399381Y-118698082D01*
X111394088Y-118691010D01*
X111344580Y-118619706D01*
X111114164Y-118287843D01*
X111109393Y-118280420D01*
X110858938Y-117858298D01*
X110854705Y-117850546D01*
X110635012Y-117411653D01*
X110631335Y-117403602D01*
X110443512Y-116950160D01*
X110440419Y-116941866D01*
X110285426Y-116476185D01*
X110282934Y-116467698D01*
X110264465Y-116395339D01*
X110161554Y-115992139D01*
X110159674Y-115983496D01*
X110143575Y-115894266D01*
X110072532Y-115500495D01*
X110071273Y-115491734D01*
X110018807Y-115003735D01*
X110018176Y-114994924D01*
X110000579Y-114502211D01*
X110000500Y-114497785D01*
X110000500Y-114378711D01*
X115149500Y-114378711D01*
X115149500Y-114621288D01*
X115181161Y-114861785D01*
X115243947Y-115096104D01*
X115336126Y-115318642D01*
X115336776Y-115320212D01*
X115458064Y-115530289D01*
X115458066Y-115530292D01*
X115458067Y-115530293D01*
X115605733Y-115722736D01*
X115605739Y-115722743D01*
X115777256Y-115894260D01*
X115777262Y-115894265D01*
X115969711Y-116041936D01*
X116179788Y-116163224D01*
X116403900Y-116256054D01*
X116638211Y-116318838D01*
X116818586Y-116342584D01*
X116878711Y-116350500D01*
X116878712Y-116350500D01*
X117121289Y-116350500D01*
X117169388Y-116344167D01*
X117361789Y-116318838D01*
X117596100Y-116256054D01*
X117820212Y-116163224D01*
X118030289Y-116041936D01*
X118222738Y-115894265D01*
X118394265Y-115722738D01*
X118541936Y-115530289D01*
X118663224Y-115320212D01*
X118756054Y-115096100D01*
X118818838Y-114861789D01*
X118850500Y-114621288D01*
X118850500Y-114378712D01*
X118850500Y-114378711D01*
X216649500Y-114378711D01*
X216649500Y-114621288D01*
X216681161Y-114861785D01*
X216743947Y-115096104D01*
X216836126Y-115318642D01*
X216836776Y-115320212D01*
X216958064Y-115530289D01*
X216958066Y-115530292D01*
X216958067Y-115530293D01*
X217105733Y-115722736D01*
X217105739Y-115722743D01*
X217277256Y-115894260D01*
X217277262Y-115894265D01*
X217469711Y-116041936D01*
X217679788Y-116163224D01*
X217903900Y-116256054D01*
X218138211Y-116318838D01*
X218318586Y-116342584D01*
X218378711Y-116350500D01*
X218378712Y-116350500D01*
X218621289Y-116350500D01*
X218669388Y-116344167D01*
X218861789Y-116318838D01*
X219096100Y-116256054D01*
X219320212Y-116163224D01*
X219530289Y-116041936D01*
X219722738Y-115894265D01*
X219894265Y-115722738D01*
X220041936Y-115530289D01*
X220163224Y-115320212D01*
X220256054Y-115096100D01*
X220318838Y-114861789D01*
X220350500Y-114621288D01*
X220350500Y-114378712D01*
X220318838Y-114138211D01*
X220256054Y-113903900D01*
X220163224Y-113679788D01*
X220041936Y-113469711D01*
X219894265Y-113277262D01*
X219894260Y-113277256D01*
X219722743Y-113105739D01*
X219722736Y-113105733D01*
X219530293Y-112958067D01*
X219530292Y-112958066D01*
X219530289Y-112958064D01*
X219320212Y-112836776D01*
X219320205Y-112836773D01*
X219096104Y-112743947D01*
X218861785Y-112681161D01*
X218621289Y-112649500D01*
X218621288Y-112649500D01*
X218378712Y-112649500D01*
X218378711Y-112649500D01*
X218138214Y-112681161D01*
X217903895Y-112743947D01*
X217679794Y-112836773D01*
X217679785Y-112836777D01*
X217469706Y-112958067D01*
X217277263Y-113105733D01*
X217277256Y-113105739D01*
X217105739Y-113277256D01*
X217105733Y-113277263D01*
X216958067Y-113469706D01*
X216836777Y-113679785D01*
X216836773Y-113679794D01*
X216743947Y-113903895D01*
X216681161Y-114138214D01*
X216649500Y-114378711D01*
X118850500Y-114378711D01*
X118818838Y-114138211D01*
X118756054Y-113903900D01*
X118663224Y-113679788D01*
X118541936Y-113469711D01*
X118394265Y-113277262D01*
X118394260Y-113277256D01*
X118222743Y-113105739D01*
X118222736Y-113105733D01*
X118030293Y-112958067D01*
X118030292Y-112958066D01*
X118030289Y-112958064D01*
X117820212Y-112836776D01*
X117820205Y-112836773D01*
X117596104Y-112743947D01*
X117361785Y-112681161D01*
X117121289Y-112649500D01*
X117121288Y-112649500D01*
X116878712Y-112649500D01*
X116878711Y-112649500D01*
X116638214Y-112681161D01*
X116403895Y-112743947D01*
X116179794Y-112836773D01*
X116179785Y-112836777D01*
X115969706Y-112958067D01*
X115777263Y-113105733D01*
X115777256Y-113105739D01*
X115605739Y-113277256D01*
X115605733Y-113277263D01*
X115458067Y-113469706D01*
X115336777Y-113679785D01*
X115336773Y-113679794D01*
X115243947Y-113903895D01*
X115181161Y-114138214D01*
X115149500Y-114378711D01*
X110000500Y-114378711D01*
X110000500Y-105352135D01*
X116869500Y-105352135D01*
X116869500Y-107147870D01*
X116869501Y-107147876D01*
X116875908Y-107207483D01*
X116926202Y-107342328D01*
X116926206Y-107342335D01*
X117012452Y-107457544D01*
X117012455Y-107457547D01*
X117127664Y-107543793D01*
X117127671Y-107543797D01*
X117262517Y-107594091D01*
X117262516Y-107594091D01*
X117269444Y-107594835D01*
X117322127Y-107600500D01*
X119117872Y-107600499D01*
X119177483Y-107594091D01*
X119312331Y-107543796D01*
X119427546Y-107457546D01*
X119513796Y-107342331D01*
X119562810Y-107210916D01*
X119604681Y-107154984D01*
X119670145Y-107130566D01*
X119738418Y-107145417D01*
X119766673Y-107166569D01*
X119880213Y-107280109D01*
X120052179Y-107405048D01*
X120052181Y-107405049D01*
X120052184Y-107405051D01*
X120241588Y-107501557D01*
X120443757Y-107567246D01*
X120653713Y-107600500D01*
X120653714Y-107600500D01*
X120866286Y-107600500D01*
X120866287Y-107600500D01*
X121076243Y-107567246D01*
X121278412Y-107501557D01*
X121467816Y-107405051D01*
X121554138Y-107342335D01*
X121639786Y-107280109D01*
X121639788Y-107280106D01*
X121639792Y-107280104D01*
X121790104Y-107129792D01*
X121790106Y-107129788D01*
X121790109Y-107129786D01*
X121915048Y-106957820D01*
X121915047Y-106957820D01*
X121915051Y-106957816D01*
X121919514Y-106949054D01*
X121967488Y-106898259D01*
X122035308Y-106881463D01*
X122101444Y-106903999D01*
X122140486Y-106949056D01*
X122144951Y-106957820D01*
X122269890Y-107129786D01*
X122420213Y-107280109D01*
X122592179Y-107405048D01*
X122592181Y-107405049D01*
X122592184Y-107405051D01*
X122781588Y-107501557D01*
X122983757Y-107567246D01*
X123193713Y-107600500D01*
X123193714Y-107600500D01*
X123406286Y-107600500D01*
X123406287Y-107600500D01*
X123616243Y-107567246D01*
X123818412Y-107501557D01*
X124007816Y-107405051D01*
X124094138Y-107342335D01*
X124179786Y-107280109D01*
X124179788Y-107280106D01*
X124179792Y-107280104D01*
X124330104Y-107129792D01*
X124330106Y-107129788D01*
X124330109Y-107129786D01*
X124455048Y-106957820D01*
X124455047Y-106957820D01*
X124455051Y-106957816D01*
X124459514Y-106949054D01*
X124507488Y-106898259D01*
X124575308Y-106881463D01*
X124641444Y-106903999D01*
X124680486Y-106949056D01*
X124684951Y-106957820D01*
X124809890Y-107129786D01*
X124960213Y-107280109D01*
X125132179Y-107405048D01*
X125132181Y-107405049D01*
X125132184Y-107405051D01*
X125321588Y-107501557D01*
X125523757Y-107567246D01*
X125733713Y-107600500D01*
X125733714Y-107600500D01*
X125946286Y-107600500D01*
X125946287Y-107600500D01*
X126156243Y-107567246D01*
X126358412Y-107501557D01*
X126547816Y-107405051D01*
X126634138Y-107342335D01*
X126719786Y-107280109D01*
X126719788Y-107280106D01*
X126719792Y-107280104D01*
X126870104Y-107129792D01*
X126870106Y-107129788D01*
X126870109Y-107129786D01*
X126995048Y-106957820D01*
X126995047Y-106957820D01*
X126995051Y-106957816D01*
X126999514Y-106949054D01*
X127047488Y-106898259D01*
X127115308Y-106881463D01*
X127181444Y-106903999D01*
X127220486Y-106949056D01*
X127224951Y-106957820D01*
X127349890Y-107129786D01*
X127500213Y-107280109D01*
X127672179Y-107405048D01*
X127672181Y-107405049D01*
X127672184Y-107405051D01*
X127861588Y-107501557D01*
X128063757Y-107567246D01*
X128273713Y-107600500D01*
X128273714Y-107600500D01*
X128486286Y-107600500D01*
X128486287Y-107600500D01*
X128696243Y-107567246D01*
X128898412Y-107501557D01*
X129087816Y-107405051D01*
X129174138Y-107342335D01*
X129259786Y-107280109D01*
X129259788Y-107280106D01*
X129259792Y-107280104D01*
X129410104Y-107129792D01*
X129410106Y-107129788D01*
X129410109Y-107129786D01*
X129535048Y-106957820D01*
X129535047Y-106957820D01*
X129535051Y-106957816D01*
X129539514Y-106949054D01*
X129587488Y-106898259D01*
X129655308Y-106881463D01*
X129721444Y-106903999D01*
X129760486Y-106949056D01*
X129764951Y-106957820D01*
X129889890Y-107129786D01*
X130040213Y-107280109D01*
X130212179Y-107405048D01*
X130212181Y-107405049D01*
X130212184Y-107405051D01*
X130401588Y-107501557D01*
X130603757Y-107567246D01*
X130813713Y-107600500D01*
X130813714Y-107600500D01*
X131026286Y-107600500D01*
X131026287Y-107600500D01*
X131236243Y-107567246D01*
X131438412Y-107501557D01*
X131627816Y-107405051D01*
X131714138Y-107342335D01*
X131799786Y-107280109D01*
X131799788Y-107280106D01*
X131799792Y-107280104D01*
X131950104Y-107129792D01*
X131950106Y-107129788D01*
X131950109Y-107129786D01*
X132075048Y-106957820D01*
X132075047Y-106957820D01*
X132075051Y-106957816D01*
X132079514Y-106949054D01*
X132127488Y-106898259D01*
X132195308Y-106881463D01*
X132261444Y-106903999D01*
X132300486Y-106949056D01*
X132304951Y-106957820D01*
X132429890Y-107129786D01*
X132580213Y-107280109D01*
X132752179Y-107405048D01*
X132752181Y-107405049D01*
X132752184Y-107405051D01*
X132941588Y-107501557D01*
X133143757Y-107567246D01*
X133353713Y-107600500D01*
X133353714Y-107600500D01*
X133566286Y-107600500D01*
X133566287Y-107600500D01*
X133776243Y-107567246D01*
X133978412Y-107501557D01*
X134167816Y-107405051D01*
X134254138Y-107342335D01*
X134339786Y-107280109D01*
X134339788Y-107280106D01*
X134339792Y-107280104D01*
X134490104Y-107129792D01*
X134490106Y-107129788D01*
X134490109Y-107129786D01*
X134615048Y-106957820D01*
X134615047Y-106957820D01*
X134615051Y-106957816D01*
X134619514Y-106949054D01*
X134667488Y-106898259D01*
X134735308Y-106881463D01*
X134801444Y-106903999D01*
X134840486Y-106949056D01*
X134844951Y-106957820D01*
X134969890Y-107129786D01*
X135120213Y-107280109D01*
X135292179Y-107405048D01*
X135292181Y-107405049D01*
X135292184Y-107405051D01*
X135481588Y-107501557D01*
X135683757Y-107567246D01*
X135893713Y-107600500D01*
X135893714Y-107600500D01*
X136106286Y-107600500D01*
X136106287Y-107600500D01*
X136316243Y-107567246D01*
X136518412Y-107501557D01*
X136707816Y-107405051D01*
X136794138Y-107342335D01*
X136879786Y-107280109D01*
X136879788Y-107280106D01*
X136879792Y-107280104D01*
X137030104Y-107129792D01*
X137030106Y-107129788D01*
X137030109Y-107129786D01*
X137155048Y-106957820D01*
X137155047Y-106957820D01*
X137155051Y-106957816D01*
X137159514Y-106949054D01*
X137207488Y-106898259D01*
X137275308Y-106881463D01*
X137341444Y-106903999D01*
X137380486Y-106949056D01*
X137384951Y-106957820D01*
X137509890Y-107129786D01*
X137660213Y-107280109D01*
X137832179Y-107405048D01*
X137832181Y-107405049D01*
X137832184Y-107405051D01*
X138021588Y-107501557D01*
X138223757Y-107567246D01*
X138433713Y-107600500D01*
X138433714Y-107600500D01*
X138646286Y-107600500D01*
X138646287Y-107600500D01*
X138856243Y-107567246D01*
X139058412Y-107501557D01*
X139247816Y-107405051D01*
X139334138Y-107342335D01*
X139419786Y-107280109D01*
X139419788Y-107280106D01*
X139419792Y-107280104D01*
X139570104Y-107129792D01*
X139570106Y-107129788D01*
X139570109Y-107129786D01*
X139695048Y-106957820D01*
X139695047Y-106957820D01*
X139695051Y-106957816D01*
X139699514Y-106949054D01*
X139747488Y-106898259D01*
X139815308Y-106881463D01*
X139881444Y-106903999D01*
X139920486Y-106949056D01*
X139924951Y-106957820D01*
X140049890Y-107129786D01*
X140200213Y-107280109D01*
X140372179Y-107405048D01*
X140372181Y-107405049D01*
X140372184Y-107405051D01*
X140561588Y-107501557D01*
X140763757Y-107567246D01*
X140973713Y-107600500D01*
X140973714Y-107600500D01*
X141186286Y-107600500D01*
X141186287Y-107600500D01*
X141396243Y-107567246D01*
X141598412Y-107501557D01*
X141787816Y-107405051D01*
X141874138Y-107342335D01*
X141959786Y-107280109D01*
X141959788Y-107280106D01*
X141959792Y-107280104D01*
X142110104Y-107129792D01*
X142110106Y-107129788D01*
X142110109Y-107129786D01*
X142235048Y-106957820D01*
X142235047Y-106957820D01*
X142235051Y-106957816D01*
X142239514Y-106949054D01*
X142287488Y-106898259D01*
X142355308Y-106881463D01*
X142421444Y-106903999D01*
X142460486Y-106949056D01*
X142464951Y-106957820D01*
X142589890Y-107129786D01*
X142740213Y-107280109D01*
X142912179Y-107405048D01*
X142912181Y-107405049D01*
X142912184Y-107405051D01*
X143101588Y-107501557D01*
X143303757Y-107567246D01*
X143513713Y-107600500D01*
X143513714Y-107600500D01*
X143726286Y-107600500D01*
X143726287Y-107600500D01*
X143936243Y-107567246D01*
X144138412Y-107501557D01*
X144327816Y-107405051D01*
X144414138Y-107342335D01*
X144499786Y-107280109D01*
X144499788Y-107280106D01*
X144499792Y-107280104D01*
X144650104Y-107129792D01*
X144650106Y-107129788D01*
X144650109Y-107129786D01*
X144775048Y-106957820D01*
X144775047Y-106957820D01*
X144775051Y-106957816D01*
X144779514Y-106949054D01*
X144827488Y-106898259D01*
X144895308Y-106881463D01*
X144961444Y-106903999D01*
X145000486Y-106949056D01*
X145004951Y-106957820D01*
X145129890Y-107129786D01*
X145280213Y-107280109D01*
X145452179Y-107405048D01*
X145452181Y-107405049D01*
X145452184Y-107405051D01*
X145641588Y-107501557D01*
X145843757Y-107567246D01*
X146053713Y-107600500D01*
X146053714Y-107600500D01*
X146266286Y-107600500D01*
X146266287Y-107600500D01*
X146476243Y-107567246D01*
X146678412Y-107501557D01*
X146867816Y-107405051D01*
X146954138Y-107342335D01*
X147039786Y-107280109D01*
X147039788Y-107280106D01*
X147039792Y-107280104D01*
X147190104Y-107129792D01*
X147190106Y-107129788D01*
X147190109Y-107129786D01*
X147315048Y-106957820D01*
X147315047Y-106957820D01*
X147315051Y-106957816D01*
X147319514Y-106949054D01*
X147367488Y-106898259D01*
X147435308Y-106881463D01*
X147501444Y-106903999D01*
X147540486Y-106949056D01*
X147544951Y-106957820D01*
X147669890Y-107129786D01*
X147820213Y-107280109D01*
X147992179Y-107405048D01*
X147992181Y-107405049D01*
X147992184Y-107405051D01*
X148181588Y-107501557D01*
X148383757Y-107567246D01*
X148593713Y-107600500D01*
X148593714Y-107600500D01*
X148806286Y-107600500D01*
X148806287Y-107600500D01*
X149016243Y-107567246D01*
X149218412Y-107501557D01*
X149407816Y-107405051D01*
X149494138Y-107342335D01*
X149579786Y-107280109D01*
X149579788Y-107280106D01*
X149579792Y-107280104D01*
X149730104Y-107129792D01*
X149730106Y-107129788D01*
X149730109Y-107129786D01*
X149855048Y-106957820D01*
X149855047Y-106957820D01*
X149855051Y-106957816D01*
X149859514Y-106949054D01*
X149907488Y-106898259D01*
X149975308Y-106881463D01*
X150041444Y-106903999D01*
X150080486Y-106949056D01*
X150084951Y-106957820D01*
X150209890Y-107129786D01*
X150360213Y-107280109D01*
X150532179Y-107405048D01*
X150532181Y-107405049D01*
X150532184Y-107405051D01*
X150721588Y-107501557D01*
X150923757Y-107567246D01*
X151133713Y-107600500D01*
X151133714Y-107600500D01*
X151346286Y-107600500D01*
X151346287Y-107600500D01*
X151556243Y-107567246D01*
X151758412Y-107501557D01*
X151947816Y-107405051D01*
X152034138Y-107342335D01*
X152119786Y-107280109D01*
X152119788Y-107280106D01*
X152119792Y-107280104D01*
X152270104Y-107129792D01*
X152270106Y-107129788D01*
X152270109Y-107129786D01*
X152395048Y-106957820D01*
X152395047Y-106957820D01*
X152395051Y-106957816D01*
X152399514Y-106949054D01*
X152447488Y-106898259D01*
X152515308Y-106881463D01*
X152581444Y-106903999D01*
X152620486Y-106949056D01*
X152624951Y-106957820D01*
X152749890Y-107129786D01*
X152900213Y-107280109D01*
X153072179Y-107405048D01*
X153072181Y-107405049D01*
X153072184Y-107405051D01*
X153261588Y-107501557D01*
X153463757Y-107567246D01*
X153673713Y-107600500D01*
X153673714Y-107600500D01*
X153886286Y-107600500D01*
X153886287Y-107600500D01*
X154096243Y-107567246D01*
X154298412Y-107501557D01*
X154487816Y-107405051D01*
X154574138Y-107342335D01*
X154659786Y-107280109D01*
X154659788Y-107280106D01*
X154659792Y-107280104D01*
X154810104Y-107129792D01*
X154810106Y-107129788D01*
X154810109Y-107129786D01*
X154935048Y-106957820D01*
X154935047Y-106957820D01*
X154935051Y-106957816D01*
X155031557Y-106768412D01*
X155097246Y-106566243D01*
X155130500Y-106356287D01*
X155130500Y-106143713D01*
X155097246Y-105933757D01*
X155031557Y-105731588D01*
X154935051Y-105542184D01*
X154935049Y-105542181D01*
X154935048Y-105542179D01*
X154810109Y-105370213D01*
X154659786Y-105219890D01*
X154487820Y-105094951D01*
X154298414Y-104998444D01*
X154298413Y-104998443D01*
X154298412Y-104998443D01*
X154096243Y-104932754D01*
X154096241Y-104932753D01*
X154096240Y-104932753D01*
X153934957Y-104907208D01*
X153886287Y-104899500D01*
X153673713Y-104899500D01*
X153625042Y-104907208D01*
X153463760Y-104932753D01*
X153261585Y-104998444D01*
X153072179Y-105094951D01*
X152900213Y-105219890D01*
X152749890Y-105370213D01*
X152624949Y-105542182D01*
X152620484Y-105550946D01*
X152572509Y-105601742D01*
X152504688Y-105618536D01*
X152438553Y-105595998D01*
X152399516Y-105550946D01*
X152395050Y-105542182D01*
X152270109Y-105370213D01*
X152119786Y-105219890D01*
X151947820Y-105094951D01*
X151758414Y-104998444D01*
X151758413Y-104998443D01*
X151758412Y-104998443D01*
X151556243Y-104932754D01*
X151556241Y-104932753D01*
X151556240Y-104932753D01*
X151394957Y-104907208D01*
X151346287Y-104899500D01*
X151133713Y-104899500D01*
X151085042Y-104907208D01*
X150923760Y-104932753D01*
X150721585Y-104998444D01*
X150532179Y-105094951D01*
X150360213Y-105219890D01*
X150209890Y-105370213D01*
X150084949Y-105542182D01*
X150080484Y-105550946D01*
X150032509Y-105601742D01*
X149964688Y-105618536D01*
X149898553Y-105595998D01*
X149859516Y-105550946D01*
X149855050Y-105542182D01*
X149730109Y-105370213D01*
X149579786Y-105219890D01*
X149407820Y-105094951D01*
X149218414Y-104998444D01*
X149218413Y-104998443D01*
X149218412Y-104998443D01*
X149016243Y-104932754D01*
X149016241Y-104932753D01*
X149016240Y-104932753D01*
X148854957Y-104907208D01*
X148806287Y-104899500D01*
X148593713Y-104899500D01*
X148545042Y-104907208D01*
X148383760Y-104932753D01*
X148181585Y-104998444D01*
X147992179Y-105094951D01*
X147820213Y-105219890D01*
X147669890Y-105370213D01*
X147544949Y-105542182D01*
X147540484Y-105550946D01*
X147492509Y-105601742D01*
X147424688Y-105618536D01*
X147358553Y-105595998D01*
X147319516Y-105550946D01*
X147315050Y-105542182D01*
X147190109Y-105370213D01*
X147039786Y-105219890D01*
X146867820Y-105094951D01*
X146678414Y-104998444D01*
X146678413Y-104998443D01*
X146678412Y-104998443D01*
X146476243Y-104932754D01*
X146476241Y-104932753D01*
X146476240Y-104932753D01*
X146314957Y-104907208D01*
X146266287Y-104899500D01*
X146053713Y-104899500D01*
X146005042Y-104907208D01*
X145843760Y-104932753D01*
X145641585Y-104998444D01*
X145452179Y-105094951D01*
X145280213Y-105219890D01*
X145129890Y-105370213D01*
X145004949Y-105542182D01*
X145000484Y-105550946D01*
X144952509Y-105601742D01*
X144884688Y-105618536D01*
X144818553Y-105595998D01*
X144779516Y-105550946D01*
X144775050Y-105542182D01*
X144650109Y-105370213D01*
X144499786Y-105219890D01*
X144327820Y-105094951D01*
X144138414Y-104998444D01*
X144138413Y-104998443D01*
X144138412Y-104998443D01*
X143936243Y-104932754D01*
X143936241Y-104932753D01*
X143936240Y-104932753D01*
X143774957Y-104907208D01*
X143726287Y-104899500D01*
X143513713Y-104899500D01*
X143465042Y-104907208D01*
X143303760Y-104932753D01*
X143101585Y-104998444D01*
X142912179Y-105094951D01*
X142740213Y-105219890D01*
X142589890Y-105370213D01*
X142464949Y-105542182D01*
X142460484Y-105550946D01*
X142412509Y-105601742D01*
X142344688Y-105618536D01*
X142278553Y-105595998D01*
X142239516Y-105550946D01*
X142235050Y-105542182D01*
X142110109Y-105370213D01*
X141959786Y-105219890D01*
X141787820Y-105094951D01*
X141598414Y-104998444D01*
X141598413Y-104998443D01*
X141598412Y-104998443D01*
X141396243Y-104932754D01*
X141396241Y-104932753D01*
X141396240Y-104932753D01*
X141234957Y-104907208D01*
X141186287Y-104899500D01*
X140973713Y-104899500D01*
X140925042Y-104907208D01*
X140763760Y-104932753D01*
X140561585Y-104998444D01*
X140372179Y-105094951D01*
X140200213Y-105219890D01*
X140049890Y-105370213D01*
X139924949Y-105542182D01*
X139920484Y-105550946D01*
X139872509Y-105601742D01*
X139804688Y-105618536D01*
X139738553Y-105595998D01*
X139699516Y-105550946D01*
X139695050Y-105542182D01*
X139570109Y-105370213D01*
X139419786Y-105219890D01*
X139247820Y-105094951D01*
X139058414Y-104998444D01*
X139058413Y-104998443D01*
X139058412Y-104998443D01*
X138856243Y-104932754D01*
X138856241Y-104932753D01*
X138856240Y-104932753D01*
X138694957Y-104907208D01*
X138646287Y-104899500D01*
X138433713Y-104899500D01*
X138385042Y-104907208D01*
X138223760Y-104932753D01*
X138021585Y-104998444D01*
X137832179Y-105094951D01*
X137660213Y-105219890D01*
X137509890Y-105370213D01*
X137384949Y-105542182D01*
X137380484Y-105550946D01*
X137332509Y-105601742D01*
X137264688Y-105618536D01*
X137198553Y-105595998D01*
X137159516Y-105550946D01*
X137155050Y-105542182D01*
X137030109Y-105370213D01*
X136879786Y-105219890D01*
X136707820Y-105094951D01*
X136518414Y-104998444D01*
X136518413Y-104998443D01*
X136518412Y-104998443D01*
X136316243Y-104932754D01*
X136316241Y-104932753D01*
X136316240Y-104932753D01*
X136154957Y-104907208D01*
X136106287Y-104899500D01*
X135893713Y-104899500D01*
X135845042Y-104907208D01*
X135683760Y-104932753D01*
X135481585Y-104998444D01*
X135292179Y-105094951D01*
X135120213Y-105219890D01*
X134969890Y-105370213D01*
X134844949Y-105542182D01*
X134840484Y-105550946D01*
X134792509Y-105601742D01*
X134724688Y-105618536D01*
X134658553Y-105595998D01*
X134619516Y-105550946D01*
X134615050Y-105542182D01*
X134490109Y-105370213D01*
X134339786Y-105219890D01*
X134167820Y-105094951D01*
X133978414Y-104998444D01*
X133978413Y-104998443D01*
X133978412Y-104998443D01*
X133776243Y-104932754D01*
X133776241Y-104932753D01*
X133776240Y-104932753D01*
X133614957Y-104907208D01*
X133566287Y-104899500D01*
X133353713Y-104899500D01*
X133305042Y-104907208D01*
X133143760Y-104932753D01*
X132941585Y-104998444D01*
X132752179Y-105094951D01*
X132580213Y-105219890D01*
X132429890Y-105370213D01*
X132304949Y-105542182D01*
X132300484Y-105550946D01*
X132252509Y-105601742D01*
X132184688Y-105618536D01*
X132118553Y-105595998D01*
X132079516Y-105550946D01*
X132075050Y-105542182D01*
X131950109Y-105370213D01*
X131799786Y-105219890D01*
X131627820Y-105094951D01*
X131438414Y-104998444D01*
X131438413Y-104998443D01*
X131438412Y-104998443D01*
X131236243Y-104932754D01*
X131236241Y-104932753D01*
X131236240Y-104932753D01*
X131074957Y-104907208D01*
X131026287Y-104899500D01*
X130813713Y-104899500D01*
X130765042Y-104907208D01*
X130603760Y-104932753D01*
X130401585Y-104998444D01*
X130212179Y-105094951D01*
X130040213Y-105219890D01*
X129889890Y-105370213D01*
X129764949Y-105542182D01*
X129760484Y-105550946D01*
X129712509Y-105601742D01*
X129644688Y-105618536D01*
X129578553Y-105595998D01*
X129539516Y-105550946D01*
X129535050Y-105542182D01*
X129410109Y-105370213D01*
X129259786Y-105219890D01*
X129087820Y-105094951D01*
X128898414Y-104998444D01*
X128898413Y-104998443D01*
X128898412Y-104998443D01*
X128696243Y-104932754D01*
X128696241Y-104932753D01*
X128696240Y-104932753D01*
X128534957Y-104907208D01*
X128486287Y-104899500D01*
X128273713Y-104899500D01*
X128225042Y-104907208D01*
X128063760Y-104932753D01*
X127861585Y-104998444D01*
X127672179Y-105094951D01*
X127500213Y-105219890D01*
X127349890Y-105370213D01*
X127224949Y-105542182D01*
X127220484Y-105550946D01*
X127172509Y-105601742D01*
X127104688Y-105618536D01*
X127038553Y-105595998D01*
X126999516Y-105550946D01*
X126995050Y-105542182D01*
X126870109Y-105370213D01*
X126719786Y-105219890D01*
X126547820Y-105094951D01*
X126358414Y-104998444D01*
X126358413Y-104998443D01*
X126358412Y-104998443D01*
X126156243Y-104932754D01*
X126156241Y-104932753D01*
X126156240Y-104932753D01*
X125994957Y-104907208D01*
X125946287Y-104899500D01*
X125733713Y-104899500D01*
X125685042Y-104907208D01*
X125523760Y-104932753D01*
X125321585Y-104998444D01*
X125132179Y-105094951D01*
X124960213Y-105219890D01*
X124809890Y-105370213D01*
X124684949Y-105542182D01*
X124680484Y-105550946D01*
X124632509Y-105601742D01*
X124564688Y-105618536D01*
X124498553Y-105595998D01*
X124459516Y-105550946D01*
X124455050Y-105542182D01*
X124330109Y-105370213D01*
X124179786Y-105219890D01*
X124007820Y-105094951D01*
X123818414Y-104998444D01*
X123818413Y-104998443D01*
X123818412Y-104998443D01*
X123616243Y-104932754D01*
X123616241Y-104932753D01*
X123616240Y-104932753D01*
X123454957Y-104907208D01*
X123406287Y-104899500D01*
X123193713Y-104899500D01*
X123145042Y-104907208D01*
X122983760Y-104932753D01*
X122781585Y-104998444D01*
X122592179Y-105094951D01*
X122420213Y-105219890D01*
X122269890Y-105370213D01*
X122144949Y-105542182D01*
X122140484Y-105550946D01*
X122092509Y-105601742D01*
X122024688Y-105618536D01*
X121958553Y-105595998D01*
X121919516Y-105550946D01*
X121915050Y-105542182D01*
X121790109Y-105370213D01*
X121639786Y-105219890D01*
X121467820Y-105094951D01*
X121278414Y-104998444D01*
X121278413Y-104998443D01*
X121278412Y-104998443D01*
X121076243Y-104932754D01*
X121076241Y-104932753D01*
X121076240Y-104932753D01*
X120914957Y-104907208D01*
X120866287Y-104899500D01*
X120653713Y-104899500D01*
X120605042Y-104907208D01*
X120443760Y-104932753D01*
X120241585Y-104998444D01*
X120052179Y-105094951D01*
X119880215Y-105219889D01*
X119766673Y-105333431D01*
X119705350Y-105366915D01*
X119635658Y-105361931D01*
X119579725Y-105320059D01*
X119562810Y-105289082D01*
X119513797Y-105157671D01*
X119513793Y-105157664D01*
X119427547Y-105042455D01*
X119427544Y-105042452D01*
X119312335Y-104956206D01*
X119312328Y-104956202D01*
X119177482Y-104905908D01*
X119177483Y-104905908D01*
X119117883Y-104899501D01*
X119117881Y-104899500D01*
X119117873Y-104899500D01*
X119117864Y-104899500D01*
X117322129Y-104899500D01*
X117322123Y-104899501D01*
X117262516Y-104905908D01*
X117127671Y-104956202D01*
X117127664Y-104956206D01*
X117012455Y-105042452D01*
X117012452Y-105042455D01*
X116926206Y-105157664D01*
X116926202Y-105157671D01*
X116875908Y-105292517D01*
X116869501Y-105352116D01*
X116869500Y-105352135D01*
X110000500Y-105352135D01*
X110000500Y-79902135D01*
X116869500Y-79902135D01*
X116869500Y-81697870D01*
X116869501Y-81697876D01*
X116875908Y-81757483D01*
X116926202Y-81892328D01*
X116926206Y-81892335D01*
X117012452Y-82007544D01*
X117012455Y-82007547D01*
X117127664Y-82093793D01*
X117127671Y-82093797D01*
X117262517Y-82144091D01*
X117262516Y-82144091D01*
X117269444Y-82144835D01*
X117322127Y-82150500D01*
X119117872Y-82150499D01*
X119177483Y-82144091D01*
X119312331Y-82093796D01*
X119427546Y-82007546D01*
X119513796Y-81892331D01*
X119564091Y-81757483D01*
X119570500Y-81697873D01*
X119570499Y-81673979D01*
X119573330Y-81660963D01*
X119583940Y-81641525D01*
X119590179Y-81620275D01*
X119606803Y-81599643D01*
X119606808Y-81599636D01*
X119606811Y-81599634D01*
X119606818Y-81599626D01*
X120277037Y-80929408D01*
X120294075Y-80992993D01*
X120359901Y-81107007D01*
X120452993Y-81200099D01*
X120567007Y-81265925D01*
X120630590Y-81282962D01*
X119998282Y-81915269D01*
X119998282Y-81915270D01*
X120052449Y-81954624D01*
X120241782Y-82051095D01*
X120443870Y-82116757D01*
X120653754Y-82150000D01*
X120866246Y-82150000D01*
X121076127Y-82116757D01*
X121076130Y-82116757D01*
X121278217Y-82051095D01*
X121467554Y-81954622D01*
X121521716Y-81915270D01*
X121521717Y-81915270D01*
X120889408Y-81282962D01*
X120952993Y-81265925D01*
X121067007Y-81200099D01*
X121160099Y-81107007D01*
X121225925Y-80992993D01*
X121242962Y-80929409D01*
X121875270Y-81561717D01*
X121875270Y-81561716D01*
X121914622Y-81507555D01*
X121919232Y-81498507D01*
X121967205Y-81447709D01*
X122035025Y-81430912D01*
X122101161Y-81453447D01*
X122140204Y-81498504D01*
X122144949Y-81507817D01*
X122269890Y-81679786D01*
X122420213Y-81830109D01*
X122592179Y-81955048D01*
X122592181Y-81955049D01*
X122592184Y-81955051D01*
X122781588Y-82051557D01*
X122983757Y-82117246D01*
X123193713Y-82150500D01*
X123193714Y-82150500D01*
X123406286Y-82150500D01*
X123406287Y-82150500D01*
X123616243Y-82117246D01*
X123818412Y-82051557D01*
X124007816Y-81955051D01*
X124094138Y-81892335D01*
X124179786Y-81830109D01*
X124179788Y-81830106D01*
X124179792Y-81830104D01*
X124330104Y-81679792D01*
X124330106Y-81679788D01*
X124330109Y-81679786D01*
X124455048Y-81507820D01*
X124455050Y-81507817D01*
X124455051Y-81507816D01*
X124459514Y-81499054D01*
X124507488Y-81448259D01*
X124575308Y-81431463D01*
X124641444Y-81453999D01*
X124680486Y-81499056D01*
X124684951Y-81507820D01*
X124809890Y-81679786D01*
X124960213Y-81830109D01*
X125132179Y-81955048D01*
X125132181Y-81955049D01*
X125132184Y-81955051D01*
X125321588Y-82051557D01*
X125523757Y-82117246D01*
X125733713Y-82150500D01*
X125733714Y-82150500D01*
X125946286Y-82150500D01*
X125946287Y-82150500D01*
X126156243Y-82117246D01*
X126358412Y-82051557D01*
X126547816Y-81955051D01*
X126634138Y-81892335D01*
X126719786Y-81830109D01*
X126719788Y-81830106D01*
X126719792Y-81830104D01*
X126870104Y-81679792D01*
X126870106Y-81679788D01*
X126870109Y-81679786D01*
X126995048Y-81507820D01*
X126995050Y-81507817D01*
X126995051Y-81507816D01*
X126999514Y-81499054D01*
X127047488Y-81448259D01*
X127115308Y-81431463D01*
X127181444Y-81453999D01*
X127220486Y-81499056D01*
X127224951Y-81507820D01*
X127349890Y-81679786D01*
X127500213Y-81830109D01*
X127672179Y-81955048D01*
X127672181Y-81955049D01*
X127672184Y-81955051D01*
X127861588Y-82051557D01*
X128063757Y-82117246D01*
X128273713Y-82150500D01*
X128273714Y-82150500D01*
X128486286Y-82150500D01*
X128486287Y-82150500D01*
X128696243Y-82117246D01*
X128898412Y-82051557D01*
X129087816Y-81955051D01*
X129174138Y-81892335D01*
X129259786Y-81830109D01*
X129259788Y-81830106D01*
X129259792Y-81830104D01*
X129410104Y-81679792D01*
X129410106Y-81679788D01*
X129410109Y-81679786D01*
X129535048Y-81507820D01*
X129535050Y-81507817D01*
X129535051Y-81507816D01*
X129539514Y-81499054D01*
X129587488Y-81448259D01*
X129655308Y-81431463D01*
X129721444Y-81453999D01*
X129760486Y-81499056D01*
X129764951Y-81507820D01*
X129889890Y-81679786D01*
X130040213Y-81830109D01*
X130212179Y-81955048D01*
X130212181Y-81955049D01*
X130212184Y-81955051D01*
X130401588Y-82051557D01*
X130603757Y-82117246D01*
X130813713Y-82150500D01*
X130813714Y-82150500D01*
X131026286Y-82150500D01*
X131026287Y-82150500D01*
X131236243Y-82117246D01*
X131438412Y-82051557D01*
X131627816Y-81955051D01*
X131714138Y-81892335D01*
X131799786Y-81830109D01*
X131799788Y-81830106D01*
X131799792Y-81830104D01*
X131950104Y-81679792D01*
X131950106Y-81679788D01*
X131950109Y-81679786D01*
X132075048Y-81507820D01*
X132075050Y-81507817D01*
X132075051Y-81507816D01*
X132079514Y-81499054D01*
X132127488Y-81448259D01*
X132195308Y-81431463D01*
X132261444Y-81453999D01*
X132300486Y-81499056D01*
X132304951Y-81507820D01*
X132429890Y-81679786D01*
X132580213Y-81830109D01*
X132752179Y-81955048D01*
X132752181Y-81955049D01*
X132752184Y-81955051D01*
X132941588Y-82051557D01*
X133143757Y-82117246D01*
X133353713Y-82150500D01*
X133353714Y-82150500D01*
X133566286Y-82150500D01*
X133566287Y-82150500D01*
X133776243Y-82117246D01*
X133978412Y-82051557D01*
X134167816Y-81955051D01*
X134254138Y-81892335D01*
X134339786Y-81830109D01*
X134339788Y-81830106D01*
X134339792Y-81830104D01*
X134490104Y-81679792D01*
X134490106Y-81679788D01*
X134490109Y-81679786D01*
X134615048Y-81507820D01*
X134615050Y-81507817D01*
X134615051Y-81507816D01*
X134619514Y-81499054D01*
X134667488Y-81448259D01*
X134735308Y-81431463D01*
X134801444Y-81453999D01*
X134840486Y-81499056D01*
X134844951Y-81507820D01*
X134969890Y-81679786D01*
X135120213Y-81830109D01*
X135292179Y-81955048D01*
X135292181Y-81955049D01*
X135292184Y-81955051D01*
X135481588Y-82051557D01*
X135683757Y-82117246D01*
X135893713Y-82150500D01*
X135893714Y-82150500D01*
X136106286Y-82150500D01*
X136106287Y-82150500D01*
X136316243Y-82117246D01*
X136518412Y-82051557D01*
X136707816Y-81955051D01*
X136794138Y-81892335D01*
X136879786Y-81830109D01*
X136879788Y-81830106D01*
X136879792Y-81830104D01*
X137030104Y-81679792D01*
X137030106Y-81679788D01*
X137030109Y-81679786D01*
X137155048Y-81507820D01*
X137155050Y-81507817D01*
X137155051Y-81507816D01*
X137159514Y-81499054D01*
X137207488Y-81448259D01*
X137275308Y-81431463D01*
X137341444Y-81453999D01*
X137380486Y-81499056D01*
X137384951Y-81507820D01*
X137509890Y-81679786D01*
X137660213Y-81830109D01*
X137832179Y-81955048D01*
X137832181Y-81955049D01*
X137832184Y-81955051D01*
X138021588Y-82051557D01*
X138223757Y-82117246D01*
X138433713Y-82150500D01*
X138433714Y-82150500D01*
X138646286Y-82150500D01*
X138646287Y-82150500D01*
X138856243Y-82117246D01*
X139058412Y-82051557D01*
X139247816Y-81955051D01*
X139334138Y-81892335D01*
X139419786Y-81830109D01*
X139419788Y-81830106D01*
X139419792Y-81830104D01*
X139570104Y-81679792D01*
X139570106Y-81679788D01*
X139570109Y-81679786D01*
X139695048Y-81507820D01*
X139695050Y-81507817D01*
X139695051Y-81507816D01*
X139699514Y-81499054D01*
X139747488Y-81448259D01*
X139815308Y-81431463D01*
X139881444Y-81453999D01*
X139920486Y-81499056D01*
X139924951Y-81507820D01*
X140049890Y-81679786D01*
X140200213Y-81830109D01*
X140372179Y-81955048D01*
X140372181Y-81955049D01*
X140372184Y-81955051D01*
X140561588Y-82051557D01*
X140763757Y-82117246D01*
X140973713Y-82150500D01*
X140973714Y-82150500D01*
X141186286Y-82150500D01*
X141186287Y-82150500D01*
X141396243Y-82117246D01*
X141598412Y-82051557D01*
X141787816Y-81955051D01*
X141874138Y-81892335D01*
X141959786Y-81830109D01*
X141959788Y-81830106D01*
X141959792Y-81830104D01*
X142110104Y-81679792D01*
X142110106Y-81679788D01*
X142110109Y-81679786D01*
X142235048Y-81507820D01*
X142235050Y-81507817D01*
X142235051Y-81507816D01*
X142239514Y-81499054D01*
X142287488Y-81448259D01*
X142355308Y-81431463D01*
X142421444Y-81453999D01*
X142460486Y-81499056D01*
X142464951Y-81507820D01*
X142589890Y-81679786D01*
X142740213Y-81830109D01*
X142912179Y-81955048D01*
X142912181Y-81955049D01*
X142912184Y-81955051D01*
X143101588Y-82051557D01*
X143303757Y-82117246D01*
X143513713Y-82150500D01*
X143513714Y-82150500D01*
X143726286Y-82150500D01*
X143726287Y-82150500D01*
X143936243Y-82117246D01*
X144138412Y-82051557D01*
X144327816Y-81955051D01*
X144414138Y-81892335D01*
X144499786Y-81830109D01*
X144499788Y-81830106D01*
X144499792Y-81830104D01*
X144650104Y-81679792D01*
X144650106Y-81679788D01*
X144650109Y-81679786D01*
X144775048Y-81507820D01*
X144775050Y-81507817D01*
X144775051Y-81507816D01*
X144779514Y-81499054D01*
X144827488Y-81448259D01*
X144895308Y-81431463D01*
X144961444Y-81453999D01*
X145000486Y-81499056D01*
X145004951Y-81507820D01*
X145129890Y-81679786D01*
X145280213Y-81830109D01*
X145452179Y-81955048D01*
X145452181Y-81955049D01*
X145452184Y-81955051D01*
X145641588Y-82051557D01*
X145843757Y-82117246D01*
X146053713Y-82150500D01*
X146053714Y-82150500D01*
X146266286Y-82150500D01*
X146266287Y-82150500D01*
X146476243Y-82117246D01*
X146678412Y-82051557D01*
X146867816Y-81955051D01*
X146954138Y-81892335D01*
X147039786Y-81830109D01*
X147039788Y-81830106D01*
X147039792Y-81830104D01*
X147190104Y-81679792D01*
X147190106Y-81679788D01*
X147190109Y-81679786D01*
X147315048Y-81507820D01*
X147315050Y-81507817D01*
X147315051Y-81507816D01*
X147319514Y-81499054D01*
X147367488Y-81448259D01*
X147435308Y-81431463D01*
X147501444Y-81453999D01*
X147540486Y-81499056D01*
X147544951Y-81507820D01*
X147669890Y-81679786D01*
X147820213Y-81830109D01*
X147992179Y-81955048D01*
X147992181Y-81955049D01*
X147992184Y-81955051D01*
X148181588Y-82051557D01*
X148383757Y-82117246D01*
X148593713Y-82150500D01*
X148593714Y-82150500D01*
X148806286Y-82150500D01*
X148806287Y-82150500D01*
X149016243Y-82117246D01*
X149218412Y-82051557D01*
X149407816Y-81955051D01*
X149494138Y-81892335D01*
X149579786Y-81830109D01*
X149579788Y-81830106D01*
X149579792Y-81830104D01*
X149730104Y-81679792D01*
X149730106Y-81679788D01*
X149730109Y-81679786D01*
X149855048Y-81507820D01*
X149855050Y-81507817D01*
X149855051Y-81507816D01*
X149859514Y-81499054D01*
X149907488Y-81448259D01*
X149975308Y-81431463D01*
X150041444Y-81453999D01*
X150080486Y-81499056D01*
X150084951Y-81507820D01*
X150209890Y-81679786D01*
X150360213Y-81830109D01*
X150532179Y-81955048D01*
X150532181Y-81955049D01*
X150532184Y-81955051D01*
X150721588Y-82051557D01*
X150923757Y-82117246D01*
X151133713Y-82150500D01*
X151133714Y-82150500D01*
X151346286Y-82150500D01*
X151346287Y-82150500D01*
X151556243Y-82117246D01*
X151758412Y-82051557D01*
X151947816Y-81955051D01*
X152034138Y-81892335D01*
X152119786Y-81830109D01*
X152119788Y-81830106D01*
X152119792Y-81830104D01*
X152270104Y-81679792D01*
X152270106Y-81679788D01*
X152270109Y-81679786D01*
X152395048Y-81507820D01*
X152395050Y-81507817D01*
X152395051Y-81507816D01*
X152399514Y-81499054D01*
X152447488Y-81448259D01*
X152515308Y-81431463D01*
X152581444Y-81453999D01*
X152620486Y-81499056D01*
X152624951Y-81507820D01*
X152749890Y-81679786D01*
X152900213Y-81830109D01*
X153072179Y-81955048D01*
X153072181Y-81955049D01*
X153072184Y-81955051D01*
X153261588Y-82051557D01*
X153463757Y-82117246D01*
X153673713Y-82150500D01*
X153673714Y-82150500D01*
X153886286Y-82150500D01*
X153886287Y-82150500D01*
X154071575Y-82121153D01*
X200599500Y-82121153D01*
X200599500Y-82278846D01*
X200630261Y-82433489D01*
X200630264Y-82433501D01*
X200690602Y-82579172D01*
X200690609Y-82579185D01*
X200778209Y-82710287D01*
X200778210Y-82710288D01*
X200778211Y-82710289D01*
X200799681Y-82731759D01*
X200833166Y-82793080D01*
X200836000Y-82819440D01*
X200836000Y-88074252D01*
X200874435Y-88217696D01*
X200948687Y-88346304D01*
X200948689Y-88346306D01*
X201060761Y-88458378D01*
X201060767Y-88458383D01*
X207509681Y-94907297D01*
X207543166Y-94968620D01*
X207546000Y-94994978D01*
X207546000Y-98425102D01*
X207526315Y-98492141D01*
X207478295Y-98535587D01*
X207271151Y-98641132D01*
X207067350Y-98789201D01*
X207067345Y-98789205D01*
X206889205Y-98967345D01*
X206889201Y-98967350D01*
X206741132Y-99171151D01*
X206626760Y-99395616D01*
X206548910Y-99635214D01*
X206509500Y-99884038D01*
X206509500Y-100135961D01*
X206548910Y-100384785D01*
X206626760Y-100624383D01*
X206741132Y-100848848D01*
X206889201Y-101052649D01*
X206889205Y-101052654D01*
X206889207Y-101052656D01*
X207067344Y-101230793D01*
X207067345Y-101230794D01*
X207067344Y-101230794D01*
X207073661Y-101235383D01*
X207116327Y-101290714D01*
X207122305Y-101360327D01*
X207089699Y-101422122D01*
X207028860Y-101456479D01*
X206981378Y-101458174D01*
X206926611Y-101449500D01*
X206753389Y-101449500D01*
X206713728Y-101455781D01*
X206582302Y-101476597D01*
X206417552Y-101530128D01*
X206263211Y-101608768D01*
X206206289Y-101650125D01*
X206123072Y-101710586D01*
X206123070Y-101710588D01*
X206123069Y-101710588D01*
X206000588Y-101833069D01*
X206000588Y-101833070D01*
X206000586Y-101833072D01*
X205956859Y-101893256D01*
X205898768Y-101973211D01*
X205820128Y-102127552D01*
X205766597Y-102292302D01*
X205739500Y-102463389D01*
X205739500Y-102636611D01*
X205766598Y-102807701D01*
X205820127Y-102972445D01*
X205898768Y-103126788D01*
X206000586Y-103266928D01*
X206123072Y-103389414D01*
X206263212Y-103491232D01*
X206417555Y-103569873D01*
X206582299Y-103623402D01*
X206753389Y-103650500D01*
X206753390Y-103650500D01*
X206926610Y-103650500D01*
X206926611Y-103650500D01*
X207097701Y-103623402D01*
X207262445Y-103569873D01*
X207416788Y-103491232D01*
X207556928Y-103389414D01*
X207679414Y-103266928D01*
X207781232Y-103126788D01*
X207859873Y-102972445D01*
X207913402Y-102807701D01*
X207940500Y-102636611D01*
X207940500Y-102463389D01*
X207930854Y-102402486D01*
X209669500Y-102402486D01*
X209669500Y-102697513D01*
X209701571Y-102941113D01*
X209708007Y-102989993D01*
X209782212Y-103266930D01*
X209784361Y-103274951D01*
X209784364Y-103274961D01*
X209897254Y-103547500D01*
X209897258Y-103547510D01*
X210044761Y-103802993D01*
X210224352Y-104037040D01*
X210224358Y-104037047D01*
X210432952Y-104245641D01*
X210432959Y-104245647D01*
X210667006Y-104425238D01*
X210922489Y-104572741D01*
X210922490Y-104572741D01*
X210922493Y-104572743D01*
X211195048Y-104685639D01*
X211480007Y-104761993D01*
X211772494Y-104800500D01*
X211772501Y-104800500D01*
X212067499Y-104800500D01*
X212067506Y-104800500D01*
X212359993Y-104761993D01*
X212644952Y-104685639D01*
X212917507Y-104572743D01*
X213172994Y-104425238D01*
X213407042Y-104245646D01*
X213615646Y-104037042D01*
X213795238Y-103802994D01*
X213942743Y-103547507D01*
X214055639Y-103274952D01*
X214131993Y-102989993D01*
X214170500Y-102697506D01*
X214170500Y-102463389D01*
X215899500Y-102463389D01*
X215899500Y-102636611D01*
X215926598Y-102807701D01*
X215980127Y-102972445D01*
X216058768Y-103126788D01*
X216160586Y-103266928D01*
X216283072Y-103389414D01*
X216423212Y-103491232D01*
X216577555Y-103569873D01*
X216742299Y-103623402D01*
X216913389Y-103650500D01*
X216913390Y-103650500D01*
X217086610Y-103650500D01*
X217086611Y-103650500D01*
X217257701Y-103623402D01*
X217422445Y-103569873D01*
X217576788Y-103491232D01*
X217716928Y-103389414D01*
X217839414Y-103266928D01*
X217941232Y-103126788D01*
X218019873Y-102972445D01*
X218073402Y-102807701D01*
X218100500Y-102636611D01*
X218100500Y-102463389D01*
X218073402Y-102292299D01*
X218019873Y-102127555D01*
X217941232Y-101973212D01*
X217839414Y-101833072D01*
X217716928Y-101710586D01*
X217576788Y-101608768D01*
X217422445Y-101530127D01*
X217257701Y-101476598D01*
X217257699Y-101476597D01*
X217257698Y-101476597D01*
X217126271Y-101455781D01*
X217086611Y-101449500D01*
X216913389Y-101449500D01*
X216873728Y-101455781D01*
X216742302Y-101476597D01*
X216577552Y-101530128D01*
X216423211Y-101608768D01*
X216366289Y-101650125D01*
X216283072Y-101710586D01*
X216283070Y-101710588D01*
X216283069Y-101710588D01*
X216160588Y-101833069D01*
X216160588Y-101833070D01*
X216160586Y-101833072D01*
X216116859Y-101893256D01*
X216058768Y-101973211D01*
X215980128Y-102127552D01*
X215926597Y-102292302D01*
X215899500Y-102463389D01*
X214170500Y-102463389D01*
X214170500Y-102402494D01*
X214131993Y-102110007D01*
X214055639Y-101825048D01*
X213942743Y-101552493D01*
X213887309Y-101456479D01*
X213795238Y-101297006D01*
X213615647Y-101062959D01*
X213615641Y-101062952D01*
X213407047Y-100854358D01*
X213407040Y-100854352D01*
X213172993Y-100674761D01*
X212917510Y-100527258D01*
X212917500Y-100527254D01*
X212644961Y-100414364D01*
X212644954Y-100414362D01*
X212644952Y-100414361D01*
X212359993Y-100338007D01*
X212311113Y-100331571D01*
X212067513Y-100299500D01*
X212067506Y-100299500D01*
X211772494Y-100299500D01*
X211772486Y-100299500D01*
X211494085Y-100336153D01*
X211480007Y-100338007D01*
X211305428Y-100384785D01*
X211195048Y-100414361D01*
X211195038Y-100414364D01*
X210922499Y-100527254D01*
X210922489Y-100527258D01*
X210667006Y-100674761D01*
X210432959Y-100854352D01*
X210432952Y-100854358D01*
X210224358Y-101062952D01*
X210224352Y-101062959D01*
X210044761Y-101297006D01*
X209897258Y-101552489D01*
X209897254Y-101552499D01*
X209784364Y-101825038D01*
X209784361Y-101825048D01*
X209708008Y-102110004D01*
X209708006Y-102110015D01*
X209669500Y-102402486D01*
X207930854Y-102402486D01*
X207913402Y-102292299D01*
X207859873Y-102127555D01*
X207781232Y-101973212D01*
X207679414Y-101833072D01*
X207627482Y-101781140D01*
X207593997Y-101719817D01*
X207598981Y-101650125D01*
X207640853Y-101594192D01*
X207706317Y-101569775D01*
X207734561Y-101570986D01*
X207735212Y-101571089D01*
X207735215Y-101571090D01*
X207984038Y-101610500D01*
X207984039Y-101610500D01*
X208235961Y-101610500D01*
X208235962Y-101610500D01*
X208484785Y-101571090D01*
X208724379Y-101493241D01*
X208948845Y-101378870D01*
X209152656Y-101230793D01*
X209330793Y-101052656D01*
X209478870Y-100848845D01*
X209593241Y-100624379D01*
X209671090Y-100384785D01*
X209710500Y-100135962D01*
X209710500Y-99884038D01*
X209671090Y-99635215D01*
X209593241Y-99395621D01*
X209593239Y-99395618D01*
X209593239Y-99395616D01*
X209551747Y-99314184D01*
X209478870Y-99171155D01*
X209376753Y-99030602D01*
X209330798Y-98967350D01*
X209330794Y-98967345D01*
X209152654Y-98789205D01*
X209152649Y-98789201D01*
X208948848Y-98641132D01*
X208948847Y-98641131D01*
X208948845Y-98641130D01*
X208741705Y-98535587D01*
X208690909Y-98487612D01*
X208674000Y-98425102D01*
X208674000Y-97344071D01*
X212860000Y-97344071D01*
X212860000Y-97595928D01*
X212899397Y-97844669D01*
X212977219Y-98084184D01*
X213091557Y-98308583D01*
X213165748Y-98410697D01*
X213165748Y-98410698D01*
X213782421Y-97794024D01*
X213795359Y-97825258D01*
X213877437Y-97948097D01*
X213981903Y-98052563D01*
X214104742Y-98134641D01*
X214135974Y-98147577D01*
X213519300Y-98764250D01*
X213621416Y-98838442D01*
X213845815Y-98952780D01*
X214085330Y-99030602D01*
X214334072Y-99070000D01*
X214585928Y-99070000D01*
X214834669Y-99030602D01*
X215074184Y-98952780D01*
X215298575Y-98838446D01*
X215298581Y-98838442D01*
X215400697Y-98764250D01*
X215400698Y-98764250D01*
X214784025Y-98147578D01*
X214815258Y-98134641D01*
X214938097Y-98052563D01*
X215042563Y-97948097D01*
X215124641Y-97825258D01*
X215137577Y-97794025D01*
X215754250Y-98410698D01*
X215754250Y-98410697D01*
X215828442Y-98308581D01*
X215828446Y-98308575D01*
X215942780Y-98084184D01*
X216020602Y-97844669D01*
X216060000Y-97595928D01*
X216060000Y-97344071D01*
X216020602Y-97095330D01*
X215942780Y-96855815D01*
X215828442Y-96631416D01*
X215754250Y-96529301D01*
X215754250Y-96529300D01*
X215137577Y-97145973D01*
X215124641Y-97114742D01*
X215042563Y-96991903D01*
X214938097Y-96887437D01*
X214815258Y-96805359D01*
X214784024Y-96792421D01*
X215400698Y-96175748D01*
X215298583Y-96101557D01*
X215074184Y-95987219D01*
X214834669Y-95909397D01*
X214585928Y-95870000D01*
X214334072Y-95870000D01*
X214085330Y-95909397D01*
X213845815Y-95987219D01*
X213621413Y-96101559D01*
X213519301Y-96175747D01*
X213519300Y-96175748D01*
X214135974Y-96792421D01*
X214104742Y-96805359D01*
X213981903Y-96887437D01*
X213877437Y-96991903D01*
X213795359Y-97114742D01*
X213782421Y-97145974D01*
X213165748Y-96529300D01*
X213165747Y-96529301D01*
X213091559Y-96631413D01*
X212977219Y-96855815D01*
X212899397Y-97095330D01*
X212860000Y-97344071D01*
X208674000Y-97344071D01*
X208674000Y-94635750D01*
X208674000Y-94635748D01*
X208635565Y-94492304D01*
X208561313Y-94363696D01*
X208456304Y-94258687D01*
X208456303Y-94258686D01*
X208451973Y-94254356D01*
X208451962Y-94254346D01*
X202000319Y-87802703D01*
X201966834Y-87741380D01*
X201964000Y-87715022D01*
X201964000Y-82819440D01*
X201983685Y-82752401D01*
X202000315Y-82731762D01*
X202021789Y-82710289D01*
X202109394Y-82579179D01*
X202169737Y-82433497D01*
X202200500Y-82278842D01*
X202200500Y-82121158D01*
X202200500Y-82121155D01*
X202200499Y-82121153D01*
X202199625Y-82116757D01*
X202169737Y-81966503D01*
X202169735Y-81966498D01*
X202109397Y-81820827D01*
X202109390Y-81820814D01*
X202021789Y-81689711D01*
X202021786Y-81689707D01*
X201910292Y-81578213D01*
X201910288Y-81578210D01*
X201779185Y-81490609D01*
X201779172Y-81490602D01*
X201633501Y-81430264D01*
X201633489Y-81430261D01*
X201478845Y-81399500D01*
X201478842Y-81399500D01*
X201321158Y-81399500D01*
X201321155Y-81399500D01*
X201166510Y-81430261D01*
X201166498Y-81430264D01*
X201020827Y-81490602D01*
X201020814Y-81490609D01*
X200889711Y-81578210D01*
X200889707Y-81578213D01*
X200778213Y-81689707D01*
X200778210Y-81689711D01*
X200690609Y-81820814D01*
X200690602Y-81820827D01*
X200630264Y-81966498D01*
X200630261Y-81966510D01*
X200599500Y-82121153D01*
X154071575Y-82121153D01*
X154096243Y-82117246D01*
X154298412Y-82051557D01*
X154487816Y-81955051D01*
X154584371Y-81884899D01*
X154659786Y-81830109D01*
X154659788Y-81830106D01*
X154659792Y-81830104D01*
X154810104Y-81679792D01*
X154810106Y-81679788D01*
X154810109Y-81679786D01*
X154935048Y-81507820D01*
X154935050Y-81507817D01*
X154935051Y-81507816D01*
X155031557Y-81318412D01*
X155097246Y-81116243D01*
X155130500Y-80906287D01*
X155130500Y-80693713D01*
X155097246Y-80483757D01*
X155031557Y-80281588D01*
X154935051Y-80092184D01*
X154935049Y-80092181D01*
X154935048Y-80092179D01*
X154810109Y-79920213D01*
X154659786Y-79769890D01*
X154487820Y-79644951D01*
X154298414Y-79548444D01*
X154298413Y-79548443D01*
X154298412Y-79548443D01*
X154290679Y-79545930D01*
X154233004Y-79506493D01*
X154205806Y-79442135D01*
X154217721Y-79373288D01*
X154264965Y-79321813D01*
X154328998Y-79304000D01*
X206525102Y-79304000D01*
X206592141Y-79323685D01*
X206635587Y-79371705D01*
X206725874Y-79548904D01*
X206741132Y-79578848D01*
X206889201Y-79782649D01*
X206889205Y-79782654D01*
X206889207Y-79782656D01*
X207067344Y-79960793D01*
X207067345Y-79960794D01*
X207067344Y-79960794D01*
X207073661Y-79965383D01*
X207116327Y-80020714D01*
X207122305Y-80090327D01*
X207089699Y-80152122D01*
X207028860Y-80186479D01*
X206981378Y-80188174D01*
X206926611Y-80179500D01*
X206753389Y-80179500D01*
X206713728Y-80185781D01*
X206582302Y-80206597D01*
X206417552Y-80260128D01*
X206263211Y-80338768D01*
X206206289Y-80380125D01*
X206123072Y-80440586D01*
X206123070Y-80440588D01*
X206123069Y-80440588D01*
X206000588Y-80563069D01*
X206000588Y-80563070D01*
X206000586Y-80563072D01*
X205968665Y-80607007D01*
X205898768Y-80703211D01*
X205820128Y-80857552D01*
X205766597Y-81022302D01*
X205739500Y-81193389D01*
X205739500Y-81366610D01*
X205761864Y-81507816D01*
X205766598Y-81537701D01*
X205820127Y-81702445D01*
X205898768Y-81856788D01*
X206000586Y-81996928D01*
X206123072Y-82119414D01*
X206263212Y-82221232D01*
X206417555Y-82299873D01*
X206582299Y-82353402D01*
X206753389Y-82380500D01*
X206753390Y-82380500D01*
X206926610Y-82380500D01*
X206926611Y-82380500D01*
X207097701Y-82353402D01*
X207262445Y-82299873D01*
X207416788Y-82221232D01*
X207556928Y-82119414D01*
X207679414Y-81996928D01*
X207781232Y-81856788D01*
X207859873Y-81702445D01*
X207913402Y-81537701D01*
X207940500Y-81366611D01*
X207940500Y-81193389D01*
X207930854Y-81132486D01*
X209669500Y-81132486D01*
X209669500Y-81427513D01*
X209692162Y-81599643D01*
X209708007Y-81719993D01*
X209782212Y-81996930D01*
X209784361Y-82004951D01*
X209784364Y-82004961D01*
X209897254Y-82277500D01*
X209897258Y-82277510D01*
X210044761Y-82532993D01*
X210224352Y-82767040D01*
X210224358Y-82767047D01*
X210432952Y-82975641D01*
X210432959Y-82975647D01*
X210667006Y-83155238D01*
X210922489Y-83302741D01*
X210922490Y-83302741D01*
X210922493Y-83302743D01*
X211195048Y-83415639D01*
X211480007Y-83491993D01*
X211772494Y-83530500D01*
X211772501Y-83530500D01*
X212067499Y-83530500D01*
X212067506Y-83530500D01*
X212359993Y-83491993D01*
X212644952Y-83415639D01*
X212917507Y-83302743D01*
X213172994Y-83155238D01*
X213407042Y-82975646D01*
X213615646Y-82767042D01*
X213795238Y-82532994D01*
X213942743Y-82277507D01*
X214055639Y-82004952D01*
X214131993Y-81719993D01*
X214170500Y-81427506D01*
X214170500Y-81193389D01*
X215899500Y-81193389D01*
X215899500Y-81366610D01*
X215921864Y-81507816D01*
X215926598Y-81537701D01*
X215980127Y-81702445D01*
X216058768Y-81856788D01*
X216160586Y-81996928D01*
X216283072Y-82119414D01*
X216423212Y-82221232D01*
X216577555Y-82299873D01*
X216742299Y-82353402D01*
X216913389Y-82380500D01*
X216913390Y-82380500D01*
X217086610Y-82380500D01*
X217086611Y-82380500D01*
X217257701Y-82353402D01*
X217422445Y-82299873D01*
X217576788Y-82221232D01*
X217716928Y-82119414D01*
X217839414Y-81996928D01*
X217941232Y-81856788D01*
X218019873Y-81702445D01*
X218073402Y-81537701D01*
X218100500Y-81366611D01*
X218100500Y-81193389D01*
X218073402Y-81022299D01*
X218019873Y-80857555D01*
X217941232Y-80703212D01*
X217839414Y-80563072D01*
X217716928Y-80440586D01*
X217576788Y-80338768D01*
X217422445Y-80260127D01*
X217257701Y-80206598D01*
X217257699Y-80206597D01*
X217257698Y-80206597D01*
X217126271Y-80185781D01*
X217086611Y-80179500D01*
X216913389Y-80179500D01*
X216873728Y-80185781D01*
X216742302Y-80206597D01*
X216577552Y-80260128D01*
X216423211Y-80338768D01*
X216366289Y-80380125D01*
X216283072Y-80440586D01*
X216283070Y-80440588D01*
X216283069Y-80440588D01*
X216160588Y-80563069D01*
X216160588Y-80563070D01*
X216160586Y-80563072D01*
X216128665Y-80607007D01*
X216058768Y-80703211D01*
X215980128Y-80857552D01*
X215926597Y-81022302D01*
X215899500Y-81193389D01*
X214170500Y-81193389D01*
X214170500Y-81132494D01*
X214131993Y-80840007D01*
X214055639Y-80555048D01*
X213942743Y-80282493D01*
X213942220Y-80281588D01*
X213795238Y-80027006D01*
X213615647Y-79792959D01*
X213615641Y-79792952D01*
X213407047Y-79584358D01*
X213407040Y-79584352D01*
X213172993Y-79404761D01*
X212917510Y-79257258D01*
X212917500Y-79257254D01*
X212644961Y-79144364D01*
X212644954Y-79144362D01*
X212644952Y-79144361D01*
X212359993Y-79068007D01*
X212311113Y-79061571D01*
X212067513Y-79029500D01*
X212067506Y-79029500D01*
X211772494Y-79029500D01*
X211772486Y-79029500D01*
X211494085Y-79066153D01*
X211480007Y-79068007D01*
X211322196Y-79110292D01*
X211195048Y-79144361D01*
X211195038Y-79144364D01*
X210922499Y-79257254D01*
X210922489Y-79257258D01*
X210667006Y-79404761D01*
X210432959Y-79584352D01*
X210432952Y-79584358D01*
X210224358Y-79792952D01*
X210224352Y-79792959D01*
X210044761Y-80027006D01*
X209897258Y-80282489D01*
X209897254Y-80282499D01*
X209784364Y-80555038D01*
X209784361Y-80555048D01*
X209708008Y-80840004D01*
X209708006Y-80840015D01*
X209669500Y-81132486D01*
X207930854Y-81132486D01*
X207913402Y-81022299D01*
X207859873Y-80857555D01*
X207781232Y-80703212D01*
X207679414Y-80563072D01*
X207627482Y-80511140D01*
X207593997Y-80449817D01*
X207598981Y-80380125D01*
X207640853Y-80324192D01*
X207706317Y-80299775D01*
X207734561Y-80300986D01*
X207735212Y-80301089D01*
X207735215Y-80301090D01*
X207984038Y-80340500D01*
X207984039Y-80340500D01*
X208235961Y-80340500D01*
X208235962Y-80340500D01*
X208484785Y-80301090D01*
X208724379Y-80223241D01*
X208948845Y-80108870D01*
X209152656Y-79960793D01*
X209330793Y-79782656D01*
X209478870Y-79578845D01*
X209593241Y-79354379D01*
X209671090Y-79114785D01*
X209710500Y-78865962D01*
X209710500Y-78614038D01*
X209671090Y-78365215D01*
X209593241Y-78125621D01*
X209593239Y-78125618D01*
X209593239Y-78125616D01*
X209518131Y-77978210D01*
X209478870Y-77901155D01*
X209427363Y-77830261D01*
X209330798Y-77697350D01*
X209330794Y-77697345D01*
X209152654Y-77519205D01*
X209152649Y-77519201D01*
X208948848Y-77371132D01*
X208948847Y-77371131D01*
X208948845Y-77371130D01*
X208878747Y-77335413D01*
X208724383Y-77256760D01*
X208484785Y-77178910D01*
X208235962Y-77139500D01*
X207984038Y-77139500D01*
X207859626Y-77159205D01*
X207735214Y-77178910D01*
X207495616Y-77256760D01*
X207271151Y-77371132D01*
X207067350Y-77519201D01*
X207067345Y-77519205D01*
X206889205Y-77697345D01*
X206889201Y-77697350D01*
X206741132Y-77901151D01*
X206635587Y-78108295D01*
X206587612Y-78159091D01*
X206525102Y-78176000D01*
X201913173Y-78176000D01*
X201846134Y-78156315D01*
X201800379Y-78103511D01*
X201791556Y-78076191D01*
X201772066Y-77978211D01*
X201769737Y-77966503D01*
X201738298Y-77890602D01*
X201709397Y-77820827D01*
X201709390Y-77820814D01*
X201621789Y-77689711D01*
X201621786Y-77689707D01*
X201600319Y-77668240D01*
X201566834Y-77606917D01*
X201564000Y-77580559D01*
X201564000Y-76074071D01*
X212860000Y-76074071D01*
X212860000Y-76325928D01*
X212899397Y-76574669D01*
X212977219Y-76814184D01*
X213091557Y-77038583D01*
X213165748Y-77140697D01*
X213165748Y-77140698D01*
X213782421Y-76524024D01*
X213795359Y-76555258D01*
X213877437Y-76678097D01*
X213981903Y-76782563D01*
X214104742Y-76864641D01*
X214135974Y-76877577D01*
X213519300Y-77494250D01*
X213621416Y-77568442D01*
X213845815Y-77682780D01*
X214085330Y-77760602D01*
X214334072Y-77800000D01*
X214585928Y-77800000D01*
X214834669Y-77760602D01*
X215074184Y-77682780D01*
X215298575Y-77568446D01*
X215298581Y-77568442D01*
X215400697Y-77494250D01*
X215400698Y-77494250D01*
X214784025Y-76877578D01*
X214815258Y-76864641D01*
X214938097Y-76782563D01*
X215042563Y-76678097D01*
X215124641Y-76555258D01*
X215137577Y-76524025D01*
X215754250Y-77140698D01*
X215754250Y-77140697D01*
X215828442Y-77038581D01*
X215828446Y-77038575D01*
X215942780Y-76814184D01*
X216020602Y-76574669D01*
X216060000Y-76325928D01*
X216060000Y-76074071D01*
X216020602Y-75825330D01*
X215942780Y-75585815D01*
X215828442Y-75361416D01*
X215754250Y-75259301D01*
X215754250Y-75259300D01*
X215137577Y-75875973D01*
X215124641Y-75844742D01*
X215042563Y-75721903D01*
X214938097Y-75617437D01*
X214815258Y-75535359D01*
X214784024Y-75522421D01*
X215400698Y-74905748D01*
X215298583Y-74831557D01*
X215074184Y-74717219D01*
X214834669Y-74639397D01*
X214585928Y-74600000D01*
X214334072Y-74600000D01*
X214085330Y-74639397D01*
X213845815Y-74717219D01*
X213621413Y-74831559D01*
X213519301Y-74905747D01*
X213519300Y-74905748D01*
X214135974Y-75522421D01*
X214104742Y-75535359D01*
X213981903Y-75617437D01*
X213877437Y-75721903D01*
X213795359Y-75844742D01*
X213782421Y-75875974D01*
X213165748Y-75259300D01*
X213165747Y-75259301D01*
X213091559Y-75361413D01*
X212977219Y-75585815D01*
X212899397Y-75825330D01*
X212860000Y-76074071D01*
X201564000Y-76074071D01*
X201564000Y-63084978D01*
X201583685Y-63017939D01*
X201600319Y-62997297D01*
X205577297Y-59020319D01*
X205638620Y-58986834D01*
X205664978Y-58984000D01*
X206525102Y-58984000D01*
X206592141Y-59003685D01*
X206635587Y-59051705D01*
X206700366Y-59178842D01*
X206741132Y-59258848D01*
X206889201Y-59462649D01*
X206889205Y-59462654D01*
X206889207Y-59462656D01*
X207067344Y-59640793D01*
X207067345Y-59640794D01*
X207067344Y-59640794D01*
X207073661Y-59645383D01*
X207116327Y-59700714D01*
X207122305Y-59770327D01*
X207089699Y-59832122D01*
X207028860Y-59866479D01*
X206981378Y-59868174D01*
X206926611Y-59859500D01*
X206753389Y-59859500D01*
X206713728Y-59865781D01*
X206582302Y-59886597D01*
X206417552Y-59940128D01*
X206263211Y-60018768D01*
X206225335Y-60046287D01*
X206123072Y-60120586D01*
X206123070Y-60120588D01*
X206123069Y-60120588D01*
X206000588Y-60243069D01*
X206000588Y-60243070D01*
X206000586Y-60243072D01*
X205991020Y-60256239D01*
X205898768Y-60383211D01*
X205820128Y-60537552D01*
X205766597Y-60702302D01*
X205739500Y-60873389D01*
X205739500Y-61046610D01*
X205764639Y-61205337D01*
X205766598Y-61217701D01*
X205820127Y-61382445D01*
X205898768Y-61536788D01*
X206000586Y-61676928D01*
X206123072Y-61799414D01*
X206263212Y-61901232D01*
X206417555Y-61979873D01*
X206582299Y-62033402D01*
X206753389Y-62060500D01*
X206753390Y-62060500D01*
X206926610Y-62060500D01*
X206926611Y-62060500D01*
X207097701Y-62033402D01*
X207262445Y-61979873D01*
X207416788Y-61901232D01*
X207556928Y-61799414D01*
X207679414Y-61676928D01*
X207781232Y-61536788D01*
X207859873Y-61382445D01*
X207913402Y-61217701D01*
X207940500Y-61046611D01*
X207940500Y-60873389D01*
X207930854Y-60812486D01*
X209669500Y-60812486D01*
X209669500Y-61107513D01*
X209697360Y-61319121D01*
X209708007Y-61399993D01*
X209782212Y-61676930D01*
X209784361Y-61684951D01*
X209784364Y-61684961D01*
X209897254Y-61957500D01*
X209897258Y-61957510D01*
X210044761Y-62212993D01*
X210224352Y-62447040D01*
X210224358Y-62447047D01*
X210432952Y-62655641D01*
X210432959Y-62655647D01*
X210667006Y-62835238D01*
X210922489Y-62982741D01*
X210922490Y-62982741D01*
X210922493Y-62982743D01*
X211195048Y-63095639D01*
X211480007Y-63171993D01*
X211772494Y-63210500D01*
X211772501Y-63210500D01*
X212067499Y-63210500D01*
X212067506Y-63210500D01*
X212359993Y-63171993D01*
X212644952Y-63095639D01*
X212917507Y-62982743D01*
X213172994Y-62835238D01*
X213407042Y-62655646D01*
X213615646Y-62447042D01*
X213795238Y-62212994D01*
X213942743Y-61957507D01*
X214055639Y-61684952D01*
X214131993Y-61399993D01*
X214170500Y-61107506D01*
X214170500Y-60873389D01*
X215899500Y-60873389D01*
X215899500Y-61046610D01*
X215924639Y-61205337D01*
X215926598Y-61217701D01*
X215980127Y-61382445D01*
X216058768Y-61536788D01*
X216160586Y-61676928D01*
X216283072Y-61799414D01*
X216423212Y-61901232D01*
X216577555Y-61979873D01*
X216742299Y-62033402D01*
X216913389Y-62060500D01*
X216913390Y-62060500D01*
X217086610Y-62060500D01*
X217086611Y-62060500D01*
X217257701Y-62033402D01*
X217422445Y-61979873D01*
X217576788Y-61901232D01*
X217716928Y-61799414D01*
X217839414Y-61676928D01*
X217941232Y-61536788D01*
X218019873Y-61382445D01*
X218073402Y-61217701D01*
X218100500Y-61046611D01*
X218100500Y-60873389D01*
X218073402Y-60702299D01*
X218019873Y-60537555D01*
X217941232Y-60383212D01*
X217839414Y-60243072D01*
X217716928Y-60120586D01*
X217576788Y-60018768D01*
X217422445Y-59940127D01*
X217257701Y-59886598D01*
X217257699Y-59886597D01*
X217257698Y-59886597D01*
X217126271Y-59865781D01*
X217086611Y-59859500D01*
X216913389Y-59859500D01*
X216873728Y-59865781D01*
X216742302Y-59886597D01*
X216577552Y-59940128D01*
X216423211Y-60018768D01*
X216385335Y-60046287D01*
X216283072Y-60120586D01*
X216283070Y-60120588D01*
X216283069Y-60120588D01*
X216160588Y-60243069D01*
X216160588Y-60243070D01*
X216160586Y-60243072D01*
X216151020Y-60256239D01*
X216058768Y-60383211D01*
X215980128Y-60537552D01*
X215926597Y-60702302D01*
X215899500Y-60873389D01*
X214170500Y-60873389D01*
X214170500Y-60812494D01*
X214131993Y-60520007D01*
X214055639Y-60235048D01*
X213942743Y-59962493D01*
X213906951Y-59900500D01*
X213795238Y-59707006D01*
X213615647Y-59472959D01*
X213615641Y-59472952D01*
X213407047Y-59264358D01*
X213407040Y-59264352D01*
X213172993Y-59084761D01*
X212917510Y-58937258D01*
X212917500Y-58937254D01*
X212644961Y-58824364D01*
X212644954Y-58824362D01*
X212644952Y-58824361D01*
X212359993Y-58748007D01*
X212308016Y-58741164D01*
X212067513Y-58709500D01*
X212067506Y-58709500D01*
X211772494Y-58709500D01*
X211772486Y-58709500D01*
X211494085Y-58746153D01*
X211480007Y-58748007D01*
X211305428Y-58794785D01*
X211195048Y-58824361D01*
X211195038Y-58824364D01*
X210922499Y-58937254D01*
X210922489Y-58937258D01*
X210667006Y-59084761D01*
X210432959Y-59264352D01*
X210432952Y-59264358D01*
X210224358Y-59472952D01*
X210224352Y-59472959D01*
X210044761Y-59707006D01*
X209897258Y-59962489D01*
X209897254Y-59962499D01*
X209784364Y-60235038D01*
X209784361Y-60235048D01*
X209739721Y-60401650D01*
X209708008Y-60520004D01*
X209708006Y-60520015D01*
X209669500Y-60812486D01*
X207930854Y-60812486D01*
X207913402Y-60702299D01*
X207859873Y-60537555D01*
X207781232Y-60383212D01*
X207679414Y-60243072D01*
X207627482Y-60191140D01*
X207593997Y-60129817D01*
X207598981Y-60060125D01*
X207640853Y-60004192D01*
X207706317Y-59979775D01*
X207734561Y-59980986D01*
X207735212Y-59981089D01*
X207735215Y-59981090D01*
X207984038Y-60020500D01*
X207984039Y-60020500D01*
X208235961Y-60020500D01*
X208235962Y-60020500D01*
X208484785Y-59981090D01*
X208724379Y-59903241D01*
X208948845Y-59788870D01*
X209152656Y-59640793D01*
X209330793Y-59462656D01*
X209478870Y-59258845D01*
X209593241Y-59034379D01*
X209671090Y-58794785D01*
X209710500Y-58545962D01*
X209710500Y-58294038D01*
X209671090Y-58045215D01*
X209593241Y-57805621D01*
X209593239Y-57805618D01*
X209593239Y-57805616D01*
X209542995Y-57707007D01*
X209478870Y-57581155D01*
X209459952Y-57555117D01*
X209330798Y-57377350D01*
X209330794Y-57377345D01*
X209152654Y-57199205D01*
X209152649Y-57199201D01*
X208948848Y-57051132D01*
X208948847Y-57051131D01*
X208948845Y-57051130D01*
X208878747Y-57015413D01*
X208724383Y-56936760D01*
X208484785Y-56858910D01*
X208465692Y-56855886D01*
X208235962Y-56819500D01*
X207984038Y-56819500D01*
X207859626Y-56839205D01*
X207735214Y-56858910D01*
X207495616Y-56936760D01*
X207271151Y-57051132D01*
X207067350Y-57199201D01*
X207067345Y-57199205D01*
X206889205Y-57377345D01*
X206889201Y-57377350D01*
X206741132Y-57581151D01*
X206635587Y-57788295D01*
X206587612Y-57839091D01*
X206525102Y-57856000D01*
X205305747Y-57856000D01*
X205162303Y-57894435D01*
X205126797Y-57914935D01*
X205033699Y-57968685D01*
X205033693Y-57968689D01*
X200548688Y-62453694D01*
X200479499Y-62573533D01*
X200479498Y-62573534D01*
X200474436Y-62582301D01*
X200444313Y-62694723D01*
X200436000Y-62725747D01*
X200436000Y-77580559D01*
X200416315Y-77647598D01*
X200399681Y-77668240D01*
X200378213Y-77689707D01*
X200378210Y-77689711D01*
X200290609Y-77820814D01*
X200290602Y-77820827D01*
X200230264Y-77966498D01*
X200230261Y-77966510D01*
X200208444Y-78076191D01*
X200176059Y-78138102D01*
X200115343Y-78172676D01*
X200086827Y-78176000D01*
X129741225Y-78176000D01*
X129674186Y-78156315D01*
X129638123Y-78120890D01*
X129617292Y-78089715D01*
X129617286Y-78089707D01*
X129505792Y-77978213D01*
X129505788Y-77978210D01*
X129374685Y-77890609D01*
X129374672Y-77890602D01*
X129229001Y-77830264D01*
X129228989Y-77830261D01*
X129074345Y-77799500D01*
X129074342Y-77799500D01*
X128916658Y-77799500D01*
X128916655Y-77799500D01*
X128762010Y-77830261D01*
X128761998Y-77830264D01*
X128616327Y-77890602D01*
X128616314Y-77890609D01*
X128485211Y-77978210D01*
X128485207Y-77978213D01*
X128373713Y-78089707D01*
X128373710Y-78089711D01*
X128286109Y-78220814D01*
X128286102Y-78220827D01*
X128225764Y-78366498D01*
X128225761Y-78366510D01*
X128195000Y-78521153D01*
X128195000Y-78678846D01*
X128225761Y-78833489D01*
X128225764Y-78833501D01*
X128286102Y-78979172D01*
X128286109Y-78979185D01*
X128373710Y-79110288D01*
X128373713Y-79110292D01*
X128485208Y-79221787D01*
X128486121Y-79222397D01*
X128486491Y-79222839D01*
X128489919Y-79225653D01*
X128489385Y-79226303D01*
X128530927Y-79276010D01*
X128539634Y-79345334D01*
X128509480Y-79408362D01*
X128450037Y-79445082D01*
X128417231Y-79449500D01*
X128273713Y-79449500D01*
X128225042Y-79457208D01*
X128063760Y-79482753D01*
X127861585Y-79548444D01*
X127672179Y-79644951D01*
X127500213Y-79769890D01*
X127349890Y-79920213D01*
X127224949Y-80092182D01*
X127220484Y-80100946D01*
X127172509Y-80151742D01*
X127104688Y-80168536D01*
X127038553Y-80145998D01*
X126999516Y-80100946D01*
X126995050Y-80092182D01*
X126870109Y-79920213D01*
X126719786Y-79769890D01*
X126547820Y-79644951D01*
X126358414Y-79548444D01*
X126358413Y-79548443D01*
X126358412Y-79548443D01*
X126156243Y-79482754D01*
X126156241Y-79482753D01*
X126156240Y-79482753D01*
X125994957Y-79457208D01*
X125946287Y-79449500D01*
X125733713Y-79449500D01*
X125685042Y-79457208D01*
X125523760Y-79482753D01*
X125321585Y-79548444D01*
X125132179Y-79644951D01*
X124960213Y-79769890D01*
X124809890Y-79920213D01*
X124684949Y-80092182D01*
X124680484Y-80100946D01*
X124632509Y-80151742D01*
X124564688Y-80168536D01*
X124498553Y-80145998D01*
X124459516Y-80100946D01*
X124455050Y-80092182D01*
X124330109Y-79920213D01*
X124179786Y-79769890D01*
X124007820Y-79644951D01*
X123818414Y-79548444D01*
X123818413Y-79548443D01*
X123818412Y-79548443D01*
X123616243Y-79482754D01*
X123616241Y-79482753D01*
X123616240Y-79482753D01*
X123454957Y-79457208D01*
X123406287Y-79449500D01*
X123193713Y-79449500D01*
X123145042Y-79457208D01*
X122983760Y-79482753D01*
X122781585Y-79548444D01*
X122592179Y-79644951D01*
X122420213Y-79769890D01*
X122269890Y-79920213D01*
X122144949Y-80092182D01*
X122140202Y-80101499D01*
X122092227Y-80152293D01*
X122024405Y-80169087D01*
X121958271Y-80146548D01*
X121919234Y-80101495D01*
X121914626Y-80092452D01*
X121875270Y-80038282D01*
X121875269Y-80038282D01*
X121242962Y-80670590D01*
X121225925Y-80607007D01*
X121160099Y-80492993D01*
X121067007Y-80399901D01*
X120952993Y-80334075D01*
X120889409Y-80317037D01*
X121521716Y-79684728D01*
X121467550Y-79645375D01*
X121278217Y-79548904D01*
X121076129Y-79483242D01*
X120866246Y-79450000D01*
X120653754Y-79450000D01*
X120443872Y-79483242D01*
X120443869Y-79483242D01*
X120241782Y-79548904D01*
X120052439Y-79645380D01*
X119998282Y-79684727D01*
X119998282Y-79684728D01*
X120630591Y-80317037D01*
X120567007Y-80334075D01*
X120452993Y-80399901D01*
X120359901Y-80492993D01*
X120294075Y-80607007D01*
X120277037Y-80670591D01*
X119606818Y-80000372D01*
X119573333Y-79939049D01*
X119573330Y-79939036D01*
X119570499Y-79926015D01*
X119570499Y-79902128D01*
X119564091Y-79842517D01*
X119535926Y-79767002D01*
X119513798Y-79707673D01*
X119513793Y-79707664D01*
X119427547Y-79592455D01*
X119427544Y-79592452D01*
X119312335Y-79506206D01*
X119312328Y-79506202D01*
X119177482Y-79455908D01*
X119177483Y-79455908D01*
X119117883Y-79449501D01*
X119117881Y-79449500D01*
X119117873Y-79449500D01*
X119117864Y-79449500D01*
X117322129Y-79449500D01*
X117322123Y-79449501D01*
X117262516Y-79455908D01*
X117127671Y-79506202D01*
X117127664Y-79506206D01*
X117012455Y-79592452D01*
X117012452Y-79592455D01*
X116926206Y-79707664D01*
X116926202Y-79707671D01*
X116875908Y-79842517D01*
X116869501Y-79902116D01*
X116869500Y-79902135D01*
X110000500Y-79902135D01*
X110000500Y-57293713D01*
X119109500Y-57293713D01*
X119109500Y-57506287D01*
X119142754Y-57716243D01*
X119207313Y-57914935D01*
X119208444Y-57918414D01*
X119304951Y-58107820D01*
X119429890Y-58279786D01*
X119580213Y-58430109D01*
X119752182Y-58555050D01*
X119760946Y-58559516D01*
X119811742Y-58607491D01*
X119828536Y-58675312D01*
X119805998Y-58741447D01*
X119760946Y-58780484D01*
X119752182Y-58784949D01*
X119580213Y-58909890D01*
X119429890Y-59060213D01*
X119304951Y-59232179D01*
X119208444Y-59421585D01*
X119142753Y-59623760D01*
X119109500Y-59833713D01*
X119109500Y-60046286D01*
X119142753Y-60256239D01*
X119208444Y-60458414D01*
X119304951Y-60647820D01*
X119429890Y-60819786D01*
X119580213Y-60970109D01*
X119752179Y-61095048D01*
X119752181Y-61095049D01*
X119752184Y-61095051D01*
X119941588Y-61191557D01*
X120143757Y-61257246D01*
X120353713Y-61290500D01*
X120353714Y-61290500D01*
X120566286Y-61290500D01*
X120566287Y-61290500D01*
X120776243Y-61257246D01*
X120831475Y-61239299D01*
X120901312Y-61237304D01*
X120961145Y-61273384D01*
X120991974Y-61336085D01*
X120984010Y-61405499D01*
X120957471Y-61444912D01*
X120089203Y-62313181D01*
X120027880Y-62346666D01*
X120001522Y-62349500D01*
X119971155Y-62349500D01*
X119816510Y-62380261D01*
X119816498Y-62380264D01*
X119670827Y-62440602D01*
X119670814Y-62440609D01*
X119539711Y-62528210D01*
X119539707Y-62528213D01*
X119428213Y-62639707D01*
X119428210Y-62639711D01*
X119340609Y-62770814D01*
X119340602Y-62770827D01*
X119280264Y-62916498D01*
X119280261Y-62916510D01*
X119249500Y-63071153D01*
X119249500Y-63228846D01*
X119280261Y-63383489D01*
X119280264Y-63383501D01*
X119340602Y-63529172D01*
X119340609Y-63529185D01*
X119428210Y-63660288D01*
X119428213Y-63660292D01*
X119539707Y-63771786D01*
X119539711Y-63771789D01*
X119670814Y-63859390D01*
X119670827Y-63859397D01*
X119816498Y-63919735D01*
X119816503Y-63919737D01*
X119971153Y-63950499D01*
X119971156Y-63950500D01*
X119971158Y-63950500D01*
X120128844Y-63950500D01*
X120128845Y-63950499D01*
X120283497Y-63919737D01*
X120429179Y-63859394D01*
X120560289Y-63771789D01*
X120671789Y-63660289D01*
X120759394Y-63529179D01*
X120819737Y-63383497D01*
X120850500Y-63228842D01*
X120850500Y-63198477D01*
X120870185Y-63131438D01*
X120886814Y-63110801D01*
X122124319Y-61873295D01*
X122185642Y-61839811D01*
X122255334Y-61844795D01*
X122311267Y-61886667D01*
X122335684Y-61952131D01*
X122336000Y-61960977D01*
X122336000Y-64183752D01*
X122366290Y-64296796D01*
X122374435Y-64327195D01*
X122374436Y-64327198D01*
X122378679Y-64334547D01*
X122448687Y-64455804D01*
X122448689Y-64455806D01*
X122560761Y-64567878D01*
X122560767Y-64567883D01*
X122910017Y-64917133D01*
X122943502Y-64978456D01*
X122946336Y-65004814D01*
X122946336Y-65035182D01*
X122977097Y-65189825D01*
X122977100Y-65189837D01*
X123037438Y-65335508D01*
X123037445Y-65335521D01*
X123125046Y-65466624D01*
X123125049Y-65466628D01*
X123236543Y-65578122D01*
X123236547Y-65578125D01*
X123367650Y-65665726D01*
X123367663Y-65665733D01*
X123513334Y-65726071D01*
X123513339Y-65726073D01*
X123667989Y-65756835D01*
X123667992Y-65756836D01*
X123667994Y-65756836D01*
X123825680Y-65756836D01*
X123825681Y-65756835D01*
X123980333Y-65726073D01*
X124126015Y-65665730D01*
X124257125Y-65578125D01*
X124368625Y-65466625D01*
X124456230Y-65335515D01*
X124516573Y-65189833D01*
X124547336Y-65035178D01*
X124547336Y-64877494D01*
X124547336Y-64877491D01*
X124547335Y-64877489D01*
X124516574Y-64722846D01*
X124516573Y-64722839D01*
X124516571Y-64722834D01*
X124456233Y-64577163D01*
X124456226Y-64577150D01*
X124368625Y-64446047D01*
X124368622Y-64446043D01*
X124257125Y-64334546D01*
X124200627Y-64296796D01*
X124180257Y-64272422D01*
X124158622Y-64249174D01*
X124158015Y-64245808D01*
X124155822Y-64243184D01*
X124151864Y-64211673D01*
X124146231Y-64180412D01*
X124147375Y-64175932D01*
X124147115Y-64173859D01*
X124154963Y-64146227D01*
X124157327Y-64140521D01*
X124201180Y-64086128D01*
X124267479Y-64064078D01*
X124271878Y-64064000D01*
X126174251Y-64064000D01*
X126174253Y-64064000D01*
X126317696Y-64025565D01*
X126446304Y-63951313D01*
X126551313Y-63846304D01*
X126551313Y-63846302D01*
X126561517Y-63836099D01*
X126561521Y-63836094D01*
X129496180Y-60901434D01*
X129557501Y-60867951D01*
X129627193Y-60872935D01*
X129671540Y-60901436D01*
X129740213Y-60970109D01*
X129912179Y-61095048D01*
X129912181Y-61095049D01*
X129912184Y-61095051D01*
X130101588Y-61191557D01*
X130303757Y-61257246D01*
X130513713Y-61290500D01*
X130513714Y-61290500D01*
X130726286Y-61290500D01*
X130726287Y-61290500D01*
X130936243Y-61257246D01*
X131138412Y-61191557D01*
X131327816Y-61095051D01*
X131359114Y-61072312D01*
X131499786Y-60970109D01*
X131499788Y-60970106D01*
X131499792Y-60970104D01*
X131650104Y-60819792D01*
X131650106Y-60819788D01*
X131650109Y-60819786D01*
X131775048Y-60647820D01*
X131775047Y-60647820D01*
X131775051Y-60647816D01*
X131779514Y-60639054D01*
X131827488Y-60588259D01*
X131895308Y-60571463D01*
X131961444Y-60593999D01*
X132000486Y-60639056D01*
X132004951Y-60647820D01*
X132129890Y-60819786D01*
X132280213Y-60970109D01*
X132452179Y-61095048D01*
X132452181Y-61095049D01*
X132452184Y-61095051D01*
X132641588Y-61191557D01*
X132843757Y-61257246D01*
X133053713Y-61290500D01*
X133053714Y-61290500D01*
X133266286Y-61290500D01*
X133266287Y-61290500D01*
X133476243Y-61257246D01*
X133678412Y-61191557D01*
X133867816Y-61095051D01*
X133899114Y-61072312D01*
X134039786Y-60970109D01*
X134039788Y-60970106D01*
X134039792Y-60970104D01*
X134190104Y-60819792D01*
X134190106Y-60819788D01*
X134190109Y-60819786D01*
X134315048Y-60647820D01*
X134315047Y-60647820D01*
X134315051Y-60647816D01*
X134319514Y-60639054D01*
X134367488Y-60588259D01*
X134435308Y-60571463D01*
X134501444Y-60593999D01*
X134540486Y-60639056D01*
X134544951Y-60647820D01*
X134669890Y-60819786D01*
X134820213Y-60970109D01*
X134992179Y-61095048D01*
X134992181Y-61095049D01*
X134992184Y-61095051D01*
X135181588Y-61191557D01*
X135383757Y-61257246D01*
X135593713Y-61290500D01*
X135593714Y-61290500D01*
X135806286Y-61290500D01*
X135806287Y-61290500D01*
X136016243Y-61257246D01*
X136218412Y-61191557D01*
X136407816Y-61095051D01*
X136439114Y-61072312D01*
X136579786Y-60970109D01*
X136579788Y-60970106D01*
X136579792Y-60970104D01*
X136730104Y-60819792D01*
X136730106Y-60819788D01*
X136730109Y-60819786D01*
X136855048Y-60647820D01*
X136855047Y-60647820D01*
X136855051Y-60647816D01*
X136859514Y-60639054D01*
X136907488Y-60588259D01*
X136975308Y-60571463D01*
X137041444Y-60593999D01*
X137080486Y-60639056D01*
X137084951Y-60647820D01*
X137209890Y-60819786D01*
X137360213Y-60970109D01*
X137532179Y-61095048D01*
X137532181Y-61095049D01*
X137532184Y-61095051D01*
X137721588Y-61191557D01*
X137923757Y-61257246D01*
X138133713Y-61290500D01*
X138133714Y-61290500D01*
X138346286Y-61290500D01*
X138346287Y-61290500D01*
X138556243Y-61257246D01*
X138758412Y-61191557D01*
X138947816Y-61095051D01*
X138979114Y-61072312D01*
X139119786Y-60970109D01*
X139119788Y-60970106D01*
X139119792Y-60970104D01*
X139270104Y-60819792D01*
X139270106Y-60819788D01*
X139270109Y-60819786D01*
X139395048Y-60647820D01*
X139395047Y-60647820D01*
X139395051Y-60647816D01*
X139399514Y-60639054D01*
X139447488Y-60588259D01*
X139515308Y-60571463D01*
X139581444Y-60593999D01*
X139620486Y-60639056D01*
X139624951Y-60647820D01*
X139749890Y-60819786D01*
X139900213Y-60970109D01*
X140072179Y-61095048D01*
X140072181Y-61095049D01*
X140072184Y-61095051D01*
X140261588Y-61191557D01*
X140463757Y-61257246D01*
X140673713Y-61290500D01*
X140673714Y-61290500D01*
X140886286Y-61290500D01*
X140886287Y-61290500D01*
X141096243Y-61257246D01*
X141298412Y-61191557D01*
X141487816Y-61095051D01*
X141519114Y-61072312D01*
X141659786Y-60970109D01*
X141659788Y-60970106D01*
X141659792Y-60970104D01*
X141810104Y-60819792D01*
X141810106Y-60819788D01*
X141810109Y-60819786D01*
X141935048Y-60647820D01*
X141935047Y-60647820D01*
X141935051Y-60647816D01*
X141939514Y-60639054D01*
X141987488Y-60588259D01*
X142055308Y-60571463D01*
X142121444Y-60593999D01*
X142160486Y-60639056D01*
X142164951Y-60647820D01*
X142289890Y-60819786D01*
X142440213Y-60970109D01*
X142612179Y-61095048D01*
X142612181Y-61095049D01*
X142612184Y-61095051D01*
X142801588Y-61191557D01*
X143003757Y-61257246D01*
X143213713Y-61290500D01*
X143213714Y-61290500D01*
X143426286Y-61290500D01*
X143426287Y-61290500D01*
X143636243Y-61257246D01*
X143838412Y-61191557D01*
X144027816Y-61095051D01*
X144059114Y-61072312D01*
X144199786Y-60970109D01*
X144199788Y-60970106D01*
X144199792Y-60970104D01*
X144350104Y-60819792D01*
X144350106Y-60819788D01*
X144350109Y-60819786D01*
X144475048Y-60647820D01*
X144475047Y-60647820D01*
X144475051Y-60647816D01*
X144479514Y-60639054D01*
X144527488Y-60588259D01*
X144595308Y-60571463D01*
X144661444Y-60593999D01*
X144700486Y-60639056D01*
X144704951Y-60647820D01*
X144829890Y-60819786D01*
X144980213Y-60970109D01*
X145152179Y-61095048D01*
X145152181Y-61095049D01*
X145152184Y-61095051D01*
X145341588Y-61191557D01*
X145543757Y-61257246D01*
X145753713Y-61290500D01*
X145753714Y-61290500D01*
X145966286Y-61290500D01*
X145966287Y-61290500D01*
X146176243Y-61257246D01*
X146378412Y-61191557D01*
X146567816Y-61095051D01*
X146599114Y-61072312D01*
X146739786Y-60970109D01*
X146739788Y-60970106D01*
X146739792Y-60970104D01*
X146890104Y-60819792D01*
X146890106Y-60819788D01*
X146890109Y-60819786D01*
X147015048Y-60647820D01*
X147015047Y-60647820D01*
X147015051Y-60647816D01*
X147019514Y-60639054D01*
X147067488Y-60588259D01*
X147135308Y-60571463D01*
X147201444Y-60593999D01*
X147240486Y-60639056D01*
X147244951Y-60647820D01*
X147369890Y-60819786D01*
X147520213Y-60970109D01*
X147692179Y-61095048D01*
X147692181Y-61095049D01*
X147692184Y-61095051D01*
X147881588Y-61191557D01*
X148083757Y-61257246D01*
X148293713Y-61290500D01*
X148293714Y-61290500D01*
X148506286Y-61290500D01*
X148506287Y-61290500D01*
X148716243Y-61257246D01*
X148918412Y-61191557D01*
X149107816Y-61095051D01*
X149229168Y-61006884D01*
X149279784Y-60970110D01*
X149279784Y-60970109D01*
X149279792Y-60970104D01*
X149393329Y-60856566D01*
X149454648Y-60823084D01*
X149524340Y-60828068D01*
X149580274Y-60869939D01*
X149597189Y-60900917D01*
X149646202Y-61032328D01*
X149646206Y-61032335D01*
X149732452Y-61147544D01*
X149732455Y-61147547D01*
X149847664Y-61233793D01*
X149847671Y-61233797D01*
X149982517Y-61284091D01*
X149982516Y-61284091D01*
X149989444Y-61284835D01*
X150042127Y-61290500D01*
X151837872Y-61290499D01*
X151897483Y-61284091D01*
X152032331Y-61233796D01*
X152147546Y-61147546D01*
X152233796Y-61032331D01*
X152284091Y-60897483D01*
X152290500Y-60837873D01*
X152290499Y-59042128D01*
X152284555Y-58986834D01*
X152284091Y-58982516D01*
X152233797Y-58847671D01*
X152233793Y-58847664D01*
X152147547Y-58732455D01*
X152147544Y-58732452D01*
X152032335Y-58646206D01*
X152032328Y-58646202D01*
X151900917Y-58597189D01*
X151844983Y-58555318D01*
X151820566Y-58489853D01*
X151835418Y-58421580D01*
X151856563Y-58393332D01*
X151970104Y-58279792D01*
X152063229Y-58151614D01*
X152118558Y-58108949D01*
X152163547Y-58100500D01*
X153175500Y-58100500D01*
X153242539Y-58120185D01*
X153288294Y-58172989D01*
X153299500Y-58224500D01*
X153299500Y-58674684D01*
X153290061Y-58722136D01*
X153230264Y-58866498D01*
X153230261Y-58866510D01*
X153199500Y-59021153D01*
X153199500Y-59178846D01*
X153230261Y-59333489D01*
X153230264Y-59333501D01*
X153290602Y-59479172D01*
X153290609Y-59479185D01*
X153378210Y-59610288D01*
X153378213Y-59610292D01*
X153489707Y-59721786D01*
X153489711Y-59721789D01*
X153620814Y-59809390D01*
X153620827Y-59809397D01*
X153766498Y-59869735D01*
X153766503Y-59869737D01*
X153921153Y-59900499D01*
X153921156Y-59900500D01*
X153921158Y-59900500D01*
X154078844Y-59900500D01*
X154078845Y-59900499D01*
X154233497Y-59869737D01*
X154379179Y-59809394D01*
X154510289Y-59721789D01*
X154621789Y-59610289D01*
X154709394Y-59479179D01*
X154769737Y-59333497D01*
X154800500Y-59178842D01*
X154800500Y-59021158D01*
X154800500Y-59021155D01*
X154800499Y-59021153D01*
X154792814Y-58982517D01*
X154769737Y-58866503D01*
X154740031Y-58794785D01*
X154709939Y-58722136D01*
X154700500Y-58674684D01*
X154700500Y-57631004D01*
X154673581Y-57495677D01*
X154673580Y-57495676D01*
X154673580Y-57495672D01*
X154673578Y-57495667D01*
X154620776Y-57368191D01*
X154620775Y-57368189D01*
X154592417Y-57325748D01*
X154544114Y-57253457D01*
X154544112Y-57253454D01*
X154146545Y-56855887D01*
X154031807Y-56779222D01*
X153904332Y-56726421D01*
X153904322Y-56726418D01*
X153768996Y-56699500D01*
X153768994Y-56699500D01*
X153768993Y-56699500D01*
X153568993Y-56699500D01*
X152163547Y-56699500D01*
X152096508Y-56679815D01*
X152063230Y-56648385D01*
X152021682Y-56591200D01*
X151970107Y-56520211D01*
X151819786Y-56369890D01*
X151647820Y-56244951D01*
X151458414Y-56148444D01*
X151458413Y-56148443D01*
X151458412Y-56148443D01*
X151256243Y-56082754D01*
X151256241Y-56082753D01*
X151256240Y-56082753D01*
X151094957Y-56057208D01*
X151046287Y-56049500D01*
X150833713Y-56049500D01*
X150785042Y-56057208D01*
X150623760Y-56082753D01*
X150421585Y-56148444D01*
X150232179Y-56244951D01*
X150060213Y-56369890D01*
X149909890Y-56520213D01*
X149784949Y-56692182D01*
X149780484Y-56700946D01*
X149732509Y-56751742D01*
X149664688Y-56768536D01*
X149598553Y-56745998D01*
X149559516Y-56700946D01*
X149555050Y-56692182D01*
X149430109Y-56520213D01*
X149279786Y-56369890D01*
X149107820Y-56244951D01*
X148918414Y-56148444D01*
X148918413Y-56148443D01*
X148918412Y-56148443D01*
X148716243Y-56082754D01*
X148716241Y-56082753D01*
X148716240Y-56082753D01*
X148554957Y-56057208D01*
X148506287Y-56049500D01*
X148293713Y-56049500D01*
X148245042Y-56057208D01*
X148083760Y-56082753D01*
X147881585Y-56148444D01*
X147692179Y-56244951D01*
X147520213Y-56369890D01*
X147369890Y-56520213D01*
X147244949Y-56692182D01*
X147240202Y-56701499D01*
X147192227Y-56752293D01*
X147124405Y-56769087D01*
X147058271Y-56746548D01*
X147019234Y-56701495D01*
X147014626Y-56692452D01*
X146975270Y-56638282D01*
X146975269Y-56638282D01*
X146342962Y-57270590D01*
X146325925Y-57207007D01*
X146260099Y-57092993D01*
X146167007Y-56999901D01*
X146052993Y-56934075D01*
X145989409Y-56917037D01*
X146621716Y-56284728D01*
X146567550Y-56245375D01*
X146378217Y-56148904D01*
X146176129Y-56083242D01*
X145966246Y-56050000D01*
X145753754Y-56050000D01*
X145543872Y-56083242D01*
X145543869Y-56083242D01*
X145341782Y-56148904D01*
X145152439Y-56245380D01*
X145098282Y-56284727D01*
X145098282Y-56284728D01*
X145730591Y-56917037D01*
X145667007Y-56934075D01*
X145552993Y-56999901D01*
X145459901Y-57092993D01*
X145394075Y-57207007D01*
X145377037Y-57270591D01*
X144744728Y-56638282D01*
X144744727Y-56638282D01*
X144705380Y-56692440D01*
X144705376Y-56692446D01*
X144700760Y-56701505D01*
X144652781Y-56752297D01*
X144584959Y-56769087D01*
X144518826Y-56746543D01*
X144479794Y-56701493D01*
X144475051Y-56692184D01*
X144475049Y-56692181D01*
X144475048Y-56692179D01*
X144350109Y-56520213D01*
X144199786Y-56369890D01*
X144027820Y-56244951D01*
X143838414Y-56148444D01*
X143838413Y-56148443D01*
X143838412Y-56148443D01*
X143636243Y-56082754D01*
X143636241Y-56082753D01*
X143636240Y-56082753D01*
X143474957Y-56057208D01*
X143426287Y-56049500D01*
X143213713Y-56049500D01*
X143165042Y-56057208D01*
X143003760Y-56082753D01*
X142801585Y-56148444D01*
X142612179Y-56244951D01*
X142440213Y-56369890D01*
X142289890Y-56520213D01*
X142164949Y-56692182D01*
X142160484Y-56700946D01*
X142112509Y-56751742D01*
X142044688Y-56768536D01*
X141978553Y-56745998D01*
X141939516Y-56700946D01*
X141935050Y-56692182D01*
X141810109Y-56520213D01*
X141659786Y-56369890D01*
X141487820Y-56244951D01*
X141298414Y-56148444D01*
X141298413Y-56148443D01*
X141298412Y-56148443D01*
X141096243Y-56082754D01*
X141096241Y-56082753D01*
X141096240Y-56082753D01*
X140934957Y-56057208D01*
X140886287Y-56049500D01*
X140673713Y-56049500D01*
X140625042Y-56057208D01*
X140463760Y-56082753D01*
X140261585Y-56148444D01*
X140072179Y-56244951D01*
X139900213Y-56369890D01*
X139749890Y-56520213D01*
X139624949Y-56692182D01*
X139620484Y-56700946D01*
X139572509Y-56751742D01*
X139504688Y-56768536D01*
X139438553Y-56745998D01*
X139399516Y-56700946D01*
X139395050Y-56692182D01*
X139270109Y-56520213D01*
X139119786Y-56369890D01*
X138947820Y-56244951D01*
X138758414Y-56148444D01*
X138758413Y-56148443D01*
X138758412Y-56148443D01*
X138556243Y-56082754D01*
X138556241Y-56082753D01*
X138556240Y-56082753D01*
X138394957Y-56057208D01*
X138346287Y-56049500D01*
X138133713Y-56049500D01*
X138085042Y-56057208D01*
X137923760Y-56082753D01*
X137721585Y-56148444D01*
X137532179Y-56244951D01*
X137360213Y-56369890D01*
X137209890Y-56520213D01*
X137084949Y-56692182D01*
X137080484Y-56700946D01*
X137032509Y-56751742D01*
X136964688Y-56768536D01*
X136898553Y-56745998D01*
X136859516Y-56700946D01*
X136855050Y-56692182D01*
X136730109Y-56520213D01*
X136579786Y-56369890D01*
X136407820Y-56244951D01*
X136218414Y-56148444D01*
X136218413Y-56148443D01*
X136218412Y-56148443D01*
X136016243Y-56082754D01*
X136016241Y-56082753D01*
X136016240Y-56082753D01*
X135854957Y-56057208D01*
X135806287Y-56049500D01*
X135593713Y-56049500D01*
X135545042Y-56057208D01*
X135383760Y-56082753D01*
X135181585Y-56148444D01*
X134992179Y-56244951D01*
X134820213Y-56369890D01*
X134669890Y-56520213D01*
X134544949Y-56692182D01*
X134540484Y-56700946D01*
X134492509Y-56751742D01*
X134424688Y-56768536D01*
X134358553Y-56745998D01*
X134319516Y-56700946D01*
X134315050Y-56692182D01*
X134190109Y-56520213D01*
X134039786Y-56369890D01*
X133867820Y-56244951D01*
X133678414Y-56148444D01*
X133678413Y-56148443D01*
X133678412Y-56148443D01*
X133476243Y-56082754D01*
X133476241Y-56082753D01*
X133476240Y-56082753D01*
X133314957Y-56057208D01*
X133266287Y-56049500D01*
X133053713Y-56049500D01*
X133005042Y-56057208D01*
X132843760Y-56082753D01*
X132641585Y-56148444D01*
X132452179Y-56244951D01*
X132280213Y-56369890D01*
X132129890Y-56520213D01*
X132004949Y-56692182D01*
X132000484Y-56700946D01*
X131952509Y-56751742D01*
X131884688Y-56768536D01*
X131818553Y-56745998D01*
X131779516Y-56700946D01*
X131775050Y-56692182D01*
X131650109Y-56520213D01*
X131499786Y-56369890D01*
X131327820Y-56244951D01*
X131138414Y-56148444D01*
X131138413Y-56148443D01*
X131138412Y-56148443D01*
X130936243Y-56082754D01*
X130936241Y-56082753D01*
X130936240Y-56082753D01*
X130774957Y-56057208D01*
X130726287Y-56049500D01*
X130513713Y-56049500D01*
X130465042Y-56057208D01*
X130303760Y-56082753D01*
X130101585Y-56148444D01*
X129912179Y-56244951D01*
X129740213Y-56369890D01*
X129589890Y-56520213D01*
X129464949Y-56692182D01*
X129460484Y-56700946D01*
X129412509Y-56751742D01*
X129344688Y-56768536D01*
X129278553Y-56745998D01*
X129239516Y-56700946D01*
X129235050Y-56692182D01*
X129110109Y-56520213D01*
X128959786Y-56369890D01*
X128787820Y-56244951D01*
X128598414Y-56148444D01*
X128598413Y-56148443D01*
X128598412Y-56148443D01*
X128396243Y-56082754D01*
X128396241Y-56082753D01*
X128396240Y-56082753D01*
X128234957Y-56057208D01*
X128186287Y-56049500D01*
X127973713Y-56049500D01*
X127925042Y-56057208D01*
X127763760Y-56082753D01*
X127561585Y-56148444D01*
X127372179Y-56244951D01*
X127200213Y-56369890D01*
X127049890Y-56520213D01*
X126924949Y-56692182D01*
X126920484Y-56700946D01*
X126872509Y-56751742D01*
X126804688Y-56768536D01*
X126738553Y-56745998D01*
X126699516Y-56700946D01*
X126695050Y-56692182D01*
X126570109Y-56520213D01*
X126419786Y-56369890D01*
X126247820Y-56244951D01*
X126058414Y-56148444D01*
X126058413Y-56148443D01*
X126058412Y-56148443D01*
X125856243Y-56082754D01*
X125856241Y-56082753D01*
X125856240Y-56082753D01*
X125694957Y-56057208D01*
X125646287Y-56049500D01*
X125433713Y-56049500D01*
X125385042Y-56057208D01*
X125223760Y-56082753D01*
X125021585Y-56148444D01*
X124832179Y-56244951D01*
X124660213Y-56369890D01*
X124509890Y-56520213D01*
X124384949Y-56692182D01*
X124380484Y-56700946D01*
X124332509Y-56751742D01*
X124264688Y-56768536D01*
X124198553Y-56745998D01*
X124159516Y-56700946D01*
X124155050Y-56692182D01*
X124030109Y-56520213D01*
X123879786Y-56369890D01*
X123707820Y-56244951D01*
X123518414Y-56148444D01*
X123518413Y-56148443D01*
X123518412Y-56148443D01*
X123316243Y-56082754D01*
X123316241Y-56082753D01*
X123316240Y-56082753D01*
X123154957Y-56057208D01*
X123106287Y-56049500D01*
X122893713Y-56049500D01*
X122845042Y-56057208D01*
X122683760Y-56082753D01*
X122481585Y-56148444D01*
X122292179Y-56244951D01*
X122120213Y-56369890D01*
X121969890Y-56520213D01*
X121844949Y-56692182D01*
X121840484Y-56700946D01*
X121792509Y-56751742D01*
X121724688Y-56768536D01*
X121658553Y-56745998D01*
X121619516Y-56700946D01*
X121615050Y-56692182D01*
X121490109Y-56520213D01*
X121339786Y-56369890D01*
X121167820Y-56244951D01*
X120978414Y-56148444D01*
X120978413Y-56148443D01*
X120978412Y-56148443D01*
X120776243Y-56082754D01*
X120776241Y-56082753D01*
X120776240Y-56082753D01*
X120614957Y-56057208D01*
X120566287Y-56049500D01*
X120353713Y-56049500D01*
X120305042Y-56057208D01*
X120143760Y-56082753D01*
X119941585Y-56148444D01*
X119752179Y-56244951D01*
X119580213Y-56369890D01*
X119429890Y-56520213D01*
X119304951Y-56692179D01*
X119208444Y-56881585D01*
X119142753Y-57083760D01*
X119124468Y-57199207D01*
X119109500Y-57293713D01*
X110000500Y-57293713D01*
X110000500Y-55754071D01*
X212860000Y-55754071D01*
X212860000Y-56005928D01*
X212899397Y-56254669D01*
X212977219Y-56494184D01*
X213091557Y-56718583D01*
X213165748Y-56820697D01*
X213165748Y-56820698D01*
X213782421Y-56204024D01*
X213795359Y-56235258D01*
X213877437Y-56358097D01*
X213981903Y-56462563D01*
X214104742Y-56544641D01*
X214135974Y-56557577D01*
X213519300Y-57174250D01*
X213621416Y-57248442D01*
X213845815Y-57362780D01*
X214085330Y-57440602D01*
X214334072Y-57480000D01*
X214585928Y-57480000D01*
X214834669Y-57440602D01*
X215074184Y-57362780D01*
X215298575Y-57248446D01*
X215298581Y-57248442D01*
X215400697Y-57174250D01*
X215400698Y-57174250D01*
X214784025Y-56557578D01*
X214815258Y-56544641D01*
X214938097Y-56462563D01*
X215042563Y-56358097D01*
X215124641Y-56235258D01*
X215137577Y-56204025D01*
X215754250Y-56820698D01*
X215754250Y-56820697D01*
X215828442Y-56718581D01*
X215828446Y-56718575D01*
X215942780Y-56494184D01*
X216020602Y-56254669D01*
X216060000Y-56005928D01*
X216060000Y-55754071D01*
X216020602Y-55505330D01*
X215942780Y-55265815D01*
X215828442Y-55041416D01*
X215754250Y-54939301D01*
X215754250Y-54939300D01*
X215137577Y-55555973D01*
X215124641Y-55524742D01*
X215042563Y-55401903D01*
X214938097Y-55297437D01*
X214815258Y-55215359D01*
X214784024Y-55202421D01*
X215400698Y-54585748D01*
X215298583Y-54511557D01*
X215074184Y-54397219D01*
X214834669Y-54319397D01*
X214585928Y-54280000D01*
X214334072Y-54280000D01*
X214085330Y-54319397D01*
X213845815Y-54397219D01*
X213621413Y-54511559D01*
X213519301Y-54585747D01*
X213519300Y-54585748D01*
X214135974Y-55202421D01*
X214104742Y-55215359D01*
X213981903Y-55297437D01*
X213877437Y-55401903D01*
X213795359Y-55524742D01*
X213782421Y-55555974D01*
X213165748Y-54939300D01*
X213165747Y-54939301D01*
X213091559Y-55041413D01*
X212977219Y-55265815D01*
X212899397Y-55505330D01*
X212860000Y-55754071D01*
X110000500Y-55754071D01*
X110000500Y-49002214D01*
X110000579Y-48997788D01*
X110004832Y-48878711D01*
X115149500Y-48878711D01*
X115149500Y-49121288D01*
X115181161Y-49361785D01*
X115243947Y-49596104D01*
X115336773Y-49820205D01*
X115336776Y-49820212D01*
X115458064Y-50030289D01*
X115458066Y-50030292D01*
X115458067Y-50030293D01*
X115605733Y-50222736D01*
X115605739Y-50222743D01*
X115777256Y-50394260D01*
X115777262Y-50394265D01*
X115969711Y-50541936D01*
X116179788Y-50663224D01*
X116403900Y-50756054D01*
X116638211Y-50818838D01*
X116818586Y-50842584D01*
X116878711Y-50850500D01*
X116878712Y-50850500D01*
X117121289Y-50850500D01*
X117169388Y-50844167D01*
X117361789Y-50818838D01*
X117596100Y-50756054D01*
X117820212Y-50663224D01*
X118030289Y-50541936D01*
X118222738Y-50394265D01*
X118394265Y-50222738D01*
X118541936Y-50030289D01*
X118663224Y-49820212D01*
X118756054Y-49596100D01*
X118818838Y-49361789D01*
X118850500Y-49121288D01*
X118850500Y-48878712D01*
X118850500Y-48878711D01*
X216649500Y-48878711D01*
X216649500Y-49121288D01*
X216681161Y-49361785D01*
X216743947Y-49596104D01*
X216836773Y-49820205D01*
X216836776Y-49820212D01*
X216958064Y-50030289D01*
X216958066Y-50030292D01*
X216958067Y-50030293D01*
X217105733Y-50222736D01*
X217105739Y-50222743D01*
X217277256Y-50394260D01*
X217277262Y-50394265D01*
X217469711Y-50541936D01*
X217679788Y-50663224D01*
X217903900Y-50756054D01*
X218138211Y-50818838D01*
X218318586Y-50842584D01*
X218378711Y-50850500D01*
X218378712Y-50850500D01*
X218621289Y-50850500D01*
X218669388Y-50844167D01*
X218861789Y-50818838D01*
X219096100Y-50756054D01*
X219320212Y-50663224D01*
X219530289Y-50541936D01*
X219722738Y-50394265D01*
X219894265Y-50222738D01*
X220041936Y-50030289D01*
X220163224Y-49820212D01*
X220256054Y-49596100D01*
X220318838Y-49361789D01*
X220350500Y-49121288D01*
X220350500Y-48878712D01*
X220318838Y-48638211D01*
X220256054Y-48403900D01*
X220163224Y-48179788D01*
X220041936Y-47969711D01*
X219894265Y-47777262D01*
X219894260Y-47777256D01*
X219722743Y-47605739D01*
X219722736Y-47605733D01*
X219530293Y-47458067D01*
X219530292Y-47458066D01*
X219530289Y-47458064D01*
X219320212Y-47336776D01*
X219320205Y-47336773D01*
X219096104Y-47243947D01*
X218861785Y-47181161D01*
X218621289Y-47149500D01*
X218621288Y-47149500D01*
X218378712Y-47149500D01*
X218378711Y-47149500D01*
X218138214Y-47181161D01*
X217903895Y-47243947D01*
X217679794Y-47336773D01*
X217679785Y-47336777D01*
X217469706Y-47458067D01*
X217277263Y-47605733D01*
X217277256Y-47605739D01*
X217105739Y-47777256D01*
X217105733Y-47777263D01*
X216958067Y-47969706D01*
X216836777Y-48179785D01*
X216836773Y-48179794D01*
X216743947Y-48403895D01*
X216681161Y-48638214D01*
X216649500Y-48878711D01*
X118850500Y-48878711D01*
X118818838Y-48638211D01*
X118756054Y-48403900D01*
X118663224Y-48179788D01*
X118541936Y-47969711D01*
X118394265Y-47777262D01*
X118394260Y-47777256D01*
X118222743Y-47605739D01*
X118222736Y-47605733D01*
X118030293Y-47458067D01*
X118030292Y-47458066D01*
X118030289Y-47458064D01*
X117820212Y-47336776D01*
X117820205Y-47336773D01*
X117596104Y-47243947D01*
X117361785Y-47181161D01*
X117121289Y-47149500D01*
X117121288Y-47149500D01*
X116878712Y-47149500D01*
X116878711Y-47149500D01*
X116638214Y-47181161D01*
X116403895Y-47243947D01*
X116179794Y-47336773D01*
X116179785Y-47336777D01*
X115969706Y-47458067D01*
X115777263Y-47605733D01*
X115777256Y-47605739D01*
X115605739Y-47777256D01*
X115605733Y-47777263D01*
X115458067Y-47969706D01*
X115336777Y-48179785D01*
X115336773Y-48179794D01*
X115243947Y-48403895D01*
X115181161Y-48638214D01*
X115149500Y-48878711D01*
X110004832Y-48878711D01*
X110005135Y-48870227D01*
X110013421Y-48638211D01*
X110018176Y-48505073D01*
X110018807Y-48496264D01*
X110071273Y-48008265D01*
X110072532Y-47999504D01*
X110077908Y-47969706D01*
X110159676Y-47516490D01*
X110161556Y-47507853D01*
X110282938Y-47032286D01*
X110285423Y-47023822D01*
X110440423Y-46558121D01*
X110443512Y-46549839D01*
X110631335Y-46096397D01*
X110635012Y-46088346D01*
X110691837Y-45974822D01*
X110854714Y-45649436D01*
X110858931Y-45641712D01*
X111109401Y-45219566D01*
X111114155Y-45212169D01*
X111394095Y-44808978D01*
X111399371Y-44801931D01*
X111707370Y-44419727D01*
X111713130Y-44413080D01*
X112047595Y-44053839D01*
X112053839Y-44047595D01*
X112413080Y-43713130D01*
X112419727Y-43707370D01*
X112801931Y-43399371D01*
X112808978Y-43394095D01*
X113212169Y-43114155D01*
X113219566Y-43109401D01*
X113641712Y-42858931D01*
X113649436Y-42854714D01*
X113974822Y-42691837D01*
X114088346Y-42635012D01*
X114096397Y-42631335D01*
X114120281Y-42621442D01*
X114549850Y-42443507D01*
X114558121Y-42440423D01*
X115023822Y-42285423D01*
X115032286Y-42282938D01*
X115507866Y-42161553D01*
X115516490Y-42159676D01*
X115999508Y-42072531D01*
X116008265Y-42071273D01*
X116496264Y-42018807D01*
X116505073Y-42018176D01*
X116997788Y-42000578D01*
X117002214Y-42000500D01*
X117065892Y-42000500D01*
X218434108Y-42000500D01*
X218497786Y-42000500D01*
X218502211Y-42000578D01*
G37*
G04 #@! TD.AperFunction*
M02*
