G04 #@! TF.GenerationSoftware,KiCad,Pcbnew,10.0.1*
G04 #@! TF.CreationDate,2026-06-05T01:59:55+08:00*
G04 #@! TF.ProjectId,Spotify Car Thing,53706f74-6966-4792-9043-617220546869,rev?*
G04 #@! TF.SameCoordinates,Original*
G04 #@! TF.FileFunction,Legend,Bot*
G04 #@! TF.FilePolarity,Positive*
%FSLAX46Y46*%
G04 Gerber Fmt 4.6, Leading zero omitted, Abs format (unit mm)*
G04 Created by KiCad (PCBNEW 10.0.1) date 2026-06-05 01:59:55*
%MOMM*%
%LPD*%
G01*
G04 APERTURE LIST*
%ADD10C,0.100000*%
%ADD11C,0.200000*%
%ADD12C,0.150000*%
%ADD13C,0.120000*%
%ADD14C,0.127000*%
G04 APERTURE END LIST*
D10*
X143066668Y-116172419D02*
X143066668Y-115172419D01*
X143066668Y-115172419D02*
X142828573Y-115172419D01*
X142828573Y-115172419D02*
X142685716Y-115220038D01*
X142685716Y-115220038D02*
X142590478Y-115315276D01*
X142590478Y-115315276D02*
X142542859Y-115410514D01*
X142542859Y-115410514D02*
X142495240Y-115600990D01*
X142495240Y-115600990D02*
X142495240Y-115743847D01*
X142495240Y-115743847D02*
X142542859Y-115934323D01*
X142542859Y-115934323D02*
X142590478Y-116029561D01*
X142590478Y-116029561D02*
X142685716Y-116124800D01*
X142685716Y-116124800D02*
X142828573Y-116172419D01*
X142828573Y-116172419D02*
X143066668Y-116172419D01*
X141685716Y-116124800D02*
X141780954Y-116172419D01*
X141780954Y-116172419D02*
X141971430Y-116172419D01*
X141971430Y-116172419D02*
X142066668Y-116124800D01*
X142066668Y-116124800D02*
X142114287Y-116029561D01*
X142114287Y-116029561D02*
X142114287Y-115648609D01*
X142114287Y-115648609D02*
X142066668Y-115553371D01*
X142066668Y-115553371D02*
X141971430Y-115505752D01*
X141971430Y-115505752D02*
X141780954Y-115505752D01*
X141780954Y-115505752D02*
X141685716Y-115553371D01*
X141685716Y-115553371D02*
X141638097Y-115648609D01*
X141638097Y-115648609D02*
X141638097Y-115743847D01*
X141638097Y-115743847D02*
X142114287Y-115839085D01*
X141257144Y-116124800D02*
X141161906Y-116172419D01*
X141161906Y-116172419D02*
X140971430Y-116172419D01*
X140971430Y-116172419D02*
X140876192Y-116124800D01*
X140876192Y-116124800D02*
X140828573Y-116029561D01*
X140828573Y-116029561D02*
X140828573Y-115981942D01*
X140828573Y-115981942D02*
X140876192Y-115886704D01*
X140876192Y-115886704D02*
X140971430Y-115839085D01*
X140971430Y-115839085D02*
X141114287Y-115839085D01*
X141114287Y-115839085D02*
X141209525Y-115791466D01*
X141209525Y-115791466D02*
X141257144Y-115696228D01*
X141257144Y-115696228D02*
X141257144Y-115648609D01*
X141257144Y-115648609D02*
X141209525Y-115553371D01*
X141209525Y-115553371D02*
X141114287Y-115505752D01*
X141114287Y-115505752D02*
X140971430Y-115505752D01*
X140971430Y-115505752D02*
X140876192Y-115553371D01*
X139971430Y-115505752D02*
X139971430Y-116315276D01*
X139971430Y-116315276D02*
X140019049Y-116410514D01*
X140019049Y-116410514D02*
X140066668Y-116458133D01*
X140066668Y-116458133D02*
X140161906Y-116505752D01*
X140161906Y-116505752D02*
X140304763Y-116505752D01*
X140304763Y-116505752D02*
X140400001Y-116458133D01*
X139971430Y-116124800D02*
X140066668Y-116172419D01*
X140066668Y-116172419D02*
X140257144Y-116172419D01*
X140257144Y-116172419D02*
X140352382Y-116124800D01*
X140352382Y-116124800D02*
X140400001Y-116077180D01*
X140400001Y-116077180D02*
X140447620Y-115981942D01*
X140447620Y-115981942D02*
X140447620Y-115696228D01*
X140447620Y-115696228D02*
X140400001Y-115600990D01*
X140400001Y-115600990D02*
X140352382Y-115553371D01*
X140352382Y-115553371D02*
X140257144Y-115505752D01*
X140257144Y-115505752D02*
X140066668Y-115505752D01*
X140066668Y-115505752D02*
X139971430Y-115553371D01*
X139495239Y-116172419D02*
X139495239Y-115505752D01*
X139495239Y-115172419D02*
X139542858Y-115220038D01*
X139542858Y-115220038D02*
X139495239Y-115267657D01*
X139495239Y-115267657D02*
X139447620Y-115220038D01*
X139447620Y-115220038D02*
X139495239Y-115172419D01*
X139495239Y-115172419D02*
X139495239Y-115267657D01*
X139019049Y-115505752D02*
X139019049Y-116172419D01*
X139019049Y-115600990D02*
X138971430Y-115553371D01*
X138971430Y-115553371D02*
X138876192Y-115505752D01*
X138876192Y-115505752D02*
X138733335Y-115505752D01*
X138733335Y-115505752D02*
X138638097Y-115553371D01*
X138638097Y-115553371D02*
X138590478Y-115648609D01*
X138590478Y-115648609D02*
X138590478Y-116172419D01*
X137733335Y-116124800D02*
X137828573Y-116172419D01*
X137828573Y-116172419D02*
X138019049Y-116172419D01*
X138019049Y-116172419D02*
X138114287Y-116124800D01*
X138114287Y-116124800D02*
X138161906Y-116029561D01*
X138161906Y-116029561D02*
X138161906Y-115648609D01*
X138161906Y-115648609D02*
X138114287Y-115553371D01*
X138114287Y-115553371D02*
X138019049Y-115505752D01*
X138019049Y-115505752D02*
X137828573Y-115505752D01*
X137828573Y-115505752D02*
X137733335Y-115553371D01*
X137733335Y-115553371D02*
X137685716Y-115648609D01*
X137685716Y-115648609D02*
X137685716Y-115743847D01*
X137685716Y-115743847D02*
X138161906Y-115839085D01*
X136828573Y-116172419D02*
X136828573Y-115172419D01*
X136828573Y-116124800D02*
X136923811Y-116172419D01*
X136923811Y-116172419D02*
X137114287Y-116172419D01*
X137114287Y-116172419D02*
X137209525Y-116124800D01*
X137209525Y-116124800D02*
X137257144Y-116077180D01*
X137257144Y-116077180D02*
X137304763Y-115981942D01*
X137304763Y-115981942D02*
X137304763Y-115696228D01*
X137304763Y-115696228D02*
X137257144Y-115600990D01*
X137257144Y-115600990D02*
X137209525Y-115553371D01*
X137209525Y-115553371D02*
X137114287Y-115505752D01*
X137114287Y-115505752D02*
X136923811Y-115505752D01*
X136923811Y-115505752D02*
X136828573Y-115553371D01*
X135733334Y-115505752D02*
X135352382Y-115505752D01*
X135590477Y-116172419D02*
X135590477Y-115315276D01*
X135590477Y-115315276D02*
X135542858Y-115220038D01*
X135542858Y-115220038D02*
X135447620Y-115172419D01*
X135447620Y-115172419D02*
X135352382Y-115172419D01*
X134876191Y-116172419D02*
X134971429Y-116124800D01*
X134971429Y-116124800D02*
X135019048Y-116077180D01*
X135019048Y-116077180D02*
X135066667Y-115981942D01*
X135066667Y-115981942D02*
X135066667Y-115696228D01*
X135066667Y-115696228D02*
X135019048Y-115600990D01*
X135019048Y-115600990D02*
X134971429Y-115553371D01*
X134971429Y-115553371D02*
X134876191Y-115505752D01*
X134876191Y-115505752D02*
X134733334Y-115505752D01*
X134733334Y-115505752D02*
X134638096Y-115553371D01*
X134638096Y-115553371D02*
X134590477Y-115600990D01*
X134590477Y-115600990D02*
X134542858Y-115696228D01*
X134542858Y-115696228D02*
X134542858Y-115981942D01*
X134542858Y-115981942D02*
X134590477Y-116077180D01*
X134590477Y-116077180D02*
X134638096Y-116124800D01*
X134638096Y-116124800D02*
X134733334Y-116172419D01*
X134733334Y-116172419D02*
X134876191Y-116172419D01*
X134114286Y-116172419D02*
X134114286Y-115505752D01*
X134114286Y-115696228D02*
X134066667Y-115600990D01*
X134066667Y-115600990D02*
X134019048Y-115553371D01*
X134019048Y-115553371D02*
X133923810Y-115505752D01*
X133923810Y-115505752D02*
X133828572Y-115505752D01*
X132876190Y-115505752D02*
X132495238Y-115505752D01*
X132733333Y-116172419D02*
X132733333Y-115315276D01*
X132733333Y-115315276D02*
X132685714Y-115220038D01*
X132685714Y-115220038D02*
X132590476Y-115172419D01*
X132590476Y-115172419D02*
X132495238Y-115172419D01*
X131733333Y-116172419D02*
X131733333Y-115648609D01*
X131733333Y-115648609D02*
X131780952Y-115553371D01*
X131780952Y-115553371D02*
X131876190Y-115505752D01*
X131876190Y-115505752D02*
X132066666Y-115505752D01*
X132066666Y-115505752D02*
X132161904Y-115553371D01*
X131733333Y-116124800D02*
X131828571Y-116172419D01*
X131828571Y-116172419D02*
X132066666Y-116172419D01*
X132066666Y-116172419D02*
X132161904Y-116124800D01*
X132161904Y-116124800D02*
X132209523Y-116029561D01*
X132209523Y-116029561D02*
X132209523Y-115934323D01*
X132209523Y-115934323D02*
X132161904Y-115839085D01*
X132161904Y-115839085D02*
X132066666Y-115791466D01*
X132066666Y-115791466D02*
X131828571Y-115791466D01*
X131828571Y-115791466D02*
X131733333Y-115743847D01*
X131114285Y-116172419D02*
X131209523Y-116124800D01*
X131209523Y-116124800D02*
X131257142Y-116029561D01*
X131257142Y-116029561D02*
X131257142Y-115172419D01*
X130590475Y-116172419D02*
X130685713Y-116124800D01*
X130685713Y-116124800D02*
X130733332Y-116029561D01*
X130733332Y-116029561D02*
X130733332Y-115172419D01*
X130066665Y-116172419D02*
X130161903Y-116124800D01*
X130161903Y-116124800D02*
X130209522Y-116077180D01*
X130209522Y-116077180D02*
X130257141Y-115981942D01*
X130257141Y-115981942D02*
X130257141Y-115696228D01*
X130257141Y-115696228D02*
X130209522Y-115600990D01*
X130209522Y-115600990D02*
X130161903Y-115553371D01*
X130161903Y-115553371D02*
X130066665Y-115505752D01*
X130066665Y-115505752D02*
X129923808Y-115505752D01*
X129923808Y-115505752D02*
X129828570Y-115553371D01*
X129828570Y-115553371D02*
X129780951Y-115600990D01*
X129780951Y-115600990D02*
X129733332Y-115696228D01*
X129733332Y-115696228D02*
X129733332Y-115981942D01*
X129733332Y-115981942D02*
X129780951Y-116077180D01*
X129780951Y-116077180D02*
X129828570Y-116124800D01*
X129828570Y-116124800D02*
X129923808Y-116172419D01*
X129923808Y-116172419D02*
X130066665Y-116172419D01*
X128876189Y-115505752D02*
X128876189Y-116172419D01*
X129304760Y-115505752D02*
X129304760Y-116029561D01*
X129304760Y-116029561D02*
X129257141Y-116124800D01*
X129257141Y-116124800D02*
X129161903Y-116172419D01*
X129161903Y-116172419D02*
X129019046Y-116172419D01*
X129019046Y-116172419D02*
X128923808Y-116124800D01*
X128923808Y-116124800D02*
X128876189Y-116077180D01*
X128542855Y-115505752D02*
X128161903Y-115505752D01*
X128399998Y-115172419D02*
X128399998Y-116029561D01*
X128399998Y-116029561D02*
X128352379Y-116124800D01*
X128352379Y-116124800D02*
X128257141Y-116172419D01*
X128257141Y-116172419D02*
X128161903Y-116172419D01*
X127114283Y-115267657D02*
X127066664Y-115220038D01*
X127066664Y-115220038D02*
X126971426Y-115172419D01*
X126971426Y-115172419D02*
X126733331Y-115172419D01*
X126733331Y-115172419D02*
X126638093Y-115220038D01*
X126638093Y-115220038D02*
X126590474Y-115267657D01*
X126590474Y-115267657D02*
X126542855Y-115362895D01*
X126542855Y-115362895D02*
X126542855Y-115458133D01*
X126542855Y-115458133D02*
X126590474Y-115600990D01*
X126590474Y-115600990D02*
X127161902Y-116172419D01*
X127161902Y-116172419D02*
X126542855Y-116172419D01*
X125923807Y-115172419D02*
X125828569Y-115172419D01*
X125828569Y-115172419D02*
X125733331Y-115220038D01*
X125733331Y-115220038D02*
X125685712Y-115267657D01*
X125685712Y-115267657D02*
X125638093Y-115362895D01*
X125638093Y-115362895D02*
X125590474Y-115553371D01*
X125590474Y-115553371D02*
X125590474Y-115791466D01*
X125590474Y-115791466D02*
X125638093Y-115981942D01*
X125638093Y-115981942D02*
X125685712Y-116077180D01*
X125685712Y-116077180D02*
X125733331Y-116124800D01*
X125733331Y-116124800D02*
X125828569Y-116172419D01*
X125828569Y-116172419D02*
X125923807Y-116172419D01*
X125923807Y-116172419D02*
X126019045Y-116124800D01*
X126019045Y-116124800D02*
X126066664Y-116077180D01*
X126066664Y-116077180D02*
X126114283Y-115981942D01*
X126114283Y-115981942D02*
X126161902Y-115791466D01*
X126161902Y-115791466D02*
X126161902Y-115553371D01*
X126161902Y-115553371D02*
X126114283Y-115362895D01*
X126114283Y-115362895D02*
X126066664Y-115267657D01*
X126066664Y-115267657D02*
X126019045Y-115220038D01*
X126019045Y-115220038D02*
X125923807Y-115172419D01*
X125209521Y-115267657D02*
X125161902Y-115220038D01*
X125161902Y-115220038D02*
X125066664Y-115172419D01*
X125066664Y-115172419D02*
X124828569Y-115172419D01*
X124828569Y-115172419D02*
X124733331Y-115220038D01*
X124733331Y-115220038D02*
X124685712Y-115267657D01*
X124685712Y-115267657D02*
X124638093Y-115362895D01*
X124638093Y-115362895D02*
X124638093Y-115458133D01*
X124638093Y-115458133D02*
X124685712Y-115600990D01*
X124685712Y-115600990D02*
X125257140Y-116172419D01*
X125257140Y-116172419D02*
X124638093Y-116172419D01*
X123780950Y-115172419D02*
X123971426Y-115172419D01*
X123971426Y-115172419D02*
X124066664Y-115220038D01*
X124066664Y-115220038D02*
X124114283Y-115267657D01*
X124114283Y-115267657D02*
X124209521Y-115410514D01*
X124209521Y-115410514D02*
X124257140Y-115600990D01*
X124257140Y-115600990D02*
X124257140Y-115981942D01*
X124257140Y-115981942D02*
X124209521Y-116077180D01*
X124209521Y-116077180D02*
X124161902Y-116124800D01*
X124161902Y-116124800D02*
X124066664Y-116172419D01*
X124066664Y-116172419D02*
X123876188Y-116172419D01*
X123876188Y-116172419D02*
X123780950Y-116124800D01*
X123780950Y-116124800D02*
X123733331Y-116077180D01*
X123733331Y-116077180D02*
X123685712Y-115981942D01*
X123685712Y-115981942D02*
X123685712Y-115743847D01*
X123685712Y-115743847D02*
X123733331Y-115648609D01*
X123733331Y-115648609D02*
X123780950Y-115600990D01*
X123780950Y-115600990D02*
X123876188Y-115553371D01*
X123876188Y-115553371D02*
X124066664Y-115553371D01*
X124066664Y-115553371D02*
X124161902Y-115600990D01*
X124161902Y-115600990D02*
X124209521Y-115648609D01*
X124209521Y-115648609D02*
X124257140Y-115743847D01*
D11*
X142585714Y-117933465D02*
X142442857Y-117981084D01*
X142442857Y-117981084D02*
X142395238Y-118028703D01*
X142395238Y-118028703D02*
X142347619Y-118123941D01*
X142347619Y-118123941D02*
X142347619Y-118266798D01*
X142347619Y-118266798D02*
X142395238Y-118362036D01*
X142395238Y-118362036D02*
X142442857Y-118409656D01*
X142442857Y-118409656D02*
X142538095Y-118457275D01*
X142538095Y-118457275D02*
X142919047Y-118457275D01*
X142919047Y-118457275D02*
X142919047Y-117457275D01*
X142919047Y-117457275D02*
X142585714Y-117457275D01*
X142585714Y-117457275D02*
X142490476Y-117504894D01*
X142490476Y-117504894D02*
X142442857Y-117552513D01*
X142442857Y-117552513D02*
X142395238Y-117647751D01*
X142395238Y-117647751D02*
X142395238Y-117742989D01*
X142395238Y-117742989D02*
X142442857Y-117838227D01*
X142442857Y-117838227D02*
X142490476Y-117885846D01*
X142490476Y-117885846D02*
X142585714Y-117933465D01*
X142585714Y-117933465D02*
X142919047Y-117933465D01*
X142014285Y-117790608D02*
X141776190Y-118457275D01*
X141538095Y-117790608D02*
X141776190Y-118457275D01*
X141776190Y-118457275D02*
X141871428Y-118695370D01*
X141871428Y-118695370D02*
X141919047Y-118742989D01*
X141919047Y-118742989D02*
X142014285Y-118790608D01*
X140395237Y-117933465D02*
X140061904Y-117933465D01*
X139919047Y-118457275D02*
X140395237Y-118457275D01*
X140395237Y-118457275D02*
X140395237Y-117457275D01*
X140395237Y-117457275D02*
X139919047Y-117457275D01*
X139061904Y-118457275D02*
X139061904Y-117933465D01*
X139061904Y-117933465D02*
X139109523Y-117838227D01*
X139109523Y-117838227D02*
X139204761Y-117790608D01*
X139204761Y-117790608D02*
X139395237Y-117790608D01*
X139395237Y-117790608D02*
X139490475Y-117838227D01*
X139061904Y-118409656D02*
X139157142Y-118457275D01*
X139157142Y-118457275D02*
X139395237Y-118457275D01*
X139395237Y-118457275D02*
X139490475Y-118409656D01*
X139490475Y-118409656D02*
X139538094Y-118314417D01*
X139538094Y-118314417D02*
X139538094Y-118219179D01*
X139538094Y-118219179D02*
X139490475Y-118123941D01*
X139490475Y-118123941D02*
X139395237Y-118076322D01*
X139395237Y-118076322D02*
X139157142Y-118076322D01*
X139157142Y-118076322D02*
X139061904Y-118028703D01*
X138585713Y-117790608D02*
X138585713Y-118457275D01*
X138585713Y-117885846D02*
X138538094Y-117838227D01*
X138538094Y-117838227D02*
X138442856Y-117790608D01*
X138442856Y-117790608D02*
X138299999Y-117790608D01*
X138299999Y-117790608D02*
X138204761Y-117838227D01*
X138204761Y-117838227D02*
X138157142Y-117933465D01*
X138157142Y-117933465D02*
X138157142Y-118457275D01*
X136347618Y-118362036D02*
X136395237Y-118409656D01*
X136395237Y-118409656D02*
X136538094Y-118457275D01*
X136538094Y-118457275D02*
X136633332Y-118457275D01*
X136633332Y-118457275D02*
X136776189Y-118409656D01*
X136776189Y-118409656D02*
X136871427Y-118314417D01*
X136871427Y-118314417D02*
X136919046Y-118219179D01*
X136919046Y-118219179D02*
X136966665Y-118028703D01*
X136966665Y-118028703D02*
X136966665Y-117885846D01*
X136966665Y-117885846D02*
X136919046Y-117695370D01*
X136919046Y-117695370D02*
X136871427Y-117600132D01*
X136871427Y-117600132D02*
X136776189Y-117504894D01*
X136776189Y-117504894D02*
X136633332Y-117457275D01*
X136633332Y-117457275D02*
X136538094Y-117457275D01*
X136538094Y-117457275D02*
X136395237Y-117504894D01*
X136395237Y-117504894D02*
X136347618Y-117552513D01*
X135919046Y-118457275D02*
X135919046Y-117457275D01*
X135490475Y-118457275D02*
X135490475Y-117933465D01*
X135490475Y-117933465D02*
X135538094Y-117838227D01*
X135538094Y-117838227D02*
X135633332Y-117790608D01*
X135633332Y-117790608D02*
X135776189Y-117790608D01*
X135776189Y-117790608D02*
X135871427Y-117838227D01*
X135871427Y-117838227D02*
X135919046Y-117885846D01*
X134585713Y-118457275D02*
X134585713Y-117933465D01*
X134585713Y-117933465D02*
X134633332Y-117838227D01*
X134633332Y-117838227D02*
X134728570Y-117790608D01*
X134728570Y-117790608D02*
X134919046Y-117790608D01*
X134919046Y-117790608D02*
X135014284Y-117838227D01*
X134585713Y-118409656D02*
X134680951Y-118457275D01*
X134680951Y-118457275D02*
X134919046Y-118457275D01*
X134919046Y-118457275D02*
X135014284Y-118409656D01*
X135014284Y-118409656D02*
X135061903Y-118314417D01*
X135061903Y-118314417D02*
X135061903Y-118219179D01*
X135061903Y-118219179D02*
X135014284Y-118123941D01*
X135014284Y-118123941D02*
X134919046Y-118076322D01*
X134919046Y-118076322D02*
X134680951Y-118076322D01*
X134680951Y-118076322D02*
X134585713Y-118028703D01*
X134109522Y-117790608D02*
X134109522Y-118457275D01*
X134109522Y-117885846D02*
X134061903Y-117838227D01*
X134061903Y-117838227D02*
X133966665Y-117790608D01*
X133966665Y-117790608D02*
X133823808Y-117790608D01*
X133823808Y-117790608D02*
X133728570Y-117838227D01*
X133728570Y-117838227D02*
X133680951Y-117933465D01*
X133680951Y-117933465D02*
X133680951Y-118457275D01*
X143180952Y-119067219D02*
X142561905Y-119067219D01*
X142561905Y-119067219D02*
X142895238Y-119448171D01*
X142895238Y-119448171D02*
X142752381Y-119448171D01*
X142752381Y-119448171D02*
X142657143Y-119495790D01*
X142657143Y-119495790D02*
X142609524Y-119543409D01*
X142609524Y-119543409D02*
X142561905Y-119638647D01*
X142561905Y-119638647D02*
X142561905Y-119876742D01*
X142561905Y-119876742D02*
X142609524Y-119971980D01*
X142609524Y-119971980D02*
X142657143Y-120019600D01*
X142657143Y-120019600D02*
X142752381Y-120067219D01*
X142752381Y-120067219D02*
X143038095Y-120067219D01*
X143038095Y-120067219D02*
X143133333Y-120019600D01*
X143133333Y-120019600D02*
X143180952Y-119971980D01*
X141942857Y-119067219D02*
X141847619Y-119067219D01*
X141847619Y-119067219D02*
X141752381Y-119114838D01*
X141752381Y-119114838D02*
X141704762Y-119162457D01*
X141704762Y-119162457D02*
X141657143Y-119257695D01*
X141657143Y-119257695D02*
X141609524Y-119448171D01*
X141609524Y-119448171D02*
X141609524Y-119686266D01*
X141609524Y-119686266D02*
X141657143Y-119876742D01*
X141657143Y-119876742D02*
X141704762Y-119971980D01*
X141704762Y-119971980D02*
X141752381Y-120019600D01*
X141752381Y-120019600D02*
X141847619Y-120067219D01*
X141847619Y-120067219D02*
X141942857Y-120067219D01*
X141942857Y-120067219D02*
X142038095Y-120019600D01*
X142038095Y-120019600D02*
X142085714Y-119971980D01*
X142085714Y-119971980D02*
X142133333Y-119876742D01*
X142133333Y-119876742D02*
X142180952Y-119686266D01*
X142180952Y-119686266D02*
X142180952Y-119448171D01*
X142180952Y-119448171D02*
X142133333Y-119257695D01*
X142133333Y-119257695D02*
X142085714Y-119162457D01*
X142085714Y-119162457D02*
X142038095Y-119114838D01*
X142038095Y-119114838D02*
X141942857Y-119067219D01*
X140419047Y-120067219D02*
X140419047Y-119067219D01*
X140419047Y-119067219D02*
X140085714Y-119781504D01*
X140085714Y-119781504D02*
X139752381Y-119067219D01*
X139752381Y-119067219D02*
X139752381Y-120067219D01*
X138847619Y-120067219D02*
X138847619Y-119543409D01*
X138847619Y-119543409D02*
X138895238Y-119448171D01*
X138895238Y-119448171D02*
X138990476Y-119400552D01*
X138990476Y-119400552D02*
X139180952Y-119400552D01*
X139180952Y-119400552D02*
X139276190Y-119448171D01*
X138847619Y-120019600D02*
X138942857Y-120067219D01*
X138942857Y-120067219D02*
X139180952Y-120067219D01*
X139180952Y-120067219D02*
X139276190Y-120019600D01*
X139276190Y-120019600D02*
X139323809Y-119924361D01*
X139323809Y-119924361D02*
X139323809Y-119829123D01*
X139323809Y-119829123D02*
X139276190Y-119733885D01*
X139276190Y-119733885D02*
X139180952Y-119686266D01*
X139180952Y-119686266D02*
X138942857Y-119686266D01*
X138942857Y-119686266D02*
X138847619Y-119638647D01*
X138466666Y-119400552D02*
X138228571Y-120067219D01*
X137990476Y-119400552D02*
X138228571Y-120067219D01*
X138228571Y-120067219D02*
X138323809Y-120305314D01*
X138323809Y-120305314D02*
X138371428Y-120352933D01*
X138371428Y-120352933D02*
X138466666Y-120400552D01*
X136895237Y-119162457D02*
X136847618Y-119114838D01*
X136847618Y-119114838D02*
X136752380Y-119067219D01*
X136752380Y-119067219D02*
X136514285Y-119067219D01*
X136514285Y-119067219D02*
X136419047Y-119114838D01*
X136419047Y-119114838D02*
X136371428Y-119162457D01*
X136371428Y-119162457D02*
X136323809Y-119257695D01*
X136323809Y-119257695D02*
X136323809Y-119352933D01*
X136323809Y-119352933D02*
X136371428Y-119495790D01*
X136371428Y-119495790D02*
X136942856Y-120067219D01*
X136942856Y-120067219D02*
X136323809Y-120067219D01*
X135704761Y-119067219D02*
X135609523Y-119067219D01*
X135609523Y-119067219D02*
X135514285Y-119114838D01*
X135514285Y-119114838D02*
X135466666Y-119162457D01*
X135466666Y-119162457D02*
X135419047Y-119257695D01*
X135419047Y-119257695D02*
X135371428Y-119448171D01*
X135371428Y-119448171D02*
X135371428Y-119686266D01*
X135371428Y-119686266D02*
X135419047Y-119876742D01*
X135419047Y-119876742D02*
X135466666Y-119971980D01*
X135466666Y-119971980D02*
X135514285Y-120019600D01*
X135514285Y-120019600D02*
X135609523Y-120067219D01*
X135609523Y-120067219D02*
X135704761Y-120067219D01*
X135704761Y-120067219D02*
X135799999Y-120019600D01*
X135799999Y-120019600D02*
X135847618Y-119971980D01*
X135847618Y-119971980D02*
X135895237Y-119876742D01*
X135895237Y-119876742D02*
X135942856Y-119686266D01*
X135942856Y-119686266D02*
X135942856Y-119448171D01*
X135942856Y-119448171D02*
X135895237Y-119257695D01*
X135895237Y-119257695D02*
X135847618Y-119162457D01*
X135847618Y-119162457D02*
X135799999Y-119114838D01*
X135799999Y-119114838D02*
X135704761Y-119067219D01*
X134990475Y-119162457D02*
X134942856Y-119114838D01*
X134942856Y-119114838D02*
X134847618Y-119067219D01*
X134847618Y-119067219D02*
X134609523Y-119067219D01*
X134609523Y-119067219D02*
X134514285Y-119114838D01*
X134514285Y-119114838D02*
X134466666Y-119162457D01*
X134466666Y-119162457D02*
X134419047Y-119257695D01*
X134419047Y-119257695D02*
X134419047Y-119352933D01*
X134419047Y-119352933D02*
X134466666Y-119495790D01*
X134466666Y-119495790D02*
X135038094Y-120067219D01*
X135038094Y-120067219D02*
X134419047Y-120067219D01*
X133561904Y-119067219D02*
X133752380Y-119067219D01*
X133752380Y-119067219D02*
X133847618Y-119114838D01*
X133847618Y-119114838D02*
X133895237Y-119162457D01*
X133895237Y-119162457D02*
X133990475Y-119305314D01*
X133990475Y-119305314D02*
X134038094Y-119495790D01*
X134038094Y-119495790D02*
X134038094Y-119876742D01*
X134038094Y-119876742D02*
X133990475Y-119971980D01*
X133990475Y-119971980D02*
X133942856Y-120019600D01*
X133942856Y-120019600D02*
X133847618Y-120067219D01*
X133847618Y-120067219D02*
X133657142Y-120067219D01*
X133657142Y-120067219D02*
X133561904Y-120019600D01*
X133561904Y-120019600D02*
X133514285Y-119971980D01*
X133514285Y-119971980D02*
X133466666Y-119876742D01*
X133466666Y-119876742D02*
X133466666Y-119638647D01*
X133466666Y-119638647D02*
X133514285Y-119543409D01*
X133514285Y-119543409D02*
X133561904Y-119495790D01*
X133561904Y-119495790D02*
X133657142Y-119448171D01*
X133657142Y-119448171D02*
X133847618Y-119448171D01*
X133847618Y-119448171D02*
X133942856Y-119495790D01*
X133942856Y-119495790D02*
X133990475Y-119543409D01*
X133990475Y-119543409D02*
X134038094Y-119638647D01*
D12*
X114904819Y-80466666D02*
X115619104Y-80466666D01*
X115619104Y-80466666D02*
X115761961Y-80419047D01*
X115761961Y-80419047D02*
X115857200Y-80323809D01*
X115857200Y-80323809D02*
X115904819Y-80180952D01*
X115904819Y-80180952D02*
X115904819Y-80085714D01*
X114904819Y-81419047D02*
X114904819Y-80942857D01*
X114904819Y-80942857D02*
X115381009Y-80895238D01*
X115381009Y-80895238D02*
X115333390Y-80942857D01*
X115333390Y-80942857D02*
X115285771Y-81038095D01*
X115285771Y-81038095D02*
X115285771Y-81276190D01*
X115285771Y-81276190D02*
X115333390Y-81371428D01*
X115333390Y-81371428D02*
X115381009Y-81419047D01*
X115381009Y-81419047D02*
X115476247Y-81466666D01*
X115476247Y-81466666D02*
X115714342Y-81466666D01*
X115714342Y-81466666D02*
X115809580Y-81419047D01*
X115809580Y-81419047D02*
X115857200Y-81371428D01*
X115857200Y-81371428D02*
X115904819Y-81276190D01*
X115904819Y-81276190D02*
X115904819Y-81038095D01*
X115904819Y-81038095D02*
X115857200Y-80942857D01*
X115857200Y-80942857D02*
X115809580Y-80895238D01*
X113353009Y-74638666D02*
X113353009Y-74971999D01*
X113876819Y-75114856D02*
X113876819Y-74638666D01*
X113876819Y-74638666D02*
X112876819Y-74638666D01*
X112876819Y-74638666D02*
X112876819Y-75114856D01*
X113829200Y-75495809D02*
X113876819Y-75638666D01*
X113876819Y-75638666D02*
X113876819Y-75876761D01*
X113876819Y-75876761D02*
X113829200Y-75971999D01*
X113829200Y-75971999D02*
X113781580Y-76019618D01*
X113781580Y-76019618D02*
X113686342Y-76067237D01*
X113686342Y-76067237D02*
X113591104Y-76067237D01*
X113591104Y-76067237D02*
X113495866Y-76019618D01*
X113495866Y-76019618D02*
X113448247Y-75971999D01*
X113448247Y-75971999D02*
X113400628Y-75876761D01*
X113400628Y-75876761D02*
X113353009Y-75686285D01*
X113353009Y-75686285D02*
X113305390Y-75591047D01*
X113305390Y-75591047D02*
X113257771Y-75543428D01*
X113257771Y-75543428D02*
X113162533Y-75495809D01*
X113162533Y-75495809D02*
X113067295Y-75495809D01*
X113067295Y-75495809D02*
X112972057Y-75543428D01*
X112972057Y-75543428D02*
X112924438Y-75591047D01*
X112924438Y-75591047D02*
X112876819Y-75686285D01*
X112876819Y-75686285D02*
X112876819Y-75924380D01*
X112876819Y-75924380D02*
X112924438Y-76067237D01*
X113876819Y-76495809D02*
X112876819Y-76495809D01*
X112876819Y-76495809D02*
X112876819Y-76876761D01*
X112876819Y-76876761D02*
X112924438Y-76971999D01*
X112924438Y-76971999D02*
X112972057Y-77019618D01*
X112972057Y-77019618D02*
X113067295Y-77067237D01*
X113067295Y-77067237D02*
X113210152Y-77067237D01*
X113210152Y-77067237D02*
X113305390Y-77019618D01*
X113305390Y-77019618D02*
X113353009Y-76971999D01*
X113353009Y-76971999D02*
X113400628Y-76876761D01*
X113400628Y-76876761D02*
X113400628Y-76495809D01*
X112876819Y-77400571D02*
X112876819Y-78019618D01*
X112876819Y-78019618D02*
X113257771Y-77686285D01*
X113257771Y-77686285D02*
X113257771Y-77829142D01*
X113257771Y-77829142D02*
X113305390Y-77924380D01*
X113305390Y-77924380D02*
X113353009Y-77971999D01*
X113353009Y-77971999D02*
X113448247Y-78019618D01*
X113448247Y-78019618D02*
X113686342Y-78019618D01*
X113686342Y-78019618D02*
X113781580Y-77971999D01*
X113781580Y-77971999D02*
X113829200Y-77924380D01*
X113829200Y-77924380D02*
X113876819Y-77829142D01*
X113876819Y-77829142D02*
X113876819Y-77543428D01*
X113876819Y-77543428D02*
X113829200Y-77448190D01*
X113829200Y-77448190D02*
X113781580Y-77400571D01*
X112972057Y-78400571D02*
X112924438Y-78448190D01*
X112924438Y-78448190D02*
X112876819Y-78543428D01*
X112876819Y-78543428D02*
X112876819Y-78781523D01*
X112876819Y-78781523D02*
X112924438Y-78876761D01*
X112924438Y-78876761D02*
X112972057Y-78924380D01*
X112972057Y-78924380D02*
X113067295Y-78971999D01*
X113067295Y-78971999D02*
X113162533Y-78971999D01*
X113162533Y-78971999D02*
X113305390Y-78924380D01*
X113305390Y-78924380D02*
X113876819Y-78352952D01*
X113876819Y-78352952D02*
X113876819Y-78971999D01*
X113876819Y-79829142D02*
X112876819Y-79829142D01*
X113829200Y-79829142D02*
X113876819Y-79733904D01*
X113876819Y-79733904D02*
X113876819Y-79543428D01*
X113876819Y-79543428D02*
X113829200Y-79448190D01*
X113829200Y-79448190D02*
X113781580Y-79400571D01*
X113781580Y-79400571D02*
X113686342Y-79352952D01*
X113686342Y-79352952D02*
X113400628Y-79352952D01*
X113400628Y-79352952D02*
X113305390Y-79400571D01*
X113305390Y-79400571D02*
X113257771Y-79448190D01*
X113257771Y-79448190D02*
X113210152Y-79543428D01*
X113210152Y-79543428D02*
X113210152Y-79733904D01*
X113210152Y-79733904D02*
X113257771Y-79829142D01*
X113829200Y-80686285D02*
X113876819Y-80591047D01*
X113876819Y-80591047D02*
X113876819Y-80400571D01*
X113876819Y-80400571D02*
X113829200Y-80305333D01*
X113829200Y-80305333D02*
X113733961Y-80257714D01*
X113733961Y-80257714D02*
X113353009Y-80257714D01*
X113353009Y-80257714D02*
X113257771Y-80305333D01*
X113257771Y-80305333D02*
X113210152Y-80400571D01*
X113210152Y-80400571D02*
X113210152Y-80591047D01*
X113210152Y-80591047D02*
X113257771Y-80686285D01*
X113257771Y-80686285D02*
X113353009Y-80733904D01*
X113353009Y-80733904D02*
X113448247Y-80733904D01*
X113448247Y-80733904D02*
X113543485Y-80257714D01*
X113210152Y-81067238D02*
X113876819Y-81305333D01*
X113876819Y-81305333D02*
X113210152Y-81543428D01*
X113876819Y-81924381D02*
X112876819Y-81924381D01*
X113495866Y-82019619D02*
X113876819Y-82305333D01*
X113210152Y-82305333D02*
X113591104Y-81924381D01*
X113876819Y-82733905D02*
X113210152Y-82733905D01*
X112876819Y-82733905D02*
X112924438Y-82686286D01*
X112924438Y-82686286D02*
X112972057Y-82733905D01*
X112972057Y-82733905D02*
X112924438Y-82781524D01*
X112924438Y-82781524D02*
X112876819Y-82733905D01*
X112876819Y-82733905D02*
X112972057Y-82733905D01*
X113210152Y-83067238D02*
X113210152Y-83448190D01*
X112876819Y-83210095D02*
X113733961Y-83210095D01*
X113733961Y-83210095D02*
X113829200Y-83257714D01*
X113829200Y-83257714D02*
X113876819Y-83352952D01*
X113876819Y-83352952D02*
X113876819Y-83448190D01*
X114904819Y-105916666D02*
X115619104Y-105916666D01*
X115619104Y-105916666D02*
X115761961Y-105869047D01*
X115761961Y-105869047D02*
X115857200Y-105773809D01*
X115857200Y-105773809D02*
X115904819Y-105630952D01*
X115904819Y-105630952D02*
X115904819Y-105535714D01*
X115000057Y-106345238D02*
X114952438Y-106392857D01*
X114952438Y-106392857D02*
X114904819Y-106488095D01*
X114904819Y-106488095D02*
X114904819Y-106726190D01*
X114904819Y-106726190D02*
X114952438Y-106821428D01*
X114952438Y-106821428D02*
X115000057Y-106869047D01*
X115000057Y-106869047D02*
X115095295Y-106916666D01*
X115095295Y-106916666D02*
X115190533Y-106916666D01*
X115190533Y-106916666D02*
X115333390Y-106869047D01*
X115333390Y-106869047D02*
X115904819Y-106297619D01*
X115904819Y-106297619D02*
X115904819Y-106916666D01*
D13*
X116890000Y-79470000D02*
X118220000Y-79470000D01*
X116890000Y-80800000D02*
X116890000Y-79470000D01*
X119490000Y-79470000D02*
X155110000Y-79470000D01*
X119490000Y-82130000D02*
X119490000Y-79470000D01*
X119490000Y-82130000D02*
X155110000Y-82130000D01*
X155110000Y-82130000D02*
X155110000Y-79470000D01*
D14*
X110272000Y-84744500D02*
X110272000Y-102744500D01*
X110272000Y-102744500D02*
X116472000Y-102744500D01*
X116472000Y-79794500D02*
X164672000Y-79794500D01*
X116472000Y-84744500D02*
X110272000Y-84744500D01*
X116472000Y-84744500D02*
X116472000Y-79794500D01*
X116472000Y-107694500D02*
X116472000Y-102744500D01*
X164672000Y-79794500D02*
X164672000Y-89674500D01*
X164672000Y-89674500D02*
X165572000Y-89674500D01*
X164672000Y-97804500D02*
X164672000Y-107694500D01*
X164672000Y-107694500D02*
X116472000Y-107694500D01*
X165572000Y-89674500D02*
X165572000Y-97804500D01*
X165572000Y-97804500D02*
X164672000Y-97804500D01*
D11*
X117702000Y-79174500D02*
G75*
G02*
X117502000Y-79174500I-100000J0D01*
G01*
X117502000Y-79174500D02*
G75*
G02*
X117702000Y-79174500I100000J0D01*
G01*
D13*
X116890000Y-104920000D02*
X118220000Y-104920000D01*
X116890000Y-106250000D02*
X116890000Y-104920000D01*
X119490000Y-104920000D02*
X155110000Y-104920000D01*
X119490000Y-107580000D02*
X119490000Y-104920000D01*
X119490000Y-107580000D02*
X155110000Y-107580000D01*
X155110000Y-107580000D02*
X155110000Y-104920000D01*
M02*
