G04 #@! TF.GenerationSoftware,KiCad,Pcbnew,10.0.1*
G04 #@! TF.CreationDate,2026-06-05T01:59:55+08:00*
G04 #@! TF.ProjectId,Spotify Car Thing,53706f74-6966-4792-9043-617220546869,rev?*
G04 #@! TF.SameCoordinates,Original*
G04 #@! TF.FileFunction,Legend,Top*
G04 #@! TF.FilePolarity,Positive*
%FSLAX46Y46*%
G04 Gerber Fmt 4.6, Leading zero omitted, Abs format (unit mm)*
G04 Created by KiCad (PCBNEW 10.0.1) date 2026-06-05 01:59:55*
%MOMM*%
%LPD*%
G01*
G04 APERTURE LIST*
%ADD10C,0.500000*%
%ADD11C,0.150000*%
%ADD12C,0.200000*%
%ADD13C,0.100000*%
%ADD14C,0.120000*%
%ADD15C,0.000000*%
G04 APERTURE END LIST*
D10*
X177157143Y-116834000D02*
X177514286Y-116929238D01*
X177514286Y-116929238D02*
X178109524Y-116929238D01*
X178109524Y-116929238D02*
X178347619Y-116834000D01*
X178347619Y-116834000D02*
X178466667Y-116738761D01*
X178466667Y-116738761D02*
X178585714Y-116548285D01*
X178585714Y-116548285D02*
X178585714Y-116357809D01*
X178585714Y-116357809D02*
X178466667Y-116167333D01*
X178466667Y-116167333D02*
X178347619Y-116072095D01*
X178347619Y-116072095D02*
X178109524Y-115976857D01*
X178109524Y-115976857D02*
X177633333Y-115881619D01*
X177633333Y-115881619D02*
X177395238Y-115786380D01*
X177395238Y-115786380D02*
X177276191Y-115691142D01*
X177276191Y-115691142D02*
X177157143Y-115500666D01*
X177157143Y-115500666D02*
X177157143Y-115310190D01*
X177157143Y-115310190D02*
X177276191Y-115119714D01*
X177276191Y-115119714D02*
X177395238Y-115024476D01*
X177395238Y-115024476D02*
X177633333Y-114929238D01*
X177633333Y-114929238D02*
X178228572Y-114929238D01*
X178228572Y-114929238D02*
X178585714Y-115024476D01*
X179657143Y-115595904D02*
X179657143Y-117595904D01*
X179657143Y-115691142D02*
X179895238Y-115595904D01*
X179895238Y-115595904D02*
X180371428Y-115595904D01*
X180371428Y-115595904D02*
X180609524Y-115691142D01*
X180609524Y-115691142D02*
X180728571Y-115786380D01*
X180728571Y-115786380D02*
X180847619Y-115976857D01*
X180847619Y-115976857D02*
X180847619Y-116548285D01*
X180847619Y-116548285D02*
X180728571Y-116738761D01*
X180728571Y-116738761D02*
X180609524Y-116834000D01*
X180609524Y-116834000D02*
X180371428Y-116929238D01*
X180371428Y-116929238D02*
X179895238Y-116929238D01*
X179895238Y-116929238D02*
X179657143Y-116834000D01*
X182276190Y-116929238D02*
X182038095Y-116834000D01*
X182038095Y-116834000D02*
X181919048Y-116738761D01*
X181919048Y-116738761D02*
X181800000Y-116548285D01*
X181800000Y-116548285D02*
X181800000Y-115976857D01*
X181800000Y-115976857D02*
X181919048Y-115786380D01*
X181919048Y-115786380D02*
X182038095Y-115691142D01*
X182038095Y-115691142D02*
X182276190Y-115595904D01*
X182276190Y-115595904D02*
X182633333Y-115595904D01*
X182633333Y-115595904D02*
X182871429Y-115691142D01*
X182871429Y-115691142D02*
X182990476Y-115786380D01*
X182990476Y-115786380D02*
X183109524Y-115976857D01*
X183109524Y-115976857D02*
X183109524Y-116548285D01*
X183109524Y-116548285D02*
X182990476Y-116738761D01*
X182990476Y-116738761D02*
X182871429Y-116834000D01*
X182871429Y-116834000D02*
X182633333Y-116929238D01*
X182633333Y-116929238D02*
X182276190Y-116929238D01*
X183823810Y-115595904D02*
X184776191Y-115595904D01*
X184180953Y-114929238D02*
X184180953Y-116643523D01*
X184180953Y-116643523D02*
X184300000Y-116834000D01*
X184300000Y-116834000D02*
X184538095Y-116929238D01*
X184538095Y-116929238D02*
X184776191Y-116929238D01*
X185609524Y-116929238D02*
X185609524Y-115595904D01*
X185609524Y-114929238D02*
X185490476Y-115024476D01*
X185490476Y-115024476D02*
X185609524Y-115119714D01*
X185609524Y-115119714D02*
X185728571Y-115024476D01*
X185728571Y-115024476D02*
X185609524Y-114929238D01*
X185609524Y-114929238D02*
X185609524Y-115119714D01*
X186442857Y-115595904D02*
X187395238Y-115595904D01*
X186800000Y-116929238D02*
X186800000Y-115214952D01*
X186800000Y-115214952D02*
X186919047Y-115024476D01*
X186919047Y-115024476D02*
X187157142Y-114929238D01*
X187157142Y-114929238D02*
X187395238Y-114929238D01*
X187990475Y-115595904D02*
X188585713Y-116929238D01*
X189180952Y-115595904D02*
X188585713Y-116929238D01*
X188585713Y-116929238D02*
X188347618Y-117405428D01*
X188347618Y-117405428D02*
X188228571Y-117500666D01*
X188228571Y-117500666D02*
X187990475Y-117595904D01*
X191561904Y-116738761D02*
X191442856Y-116834000D01*
X191442856Y-116834000D02*
X191085714Y-116929238D01*
X191085714Y-116929238D02*
X190847618Y-116929238D01*
X190847618Y-116929238D02*
X190490475Y-116834000D01*
X190490475Y-116834000D02*
X190252380Y-116643523D01*
X190252380Y-116643523D02*
X190133333Y-116453047D01*
X190133333Y-116453047D02*
X190014285Y-116072095D01*
X190014285Y-116072095D02*
X190014285Y-115786380D01*
X190014285Y-115786380D02*
X190133333Y-115405428D01*
X190133333Y-115405428D02*
X190252380Y-115214952D01*
X190252380Y-115214952D02*
X190490475Y-115024476D01*
X190490475Y-115024476D02*
X190847618Y-114929238D01*
X190847618Y-114929238D02*
X191085714Y-114929238D01*
X191085714Y-114929238D02*
X191442856Y-115024476D01*
X191442856Y-115024476D02*
X191561904Y-115119714D01*
X193704761Y-116929238D02*
X193704761Y-115881619D01*
X193704761Y-115881619D02*
X193585714Y-115691142D01*
X193585714Y-115691142D02*
X193347618Y-115595904D01*
X193347618Y-115595904D02*
X192871428Y-115595904D01*
X192871428Y-115595904D02*
X192633333Y-115691142D01*
X193704761Y-116834000D02*
X193466666Y-116929238D01*
X193466666Y-116929238D02*
X192871428Y-116929238D01*
X192871428Y-116929238D02*
X192633333Y-116834000D01*
X192633333Y-116834000D02*
X192514285Y-116643523D01*
X192514285Y-116643523D02*
X192514285Y-116453047D01*
X192514285Y-116453047D02*
X192633333Y-116262571D01*
X192633333Y-116262571D02*
X192871428Y-116167333D01*
X192871428Y-116167333D02*
X193466666Y-116167333D01*
X193466666Y-116167333D02*
X193704761Y-116072095D01*
X194895238Y-116929238D02*
X194895238Y-115595904D01*
X194895238Y-115976857D02*
X195014285Y-115786380D01*
X195014285Y-115786380D02*
X195133333Y-115691142D01*
X195133333Y-115691142D02*
X195371428Y-115595904D01*
X195371428Y-115595904D02*
X195609523Y-115595904D01*
X196085714Y-114929238D02*
X197514285Y-114929238D01*
X196799999Y-116929238D02*
X196799999Y-114929238D01*
X198347619Y-116929238D02*
X198347619Y-114929238D01*
X199419047Y-116929238D02*
X199419047Y-115881619D01*
X199419047Y-115881619D02*
X199300000Y-115691142D01*
X199300000Y-115691142D02*
X199061904Y-115595904D01*
X199061904Y-115595904D02*
X198704761Y-115595904D01*
X198704761Y-115595904D02*
X198466666Y-115691142D01*
X198466666Y-115691142D02*
X198347619Y-115786380D01*
X200609524Y-116929238D02*
X200609524Y-115595904D01*
X200609524Y-114929238D02*
X200490476Y-115024476D01*
X200490476Y-115024476D02*
X200609524Y-115119714D01*
X200609524Y-115119714D02*
X200728571Y-115024476D01*
X200728571Y-115024476D02*
X200609524Y-114929238D01*
X200609524Y-114929238D02*
X200609524Y-115119714D01*
X201800000Y-115595904D02*
X201800000Y-116929238D01*
X201800000Y-115786380D02*
X201919047Y-115691142D01*
X201919047Y-115691142D02*
X202157142Y-115595904D01*
X202157142Y-115595904D02*
X202514285Y-115595904D01*
X202514285Y-115595904D02*
X202752381Y-115691142D01*
X202752381Y-115691142D02*
X202871428Y-115881619D01*
X202871428Y-115881619D02*
X202871428Y-116929238D01*
X205133333Y-115595904D02*
X205133333Y-117214952D01*
X205133333Y-117214952D02*
X205014286Y-117405428D01*
X205014286Y-117405428D02*
X204895238Y-117500666D01*
X204895238Y-117500666D02*
X204657143Y-117595904D01*
X204657143Y-117595904D02*
X204300000Y-117595904D01*
X204300000Y-117595904D02*
X204061905Y-117500666D01*
X205133333Y-116834000D02*
X204895238Y-116929238D01*
X204895238Y-116929238D02*
X204419047Y-116929238D01*
X204419047Y-116929238D02*
X204180952Y-116834000D01*
X204180952Y-116834000D02*
X204061905Y-116738761D01*
X204061905Y-116738761D02*
X203942857Y-116548285D01*
X203942857Y-116548285D02*
X203942857Y-115976857D01*
X203942857Y-115976857D02*
X204061905Y-115786380D01*
X204061905Y-115786380D02*
X204180952Y-115691142D01*
X204180952Y-115691142D02*
X204419047Y-115595904D01*
X204419047Y-115595904D02*
X204895238Y-115595904D01*
X204895238Y-115595904D02*
X205133333Y-115691142D01*
X205728572Y-117119714D02*
X207633333Y-117119714D01*
X207990476Y-115595904D02*
X208585714Y-116929238D01*
X208585714Y-116929238D02*
X209180953Y-115595904D01*
X211442857Y-116929238D02*
X210014286Y-116929238D01*
X210728572Y-116929238D02*
X210728572Y-114929238D01*
X210728572Y-114929238D02*
X210490476Y-115214952D01*
X210490476Y-115214952D02*
X210252381Y-115405428D01*
X210252381Y-115405428D02*
X210014286Y-115500666D01*
D11*
X210634286Y-73098914D02*
X210634286Y-73860819D01*
X210681905Y-73146533D02*
X210681905Y-73813200D01*
X210729524Y-73146533D02*
X210729524Y-73813200D01*
X210777143Y-73194152D02*
X210777143Y-73765580D01*
X210824762Y-73194152D02*
X210824762Y-73765580D01*
X210872381Y-73241771D02*
X210872381Y-73717961D01*
X210920000Y-73241771D02*
X210920000Y-73717961D01*
X210967619Y-73289390D02*
X210967619Y-73670342D01*
X211015238Y-73337009D02*
X211015238Y-73622723D01*
X211062857Y-73337009D02*
X211062857Y-73622723D01*
X211110476Y-73384628D02*
X211110476Y-73575104D01*
X211158095Y-73384628D02*
X211158095Y-73575104D01*
X211205714Y-73479866D02*
X211253333Y-73479866D01*
X211205714Y-73432247D02*
X211205714Y-73527485D01*
X210586667Y-73098914D02*
X211300952Y-73479866D01*
X211300952Y-73479866D02*
X210586667Y-73860819D01*
X211348572Y-73479866D02*
X210586667Y-73908438D01*
X210586667Y-73908438D02*
X210586667Y-73051295D01*
X210586667Y-73051295D02*
X211348572Y-73479866D01*
X212062857Y-74194152D02*
X212062857Y-72765580D01*
X213015238Y-74194152D02*
X213015238Y-72765580D01*
D12*
X210324762Y-95128219D02*
X210324762Y-94128219D01*
X210324762Y-94128219D02*
X210896190Y-95128219D01*
X210896190Y-95128219D02*
X210896190Y-94128219D01*
X211372381Y-94604409D02*
X211705714Y-94604409D01*
X211848571Y-95128219D02*
X211372381Y-95128219D01*
X211372381Y-95128219D02*
X211372381Y-94128219D01*
X211372381Y-94128219D02*
X211848571Y-94128219D01*
X212181905Y-94128219D02*
X212848571Y-95128219D01*
X212848571Y-94128219D02*
X212181905Y-95128219D01*
X213086667Y-94128219D02*
X213658095Y-94128219D01*
X213372381Y-95128219D02*
X213372381Y-94128219D01*
X210277143Y-53538219D02*
X210277143Y-52538219D01*
X210277143Y-52538219D02*
X210658095Y-52538219D01*
X210658095Y-52538219D02*
X210753333Y-52585838D01*
X210753333Y-52585838D02*
X210800952Y-52633457D01*
X210800952Y-52633457D02*
X210848571Y-52728695D01*
X210848571Y-52728695D02*
X210848571Y-52871552D01*
X210848571Y-52871552D02*
X210800952Y-52966790D01*
X210800952Y-52966790D02*
X210753333Y-53014409D01*
X210753333Y-53014409D02*
X210658095Y-53062028D01*
X210658095Y-53062028D02*
X210277143Y-53062028D01*
X211848571Y-53538219D02*
X211515238Y-53062028D01*
X211277143Y-53538219D02*
X211277143Y-52538219D01*
X211277143Y-52538219D02*
X211658095Y-52538219D01*
X211658095Y-52538219D02*
X211753333Y-52585838D01*
X211753333Y-52585838D02*
X211800952Y-52633457D01*
X211800952Y-52633457D02*
X211848571Y-52728695D01*
X211848571Y-52728695D02*
X211848571Y-52871552D01*
X211848571Y-52871552D02*
X211800952Y-52966790D01*
X211800952Y-52966790D02*
X211753333Y-53014409D01*
X211753333Y-53014409D02*
X211658095Y-53062028D01*
X211658095Y-53062028D02*
X211277143Y-53062028D01*
X212277143Y-53014409D02*
X212610476Y-53014409D01*
X212753333Y-53538219D02*
X212277143Y-53538219D01*
X212277143Y-53538219D02*
X212277143Y-52538219D01*
X212277143Y-52538219D02*
X212753333Y-52538219D01*
X213039048Y-52538219D02*
X213372381Y-53538219D01*
X213372381Y-53538219D02*
X213705714Y-52538219D01*
D13*
X194728095Y-111082419D02*
X194728095Y-111891942D01*
X194728095Y-111891942D02*
X194775714Y-111987180D01*
X194775714Y-111987180D02*
X194823333Y-112034800D01*
X194823333Y-112034800D02*
X194918571Y-112082419D01*
X194918571Y-112082419D02*
X195109047Y-112082419D01*
X195109047Y-112082419D02*
X195204285Y-112034800D01*
X195204285Y-112034800D02*
X195251904Y-111987180D01*
X195251904Y-111987180D02*
X195299523Y-111891942D01*
X195299523Y-111891942D02*
X195299523Y-111082419D01*
X195728095Y-111177657D02*
X195775714Y-111130038D01*
X195775714Y-111130038D02*
X195870952Y-111082419D01*
X195870952Y-111082419D02*
X196109047Y-111082419D01*
X196109047Y-111082419D02*
X196204285Y-111130038D01*
X196204285Y-111130038D02*
X196251904Y-111177657D01*
X196251904Y-111177657D02*
X196299523Y-111272895D01*
X196299523Y-111272895D02*
X196299523Y-111368133D01*
X196299523Y-111368133D02*
X196251904Y-111510990D01*
X196251904Y-111510990D02*
X195680476Y-112082419D01*
X195680476Y-112082419D02*
X196299523Y-112082419D01*
D14*
X204935000Y-74295000D02*
X218905000Y-74295000D01*
X204935000Y-88265000D02*
X204935000Y-74295000D01*
X218905000Y-74295000D02*
X218905000Y-88265000D01*
X218905000Y-88265000D02*
X204935000Y-88265000D01*
X204935000Y-95565000D02*
X218905000Y-95565000D01*
X204935000Y-109535000D02*
X204935000Y-95565000D01*
X218905000Y-95565000D02*
X218905000Y-109535000D01*
X218905000Y-109535000D02*
X204935000Y-109535000D01*
D15*
G36*
X171511509Y-116132985D02*
G01*
X171582748Y-116175707D01*
X171636080Y-116231716D01*
X171669954Y-116298650D01*
X171682818Y-116374150D01*
X171682599Y-116393445D01*
X171678388Y-116435094D01*
X171670857Y-116470455D01*
X171665574Y-116484185D01*
X171654499Y-116511207D01*
X171651507Y-116527406D01*
X171644568Y-116545269D01*
X171626490Y-116574443D01*
X171604483Y-116604324D01*
X171565394Y-116646716D01*
X171528293Y-116670783D01*
X171512967Y-116676170D01*
X171483161Y-116683708D01*
X171464511Y-116687050D01*
X171462572Y-116686983D01*
X171447621Y-116684092D01*
X171427146Y-116680595D01*
X171361566Y-116661194D01*
X171304841Y-116627925D01*
X171262655Y-116584657D01*
X171248037Y-116558764D01*
X171231091Y-116506980D01*
X171219291Y-116446676D01*
X171213902Y-116387334D01*
X171216190Y-116338435D01*
X171217624Y-116330989D01*
X171244253Y-116249651D01*
X171282132Y-116186229D01*
X171329623Y-116141828D01*
X171385082Y-116117553D01*
X171446869Y-116114510D01*
X171511509Y-116132985D01*
G37*
G36*
X173840104Y-116192935D02*
G01*
X173888424Y-116216881D01*
X173927888Y-116255679D01*
X173952586Y-116305040D01*
X173953260Y-116307454D01*
X173958390Y-116345406D01*
X173959030Y-116398014D01*
X173955812Y-116457935D01*
X173949369Y-116517827D01*
X173940335Y-116570346D01*
X173929344Y-116608150D01*
X173926868Y-116613490D01*
X173887634Y-116664969D01*
X173832727Y-116703142D01*
X173766952Y-116726466D01*
X173695115Y-116733399D01*
X173622020Y-116722400D01*
X173604701Y-116716877D01*
X173572361Y-116701737D01*
X173549879Y-116679399D01*
X173529484Y-116642345D01*
X173514725Y-116599217D01*
X173504446Y-116546709D01*
X173499439Y-116492929D01*
X173500492Y-116445989D01*
X173507436Y-116415937D01*
X173516148Y-116390060D01*
X173521986Y-116364747D01*
X173531327Y-116340656D01*
X173549577Y-116310009D01*
X173572369Y-116278482D01*
X173595336Y-116251753D01*
X173614113Y-116235499D01*
X173622846Y-116233614D01*
X173636769Y-116230365D01*
X173652041Y-116217424D01*
X173679549Y-116200729D01*
X173715613Y-116193601D01*
X173753968Y-116191312D01*
X173787351Y-116188308D01*
X173788838Y-116188131D01*
X173840104Y-116192935D01*
G37*
G36*
X173100714Y-116805651D02*
G01*
X173129149Y-116830931D01*
X173157283Y-116878961D01*
X173171926Y-116913018D01*
X173192420Y-116967982D01*
X173203409Y-117007621D01*
X173205677Y-117037867D01*
X173200011Y-117064651D01*
X173193998Y-117079611D01*
X173171003Y-117123360D01*
X173145459Y-117150170D01*
X173109635Y-117166075D01*
X173072834Y-117174217D01*
X173010200Y-117182972D01*
X172939801Y-117188845D01*
X172868383Y-117191657D01*
X172802693Y-117191233D01*
X172749477Y-117187395D01*
X172726077Y-117183314D01*
X172675450Y-117168562D01*
X172631655Y-117151627D01*
X172600745Y-117135095D01*
X172590084Y-117125254D01*
X172572560Y-117115982D01*
X172543259Y-117114164D01*
X172512591Y-117119153D01*
X172490962Y-117130304D01*
X172489908Y-117131474D01*
X172472652Y-117146330D01*
X172464429Y-117149187D01*
X172447670Y-117155135D01*
X172423414Y-117168999D01*
X172406195Y-117179400D01*
X172388642Y-117186585D01*
X172365080Y-117191767D01*
X172329830Y-117196158D01*
X172277215Y-117200971D01*
X172271451Y-117201465D01*
X172194749Y-117200367D01*
X172115886Y-117185020D01*
X172035238Y-117158021D01*
X171976463Y-117125814D01*
X171940053Y-117088729D01*
X171927797Y-117058332D01*
X171926381Y-117019823D01*
X171933894Y-116991821D01*
X171958480Y-116947805D01*
X171975764Y-116921988D01*
X171988226Y-116911077D01*
X171995175Y-116910480D01*
X172015366Y-116906994D01*
X172021764Y-116902983D01*
X172043154Y-116898149D01*
X172061506Y-116902061D01*
X172077237Y-116909618D01*
X172081926Y-116920792D01*
X172076671Y-116942924D01*
X172070363Y-116961228D01*
X172056723Y-117004684D01*
X172055237Y-117032977D01*
X172068860Y-117052263D01*
X172100547Y-117068697D01*
X172126797Y-117078770D01*
X172170015Y-117092682D01*
X172208809Y-117101715D01*
X172231858Y-117103874D01*
X172262676Y-117098588D01*
X172302456Y-117087533D01*
X172345147Y-117072982D01*
X172384697Y-117057211D01*
X172415058Y-117042494D01*
X172430176Y-117031107D01*
X172430865Y-117029057D01*
X172441402Y-117021545D01*
X172468067Y-117013541D01*
X172503441Y-117006373D01*
X172540104Y-117001368D01*
X172570639Y-116999856D01*
X172584360Y-117001576D01*
X172609777Y-117014291D01*
X172638960Y-117034819D01*
X172640529Y-117036112D01*
X172681703Y-117063362D01*
X172729679Y-117080073D01*
X172789600Y-117087358D01*
X172866607Y-117086330D01*
X172871436Y-117086055D01*
X172952715Y-117080328D01*
X173012709Y-117072846D01*
X173053747Y-117061788D01*
X173078162Y-117045334D01*
X173088284Y-117021664D01*
X173086445Y-116988958D01*
X173074975Y-116945396D01*
X173070282Y-116930781D01*
X173053870Y-116877020D01*
X173046666Y-116841071D01*
X173048708Y-116818980D01*
X173060030Y-116806795D01*
X173071460Y-116802552D01*
X173100714Y-116805651D01*
G37*
G36*
X172116408Y-117988367D02*
G01*
X172215859Y-118023330D01*
X172302530Y-118077878D01*
X172375113Y-118150952D01*
X172432299Y-118241493D01*
X172434399Y-118245773D01*
X172454849Y-118286761D01*
X172468577Y-118309519D01*
X172478643Y-118317313D01*
X172488112Y-118313407D01*
X172493220Y-118308465D01*
X172519270Y-118283852D01*
X172547634Y-118260932D01*
X172571183Y-118245158D01*
X172581016Y-118241289D01*
X172598424Y-118235457D01*
X172605172Y-118231654D01*
X172627215Y-118225688D01*
X172665962Y-118222254D01*
X172714644Y-118221272D01*
X172766492Y-118222661D01*
X172814738Y-118226341D01*
X172852613Y-118232231D01*
X172861874Y-118234707D01*
X172912827Y-118256357D01*
X172964979Y-118287474D01*
X173010293Y-118322620D01*
X173040068Y-118355346D01*
X173061411Y-118382019D01*
X173075004Y-118387200D01*
X173080282Y-118370714D01*
X173080331Y-118367735D01*
X173089721Y-118340289D01*
X173115052Y-118305502D01*
X173152063Y-118268266D01*
X173196492Y-118233476D01*
X173198353Y-118232211D01*
X173236045Y-118204333D01*
X173279808Y-118168498D01*
X173312841Y-118139164D01*
X173346796Y-118110586D01*
X173377404Y-118090103D01*
X173398151Y-118082060D01*
X173398452Y-118082055D01*
X173418030Y-118077827D01*
X173422776Y-118071701D01*
X173433375Y-118059529D01*
X173461277Y-118044778D01*
X173500645Y-118029574D01*
X173545637Y-118016041D01*
X173590415Y-118006305D01*
X173609795Y-118003637D01*
X173666137Y-118001952D01*
X173721612Y-118007056D01*
X173737638Y-118010253D01*
X173781440Y-118026530D01*
X173822520Y-118051516D01*
X173854753Y-118080474D01*
X173872015Y-118108670D01*
X173873280Y-118115127D01*
X173876268Y-118141428D01*
X173880213Y-118170619D01*
X173884279Y-118213729D01*
X173886913Y-118272462D01*
X173888093Y-118339488D01*
X173887800Y-118407481D01*
X173886013Y-118469114D01*
X173882712Y-118517060D01*
X173881204Y-118529196D01*
X173863371Y-118623664D01*
X173838513Y-118720203D01*
X173809170Y-118809986D01*
X173780708Y-118878384D01*
X173748152Y-118944094D01*
X173722856Y-118989771D01*
X173703536Y-119017400D01*
X173688907Y-119028964D01*
X173682965Y-119029345D01*
X173669064Y-119036340D01*
X173662439Y-119050074D01*
X173647449Y-119069815D01*
X173616558Y-119091017D01*
X173576927Y-119110037D01*
X173535713Y-119123231D01*
X173511340Y-119126966D01*
X173479468Y-119125187D01*
X173437040Y-119118264D01*
X173411994Y-119112494D01*
X173358742Y-119093308D01*
X173300759Y-119063594D01*
X173241894Y-119026400D01*
X173185998Y-118984773D01*
X173136919Y-118941759D01*
X173098506Y-118900407D01*
X173074609Y-118863764D01*
X173068522Y-118840583D01*
X173068522Y-118812195D01*
X173022541Y-118848613D01*
X172994558Y-118869657D01*
X172974348Y-118882810D01*
X172968925Y-118885031D01*
X172955074Y-118891356D01*
X172931621Y-118906752D01*
X172929295Y-118908440D01*
X172898454Y-118922998D01*
X172852075Y-118935845D01*
X172798235Y-118945465D01*
X172745013Y-118950347D01*
X172708364Y-118949829D01*
X172668639Y-118943637D01*
X172620245Y-118932243D01*
X172571926Y-118918116D01*
X172532424Y-118903727D01*
X172515479Y-118895319D01*
X172496071Y-118886993D01*
X172477025Y-118891701D01*
X172455415Y-118906091D01*
X172428838Y-118923337D01*
X172409099Y-118932018D01*
X172406983Y-118932265D01*
X172390474Y-118937108D01*
X172359412Y-118949840D01*
X172320354Y-118967762D01*
X172318242Y-118968779D01*
X172269950Y-118988909D01*
X172226943Y-118997964D01*
X172183726Y-118995286D01*
X172134801Y-118980219D01*
X172074672Y-118952107D01*
X172044431Y-118936077D01*
X171947660Y-118873514D01*
X171864728Y-118799323D01*
X171799303Y-118717144D01*
X171768255Y-118661916D01*
X171737879Y-118570778D01*
X171728186Y-118476317D01*
X171881012Y-118476317D01*
X171882309Y-118514887D01*
X171885260Y-118538110D01*
X171887847Y-118542585D01*
X171899590Y-118552275D01*
X171913644Y-118575001D01*
X171925299Y-118601254D01*
X171929845Y-118621522D01*
X171928884Y-118625442D01*
X171932832Y-118636741D01*
X171940882Y-118641349D01*
X171956532Y-118656166D01*
X171958527Y-118664452D01*
X171968138Y-118688383D01*
X171993541Y-118719043D01*
X172029596Y-118752234D01*
X172071158Y-118783755D01*
X172113086Y-118809406D01*
X172150237Y-118824988D01*
X172157081Y-118826613D01*
X172215294Y-118835227D01*
X172259944Y-118833869D01*
X172299406Y-118821308D01*
X172336032Y-118800312D01*
X172368329Y-118777672D01*
X172383765Y-118761333D01*
X172386151Y-118746186D01*
X172383403Y-118736824D01*
X172378641Y-118712667D01*
X172377803Y-118703587D01*
X172521862Y-118703587D01*
X172533479Y-118741189D01*
X172563472Y-118769674D01*
X172593479Y-118784219D01*
X172631177Y-118795947D01*
X172668493Y-118803135D01*
X172697354Y-118804061D01*
X172707774Y-118800473D01*
X172726806Y-118793361D01*
X172755008Y-118790554D01*
X172794275Y-118783579D01*
X172842744Y-118765428D01*
X172892230Y-118740237D01*
X172904304Y-118732220D01*
X173118596Y-118732220D01*
X173130366Y-118743540D01*
X173149497Y-118748863D01*
X173177091Y-118760915D01*
X173192432Y-118778504D01*
X173204787Y-118796606D01*
X173230486Y-118823023D01*
X173263303Y-118851486D01*
X173331099Y-118904229D01*
X173385170Y-118941599D01*
X173428914Y-118964484D01*
X173465734Y-118973774D01*
X173499030Y-118970356D01*
X173532201Y-118955120D01*
X173566455Y-118930698D01*
X173597486Y-118902284D01*
X173622358Y-118872946D01*
X173628274Y-118863589D01*
X173663985Y-118794097D01*
X173689461Y-118737307D01*
X173703596Y-118695848D01*
X173706179Y-118678730D01*
X173709931Y-118654326D01*
X173716302Y-118643999D01*
X173725196Y-118627194D01*
X173732961Y-118591536D01*
X173739353Y-118541773D01*
X173744131Y-118482652D01*
X173747051Y-118418919D01*
X173747871Y-118355324D01*
X173746348Y-118296612D01*
X173742239Y-118247532D01*
X173737864Y-118222166D01*
X173723330Y-118178338D01*
X173702361Y-118154980D01*
X173670232Y-118149007D01*
X173634207Y-118154473D01*
X173589394Y-118168169D01*
X173534280Y-118190316D01*
X173474912Y-118217875D01*
X173417340Y-118247807D01*
X173367610Y-118277075D01*
X173331772Y-118302640D01*
X173322999Y-118310809D01*
X173295868Y-118336350D01*
X173271535Y-118354162D01*
X173265566Y-118357112D01*
X173251224Y-118368734D01*
X173251470Y-118377131D01*
X173248631Y-118392159D01*
X173232111Y-118413564D01*
X173228601Y-118416946D01*
X173208249Y-118438955D01*
X173198549Y-118455634D01*
X173198415Y-118456882D01*
X173190268Y-118473698D01*
X173180703Y-118483543D01*
X173165545Y-118506858D01*
X173162990Y-118520414D01*
X173158477Y-118538814D01*
X173152822Y-118542585D01*
X173146204Y-118553266D01*
X173139511Y-118580933D01*
X173135283Y-118610484D01*
X173129884Y-118654081D01*
X173123984Y-118692676D01*
X173120686Y-118709665D01*
X173118596Y-118732220D01*
X172904304Y-118732220D01*
X172934548Y-118712138D01*
X172960495Y-118686745D01*
X172975442Y-118655791D01*
X172984246Y-118618205D01*
X172986111Y-118582114D01*
X172980239Y-118555641D01*
X172974055Y-118548490D01*
X172963927Y-118531736D01*
X172962246Y-118519661D01*
X172952500Y-118494134D01*
X172926688Y-118462751D01*
X172889951Y-118430049D01*
X172847431Y-118400567D01*
X172804269Y-118378842D01*
X172801525Y-118377792D01*
X172756069Y-118361933D01*
X172724187Y-118355515D01*
X172697777Y-118358610D01*
X172668737Y-118371286D01*
X172654566Y-118379057D01*
X172615479Y-118412869D01*
X172583323Y-118463261D01*
X172561594Y-118523447D01*
X172554068Y-118574082D01*
X172547774Y-118616144D01*
X172535458Y-118655416D01*
X172533147Y-118660390D01*
X172521862Y-118703587D01*
X172377803Y-118703587D01*
X172374922Y-118672354D01*
X172372585Y-118623336D01*
X172371971Y-118573064D01*
X172373420Y-118528989D01*
X172373718Y-118524873D01*
X172370414Y-118472060D01*
X172354992Y-118420869D01*
X172336761Y-118389862D01*
X172314354Y-118357214D01*
X172294209Y-118320162D01*
X172293664Y-118318975D01*
X172252271Y-118246970D01*
X172201217Y-118194708D01*
X172137023Y-118159139D01*
X172096436Y-118146002D01*
X172057593Y-118137487D01*
X172031286Y-118137453D01*
X172007991Y-118145951D01*
X172006956Y-118146485D01*
X171958197Y-118181211D01*
X171922306Y-118229181D01*
X171898204Y-118292812D01*
X171884812Y-118374524D01*
X171881640Y-118427453D01*
X171881012Y-118476317D01*
X171728186Y-118476317D01*
X171727688Y-118471464D01*
X171737337Y-118367467D01*
X171766481Y-118262285D01*
X171814773Y-118159412D01*
X171818573Y-118152877D01*
X171843082Y-118117183D01*
X171873362Y-118081263D01*
X171904377Y-118050231D01*
X171931094Y-118029204D01*
X171946404Y-118023013D01*
X171958128Y-118014546D01*
X171958527Y-118011660D01*
X171969207Y-117998315D01*
X171997008Y-117988452D01*
X172035570Y-117983009D01*
X172078536Y-117982925D01*
X172116408Y-117988367D01*
G37*
G36*
X173295798Y-111414739D02*
G01*
X173363533Y-111418364D01*
X173415348Y-111427970D01*
X173458695Y-111446132D01*
X173501025Y-111475425D01*
X173521534Y-111492756D01*
X173566494Y-111542645D01*
X173611098Y-111611439D01*
X173652791Y-111694531D01*
X173689016Y-111787312D01*
X173695135Y-111805858D01*
X173709316Y-111850102D01*
X173722330Y-111890638D01*
X173729248Y-111912134D01*
X173738193Y-111946891D01*
X173746292Y-111989467D01*
X173747962Y-112000698D01*
X173754600Y-112038878D01*
X173762430Y-112070374D01*
X173764919Y-112077453D01*
X173770984Y-112100548D01*
X173778701Y-112141941D01*
X173787354Y-112196430D01*
X173796224Y-112258813D01*
X173804597Y-112323892D01*
X173811754Y-112386463D01*
X173816978Y-112441327D01*
X173818952Y-112469523D01*
X173822005Y-112522195D01*
X173825880Y-112585387D01*
X173829774Y-112646057D01*
X173830046Y-112650163D01*
X173832456Y-112698082D01*
X173834612Y-112762540D01*
X173836331Y-112836463D01*
X173837430Y-112912772D01*
X173837670Y-112945375D01*
X173837563Y-113037728D01*
X173835973Y-113113635D01*
X173832520Y-113180237D01*
X173826823Y-113244680D01*
X173818502Y-113314106D01*
X173817684Y-113320293D01*
X173816917Y-113346253D01*
X173821836Y-113358523D01*
X173822704Y-113358671D01*
X173838368Y-113353352D01*
X173862416Y-113336635D01*
X173896038Y-113307378D01*
X173940426Y-113264438D01*
X173996768Y-113206674D01*
X174066255Y-113132943D01*
X174131284Y-113062594D01*
X174223302Y-112964047D01*
X174303799Y-112881633D01*
X174375630Y-112812746D01*
X174441651Y-112754782D01*
X174504716Y-112705137D01*
X174567681Y-112661204D01*
X174580005Y-112653199D01*
X174626899Y-112622735D01*
X174679403Y-112588123D01*
X174712717Y-112565877D01*
X174747107Y-112543167D01*
X174773077Y-112526831D01*
X174785195Y-112520280D01*
X174785313Y-112520270D01*
X174796976Y-112514577D01*
X174823498Y-112499500D01*
X174859628Y-112478040D01*
X174867892Y-112473036D01*
X174906062Y-112450531D01*
X174936497Y-112433848D01*
X174953590Y-112426034D01*
X174954885Y-112425802D01*
X174970324Y-112420661D01*
X174997422Y-112407850D01*
X175006444Y-112403123D01*
X175063410Y-112378703D01*
X175127023Y-112361205D01*
X175190727Y-112351535D01*
X175247967Y-112350598D01*
X175292187Y-112359300D01*
X175299580Y-112362630D01*
X175325971Y-112374246D01*
X175342789Y-112378496D01*
X175371966Y-112386559D01*
X175407681Y-112406686D01*
X175440919Y-112433167D01*
X175456505Y-112450510D01*
X175477116Y-112473331D01*
X175494621Y-112484593D01*
X175496586Y-112484845D01*
X175511599Y-112494649D01*
X175518778Y-112508462D01*
X175529278Y-112527542D01*
X175537046Y-112532079D01*
X175548837Y-112541514D01*
X175565592Y-112565196D01*
X175572050Y-112576360D01*
X175592983Y-112613201D01*
X175618716Y-112656640D01*
X175631197Y-112677089D01*
X175652428Y-112714950D01*
X175668564Y-112750092D01*
X175673738Y-112765652D01*
X175684577Y-112796409D01*
X175695546Y-112815482D01*
X175709076Y-112838370D01*
X175723265Y-112870717D01*
X175724673Y-112874524D01*
X175737687Y-112909114D01*
X175749254Y-112937693D01*
X175750030Y-112939471D01*
X175758644Y-112964845D01*
X175768614Y-113002250D01*
X175773058Y-113021647D01*
X175782193Y-113057916D01*
X175791368Y-113084893D01*
X175795393Y-113092498D01*
X175802592Y-113110069D01*
X175811335Y-113143081D01*
X175818057Y-113175640D01*
X175827819Y-113226438D01*
X175839876Y-113285594D01*
X175849188Y-113329150D01*
X175861701Y-113401800D01*
X175871805Y-113491796D01*
X175879220Y-113592962D01*
X175883663Y-113699122D01*
X175884854Y-113804101D01*
X175882511Y-113901723D01*
X175878230Y-113966807D01*
X175870413Y-114052558D01*
X175864168Y-114117438D01*
X175859189Y-114164117D01*
X175855169Y-114195265D01*
X175851804Y-114213554D01*
X175849125Y-114221157D01*
X175844830Y-114237385D01*
X175840099Y-114268760D01*
X175837632Y-114291268D01*
X175831391Y-114333725D01*
X175820504Y-114387405D01*
X175807281Y-114440963D01*
X175806751Y-114442888D01*
X175777164Y-114549600D01*
X175753089Y-114635753D01*
X175733894Y-114703590D01*
X175718950Y-114755356D01*
X175718650Y-114756377D01*
X175708910Y-114791917D01*
X175702828Y-114818559D01*
X175701809Y-114826298D01*
X175694559Y-114844058D01*
X175682620Y-114859976D01*
X175667457Y-114888452D01*
X175663432Y-114911308D01*
X175659800Y-114936437D01*
X175653099Y-114947821D01*
X175644765Y-114963470D01*
X175642689Y-114980079D01*
X175636237Y-115007690D01*
X175620717Y-115039142D01*
X175619744Y-115040640D01*
X175605936Y-115066052D01*
X175601951Y-115083048D01*
X175602445Y-115084338D01*
X175600661Y-115100816D01*
X175587301Y-115131150D01*
X175564936Y-115170287D01*
X175538696Y-115209616D01*
X175523171Y-115236808D01*
X175518253Y-115257272D01*
X175519287Y-115260657D01*
X175517359Y-115276929D01*
X175502321Y-115296623D01*
X175484050Y-115319134D01*
X175477448Y-115336776D01*
X175468391Y-115354938D01*
X175448029Y-115373033D01*
X175429002Y-115389374D01*
X175424416Y-115401704D01*
X175424443Y-115401750D01*
X175420022Y-115414462D01*
X175401878Y-115434725D01*
X175393915Y-115441788D01*
X175373596Y-115460658D01*
X175366031Y-115471470D01*
X175367314Y-115472462D01*
X175364104Y-115479852D01*
X175346913Y-115499413D01*
X175319161Y-115527346D01*
X175310150Y-115535974D01*
X175273701Y-115573530D01*
X175241261Y-115612186D01*
X175219584Y-115643863D01*
X175218900Y-115645126D01*
X175193221Y-115689747D01*
X175171421Y-115717280D01*
X175148867Y-115732669D01*
X175131321Y-115738573D01*
X175105875Y-115751645D01*
X175099934Y-115770466D01*
X175108026Y-115783918D01*
X175111586Y-115798481D01*
X175114791Y-115831527D01*
X175117258Y-115877921D01*
X175118498Y-115924635D01*
X175119578Y-115996209D01*
X175120761Y-116076125D01*
X175121855Y-116151394D01*
X175122276Y-116180893D01*
X175120906Y-116267495D01*
X175114999Y-116361089D01*
X175105299Y-116455647D01*
X175092549Y-116545143D01*
X175077495Y-116623550D01*
X175060880Y-116684840D01*
X175059565Y-116688657D01*
X175048384Y-116723350D01*
X175041613Y-116749931D01*
X175040707Y-116756858D01*
X175034992Y-116778228D01*
X175019640Y-116815465D01*
X174996933Y-116864048D01*
X174969152Y-116919457D01*
X174938578Y-116977168D01*
X174907493Y-117032662D01*
X174878178Y-117081417D01*
X174872292Y-117090636D01*
X174805835Y-117179691D01*
X174717620Y-117274864D01*
X174684225Y-117307171D01*
X174630407Y-117356970D01*
X174588234Y-117392985D01*
X174553096Y-117418567D01*
X174520382Y-117437065D01*
X174485483Y-117451828D01*
X174484776Y-117452092D01*
X174434462Y-117472141D01*
X174375878Y-117497429D01*
X174322222Y-117522238D01*
X174278177Y-117544740D01*
X174252811Y-117561255D01*
X174242802Y-117574386D01*
X174243524Y-117583966D01*
X174257425Y-117622559D01*
X174271766Y-117667892D01*
X174284432Y-117712547D01*
X174293309Y-117749108D01*
X174296312Y-117769131D01*
X174299881Y-117791330D01*
X174309305Y-117828479D01*
X174322683Y-117873222D01*
X174325298Y-117881312D01*
X174349636Y-117955873D01*
X174367794Y-118011994D01*
X174381011Y-118053654D01*
X174390526Y-118084833D01*
X174397579Y-118109511D01*
X174403409Y-118131670D01*
X174404053Y-118134220D01*
X174410183Y-118167259D01*
X174410890Y-118191628D01*
X174410032Y-118195237D01*
X174414065Y-118211481D01*
X174422085Y-118216792D01*
X174433309Y-118229128D01*
X174431635Y-118236802D01*
X174432126Y-118253763D01*
X174436889Y-118258308D01*
X174447535Y-118273330D01*
X174460675Y-118307413D01*
X174476668Y-118361732D01*
X174495874Y-118437461D01*
X174509478Y-118495351D01*
X174521389Y-118544000D01*
X174532978Y-118585947D01*
X174542262Y-118614174D01*
X174544512Y-118619340D01*
X174553273Y-118646380D01*
X174559737Y-118683240D01*
X174560553Y-118691381D01*
X174564493Y-118724426D01*
X174569299Y-118747165D01*
X174570635Y-118750424D01*
X174576372Y-118766657D01*
X174585525Y-118798770D01*
X174595604Y-118837797D01*
X174609569Y-118894104D01*
X174625012Y-118956048D01*
X174633844Y-118991307D01*
X174646150Y-119042706D01*
X174657810Y-119095354D01*
X174664227Y-119127104D01*
X174675748Y-119185894D01*
X174687860Y-119243643D01*
X174698795Y-119292118D01*
X174704780Y-119316040D01*
X174711724Y-119344573D01*
X174717995Y-119378102D01*
X174724914Y-119424126D01*
X174728716Y-119451837D01*
X174739256Y-119502378D01*
X174756002Y-119556472D01*
X174765013Y-119579115D01*
X174780489Y-119620119D01*
X174790482Y-119658079D01*
X174792558Y-119675837D01*
X174795793Y-119702664D01*
X174803005Y-119716686D01*
X174812736Y-119732011D01*
X174819768Y-119755760D01*
X174827452Y-119791126D01*
X174839870Y-119843428D01*
X174855562Y-119906810D01*
X174873068Y-119975419D01*
X174890928Y-120043399D01*
X174898571Y-120071781D01*
X174911928Y-120122017D01*
X174923872Y-120168820D01*
X174932152Y-120203331D01*
X174933085Y-120207578D01*
X174943220Y-120243787D01*
X174955450Y-120274026D01*
X174955796Y-120274678D01*
X174965162Y-120298273D01*
X174977321Y-120337240D01*
X174989914Y-120383904D01*
X174992101Y-120392763D01*
X175003437Y-120438509D01*
X175013273Y-120476625D01*
X175019818Y-120500210D01*
X175020648Y-120502790D01*
X175027744Y-120527492D01*
X175033870Y-120552976D01*
X175040985Y-120585449D01*
X174958326Y-120585449D01*
X174914991Y-120584980D01*
X174889629Y-120582219D01*
X174876597Y-120575136D01*
X174870252Y-120561702D01*
X174868060Y-120552976D01*
X174861659Y-120528050D01*
X174850522Y-120486970D01*
X174836439Y-120436276D01*
X174826505Y-120401101D01*
X174812307Y-120348968D01*
X174801026Y-120303366D01*
X174794080Y-120270283D01*
X174792558Y-120257893D01*
X174784233Y-120230822D01*
X174774845Y-120219387D01*
X174760164Y-120196018D01*
X174757132Y-120179397D01*
X174753027Y-120154669D01*
X174742452Y-120117677D01*
X174732495Y-120089327D01*
X174717091Y-120046700D01*
X174704159Y-120007250D01*
X174698913Y-119988829D01*
X174689743Y-119957783D01*
X174675637Y-119915791D01*
X174664901Y-119886113D01*
X174650198Y-119842354D01*
X174639042Y-119801065D01*
X174635115Y-119780130D01*
X174629873Y-119747486D01*
X174623865Y-119723520D01*
X174623832Y-119723431D01*
X174615318Y-119694547D01*
X174605170Y-119652178D01*
X174595475Y-119606075D01*
X174588321Y-119565992D01*
X174585914Y-119546305D01*
X174580844Y-119515295D01*
X174570922Y-119477653D01*
X174569107Y-119472015D01*
X174561114Y-119438983D01*
X174560019Y-119413465D01*
X174560968Y-119409702D01*
X174561638Y-119388257D01*
X174555289Y-119355369D01*
X174551418Y-119342290D01*
X174536733Y-119288430D01*
X174522714Y-119221983D01*
X174511408Y-119153936D01*
X174504864Y-119095278D01*
X174504597Y-119091155D01*
X174500990Y-119057751D01*
X174495585Y-119034227D01*
X174494071Y-119030986D01*
X174487678Y-119012344D01*
X174480741Y-118980276D01*
X174478453Y-118966564D01*
X174471154Y-118931456D01*
X174462338Y-118905504D01*
X174459292Y-118900309D01*
X174453183Y-118881197D01*
X174455150Y-118874624D01*
X174456694Y-118855849D01*
X174451492Y-118835730D01*
X174435187Y-118788371D01*
X174420900Y-118737189D01*
X174411596Y-118693194D01*
X174410115Y-118682033D01*
X174402440Y-118651321D01*
X174392478Y-118632846D01*
X174382912Y-118610595D01*
X174376585Y-118576178D01*
X174375692Y-118564248D01*
X174369109Y-118524427D01*
X174355556Y-118493757D01*
X174352692Y-118490173D01*
X174335722Y-118460424D01*
X174330279Y-118437035D01*
X174324814Y-118380534D01*
X174320569Y-118359554D01*
X174319113Y-118338704D01*
X174319313Y-118337411D01*
X174313900Y-118321133D01*
X174304396Y-118307890D01*
X174287782Y-118281696D01*
X174275138Y-118249847D01*
X174270614Y-118223481D01*
X174271269Y-118218935D01*
X174265656Y-118203870D01*
X174260705Y-118199848D01*
X174253310Y-118186516D01*
X174241646Y-118156148D01*
X174227499Y-118114536D01*
X174212654Y-118067472D01*
X174198896Y-118020749D01*
X174188012Y-117980158D01*
X174181786Y-117951491D01*
X174181135Y-117941711D01*
X174178902Y-117927020D01*
X174171467Y-117898081D01*
X174166562Y-117881312D01*
X174156063Y-117843269D01*
X174148821Y-117810743D01*
X174147520Y-117802242D01*
X174139271Y-117769592D01*
X174132040Y-117752832D01*
X174122352Y-117722920D01*
X174119294Y-117696105D01*
X174116339Y-117660708D01*
X174105593Y-117642815D01*
X174083515Y-117641097D01*
X174046561Y-117654226D01*
X174029043Y-117662279D01*
X173973117Y-117684306D01*
X173922796Y-117695757D01*
X173882858Y-117696027D01*
X173858081Y-117684515D01*
X173857581Y-117683932D01*
X173843949Y-117674210D01*
X173827375Y-117682980D01*
X173825523Y-117684558D01*
X173802517Y-117698858D01*
X173767723Y-117714826D01*
X173729286Y-117729385D01*
X173695351Y-117739459D01*
X173674065Y-117741971D01*
X173673706Y-117741897D01*
X173660159Y-117744943D01*
X173658945Y-117748666D01*
X173648186Y-117756682D01*
X173619195Y-117768022D01*
X173576904Y-117781400D01*
X173526245Y-117795529D01*
X173472147Y-117809124D01*
X173419544Y-117820899D01*
X173373365Y-117829567D01*
X173338542Y-117833843D01*
X173331461Y-117834078D01*
X173296223Y-117840794D01*
X173271752Y-117852559D01*
X173232770Y-117873592D01*
X173178157Y-117894760D01*
X173113460Y-117914765D01*
X173044228Y-117932311D01*
X172976007Y-117946103D01*
X172914345Y-117954844D01*
X172864791Y-117957237D01*
X172838148Y-117953874D01*
X172801290Y-117949597D01*
X172774632Y-117953985D01*
X172742514Y-117956837D01*
X172728644Y-117949393D01*
X172710627Y-117937657D01*
X172703597Y-117935898D01*
X172686951Y-117934202D01*
X172684747Y-117933552D01*
X172657712Y-117927816D01*
X172613778Y-117921553D01*
X172559630Y-117915421D01*
X172501958Y-117910073D01*
X172447448Y-117906167D01*
X172402787Y-117904357D01*
X172387394Y-117904408D01*
X172331532Y-117902234D01*
X172283394Y-117890156D01*
X172250457Y-117876137D01*
X172210581Y-117859559D01*
X172174886Y-117848572D01*
X172157147Y-117845886D01*
X172131207Y-117842636D01*
X172118925Y-117837030D01*
X172103851Y-117827794D01*
X172102197Y-117827507D01*
X172065079Y-117820668D01*
X172023000Y-117807972D01*
X171988853Y-117793442D01*
X171984071Y-117790645D01*
X171962041Y-117779849D01*
X171950337Y-117779289D01*
X171937135Y-117778231D01*
X171909324Y-117769148D01*
X171882114Y-117757975D01*
X171837291Y-117741572D01*
X171781775Y-117725943D01*
X171732818Y-117715470D01*
X171685171Y-117705870D01*
X171642760Y-117694931D01*
X171614467Y-117684955D01*
X171613716Y-117684590D01*
X171585702Y-117671904D01*
X171572715Y-117672129D01*
X171569014Y-117686927D01*
X171568848Y-117697583D01*
X171564494Y-117722587D01*
X171557039Y-117733706D01*
X171548867Y-117749502D01*
X171545241Y-117777765D01*
X171545231Y-117779397D01*
X171540886Y-117810472D01*
X171529564Y-117853249D01*
X171515710Y-117893120D01*
X171500511Y-117936098D01*
X171489854Y-117974244D01*
X171486188Y-117997645D01*
X171482692Y-118025031D01*
X171473476Y-118067125D01*
X171460447Y-118116282D01*
X171445515Y-118164860D01*
X171441531Y-118176523D01*
X171437394Y-118203991D01*
X171437882Y-118214901D01*
X171434909Y-118232311D01*
X171429364Y-118235565D01*
X171420624Y-118245585D01*
X171418046Y-118262134D01*
X171413874Y-118289219D01*
X171403651Y-118326280D01*
X171398306Y-118341841D01*
X171384407Y-118380692D01*
X171366912Y-118430905D01*
X171350093Y-118480183D01*
X171332437Y-118530376D01*
X171313973Y-118579418D01*
X171299001Y-118615980D01*
X171280994Y-118661651D01*
X171264852Y-118710388D01*
X171262206Y-118719712D01*
X171249625Y-118761173D01*
X171235917Y-118799472D01*
X171232266Y-118808276D01*
X171219146Y-118843466D01*
X171211051Y-118873222D01*
X171205028Y-118894968D01*
X171192530Y-118933799D01*
X171175252Y-118984643D01*
X171154888Y-119042427D01*
X171149915Y-119056253D01*
X171128719Y-119115618D01*
X171109793Y-119169869D01*
X171094961Y-119213693D01*
X171086046Y-119241775D01*
X171085093Y-119245189D01*
X171074710Y-119277111D01*
X171058967Y-119318066D01*
X171050347Y-119338470D01*
X171033205Y-119381248D01*
X171018895Y-119423200D01*
X171014517Y-119438842D01*
X171005166Y-119471723D01*
X170989940Y-119519977D01*
X170971137Y-119576820D01*
X170951056Y-119635468D01*
X170931998Y-119689137D01*
X170916263Y-119731044D01*
X170911441Y-119742929D01*
X170900664Y-119772406D01*
X170895790Y-119793434D01*
X170895765Y-119794282D01*
X170890998Y-119814077D01*
X170878791Y-119847054D01*
X170862289Y-119885284D01*
X170848347Y-119913865D01*
X170839443Y-119938236D01*
X170831034Y-119972145D01*
X170830288Y-119975990D01*
X170822387Y-120005839D01*
X170813304Y-120024056D01*
X170811768Y-120025375D01*
X170802551Y-120041437D01*
X170801225Y-120051813D01*
X170795895Y-120076006D01*
X170783171Y-120106262D01*
X170783082Y-120106433D01*
X170767272Y-120143275D01*
X170754638Y-120183188D01*
X170745069Y-120215640D01*
X170729929Y-120260350D01*
X170712485Y-120307671D01*
X170712378Y-120307950D01*
X170695795Y-120352735D01*
X170682270Y-120392524D01*
X170674584Y-120419108D01*
X170674364Y-120420131D01*
X170666510Y-120447379D01*
X170659844Y-120461460D01*
X170651996Y-120479179D01*
X170641573Y-120510796D01*
X170636277Y-120529359D01*
X170621102Y-120585449D01*
X170535464Y-120585449D01*
X170449827Y-120585449D01*
X170465630Y-120541167D01*
X170475940Y-120509304D01*
X170481614Y-120486040D01*
X170481951Y-120482894D01*
X170486537Y-120462484D01*
X170496055Y-120435660D01*
X170510151Y-120399316D01*
X170529576Y-120346741D01*
X170552124Y-120284088D01*
X170575594Y-120217509D01*
X170597783Y-120153159D01*
X170607314Y-120124919D01*
X170623040Y-120079723D01*
X170637529Y-120041193D01*
X170648019Y-120016617D01*
X170649206Y-120014353D01*
X170661885Y-119984175D01*
X170665979Y-119968925D01*
X170672225Y-119946566D01*
X170684728Y-119908356D01*
X170701285Y-119860493D01*
X170719690Y-119809173D01*
X170737738Y-119760595D01*
X170753224Y-119720955D01*
X170759626Y-119705719D01*
X170771510Y-119674756D01*
X170785887Y-119631957D01*
X170795839Y-119599443D01*
X170810798Y-119551916D01*
X170827170Y-119505476D01*
X170836723Y-119481358D01*
X170850207Y-119447066D01*
X170867378Y-119399562D01*
X170884882Y-119348173D01*
X170887670Y-119339656D01*
X170919240Y-119243559D01*
X170950517Y-119150160D01*
X170980020Y-119063767D01*
X171006269Y-118988686D01*
X171027783Y-118929226D01*
X171037841Y-118902743D01*
X171064761Y-118830060D01*
X171082160Y-118773388D01*
X171089551Y-118740377D01*
X171097023Y-118711988D01*
X171105535Y-118696861D01*
X171107512Y-118696095D01*
X171114925Y-118685569D01*
X171122505Y-118658838D01*
X171125668Y-118641260D01*
X171136126Y-118594489D01*
X171151720Y-118547424D01*
X171155731Y-118537936D01*
X171169172Y-118504252D01*
X171186131Y-118456353D01*
X171203648Y-118402734D01*
X171209670Y-118383171D01*
X171230143Y-118320693D01*
X171255007Y-118252409D01*
X171279436Y-118191463D01*
X171283352Y-118182427D01*
X171305591Y-118125940D01*
X171325667Y-118064596D01*
X171339613Y-118010654D01*
X171340679Y-118005300D01*
X171349411Y-117960434D01*
X171357175Y-117922257D01*
X171362289Y-117899030D01*
X171362291Y-117899024D01*
X171367235Y-117874181D01*
X171373519Y-117836221D01*
X171377342Y-117810461D01*
X171384348Y-117771055D01*
X171392444Y-117739836D01*
X171397239Y-117728301D01*
X171407703Y-117701941D01*
X171410654Y-117686971D01*
X171418031Y-117659349D01*
X171431454Y-117628276D01*
X171442485Y-117602447D01*
X171444888Y-117586288D01*
X171444599Y-117585680D01*
X171430997Y-117579851D01*
X171401583Y-117573675D01*
X171379007Y-117570481D01*
X171340996Y-117563880D01*
X171311576Y-117555044D01*
X171302447Y-117550085D01*
X171294119Y-117543697D01*
X171282206Y-117535983D01*
X171263413Y-117525110D01*
X171234446Y-117509246D01*
X171192011Y-117486559D01*
X171132812Y-117455216D01*
X171114222Y-117445398D01*
X171039231Y-117405125D01*
X170981488Y-117372430D01*
X170936851Y-117344881D01*
X170902636Y-117321128D01*
X170873202Y-117301646D01*
X170831889Y-117277128D01*
X170790406Y-117254364D01*
X170740257Y-117224365D01*
X170688176Y-117187482D01*
X170654201Y-117159406D01*
X170620654Y-117124814D01*
X170583147Y-117079912D01*
X170545107Y-117029595D01*
X170509962Y-116978758D01*
X170481139Y-116932294D01*
X170462066Y-116895099D01*
X170456294Y-116876796D01*
X170449067Y-116847377D01*
X170442087Y-116831679D01*
X170434376Y-116809586D01*
X170428606Y-116776296D01*
X170427968Y-116769790D01*
X170420490Y-116731630D01*
X170407355Y-116698886D01*
X170405661Y-116696137D01*
X170396037Y-116680327D01*
X170388669Y-116663634D01*
X170381829Y-116640294D01*
X170373786Y-116604544D01*
X170364445Y-116558764D01*
X170351359Y-116495280D01*
X170341073Y-116450435D01*
X170332258Y-116419614D01*
X170323583Y-116398204D01*
X170313720Y-116381590D01*
X170313156Y-116380779D01*
X170300106Y-116350368D01*
X170293383Y-116311791D01*
X170293158Y-116305207D01*
X170288529Y-116268292D01*
X170277592Y-116238094D01*
X170274919Y-116234031D01*
X170262547Y-116201029D01*
X170264343Y-116167203D01*
X170262609Y-116113181D01*
X170252757Y-116087495D01*
X170243184Y-116059769D01*
X170233272Y-116015907D01*
X170224566Y-115963312D01*
X170221127Y-115935866D01*
X170214840Y-115879070D01*
X170208827Y-115824639D01*
X170204038Y-115781197D01*
X170202544Y-115767597D01*
X170199021Y-115727627D01*
X170197335Y-115692705D01*
X170197326Y-115684938D01*
X170198255Y-115633776D01*
X170199028Y-115580163D01*
X170199575Y-115530594D01*
X170199823Y-115491564D01*
X170199701Y-115469571D01*
X170199697Y-115469433D01*
X170189410Y-115451958D01*
X170176459Y-115448769D01*
X170156335Y-115441002D01*
X170123619Y-115419897D01*
X170082484Y-115388747D01*
X170037107Y-115350845D01*
X169991662Y-115309483D01*
X169959686Y-115277800D01*
X169927727Y-115239885D01*
X169894927Y-115193552D01*
X169877933Y-115165619D01*
X169851632Y-115123254D01*
X169822520Y-115083370D01*
X169804807Y-115062966D01*
X169735349Y-114977961D01*
X169672131Y-114870800D01*
X169615006Y-114741208D01*
X169581389Y-114645793D01*
X169564947Y-114592879D01*
X169552305Y-114545734D01*
X169542656Y-114499166D01*
X169535192Y-114447986D01*
X169529107Y-114387003D01*
X169523594Y-114311028D01*
X169519881Y-114250223D01*
X169516656Y-114171743D01*
X169515146Y-114080937D01*
X169515157Y-114070489D01*
X169666255Y-114070489D01*
X169668428Y-114209877D01*
X169676155Y-114330637D01*
X169690268Y-114437280D01*
X169711603Y-114534321D01*
X169740992Y-114626270D01*
X169779269Y-114717640D01*
X169790005Y-114740261D01*
X169822011Y-114802959D01*
X169858205Y-114868356D01*
X169896192Y-114932678D01*
X169933579Y-114992153D01*
X169967972Y-115043006D01*
X169996978Y-115081463D01*
X170018201Y-115103753D01*
X170022371Y-115106554D01*
X170040911Y-115122476D01*
X170045556Y-115133912D01*
X170053946Y-115147351D01*
X170076142Y-115171686D01*
X170107682Y-115202844D01*
X170144105Y-115236752D01*
X170180949Y-115269337D01*
X170213754Y-115296526D01*
X170238056Y-115314246D01*
X170248165Y-115318875D01*
X170255848Y-115327368D01*
X170254390Y-115335149D01*
X170256494Y-115357083D01*
X170274668Y-115373721D01*
X170292943Y-115377845D01*
X170316260Y-115372548D01*
X170343401Y-115360998D01*
X170375555Y-115344224D01*
X170369522Y-115440778D01*
X170365852Y-115514903D01*
X170363602Y-115593724D01*
X170362720Y-115673025D01*
X170363156Y-115748586D01*
X170364858Y-115816188D01*
X170367775Y-115871615D01*
X170371856Y-115910647D01*
X170375412Y-115926043D01*
X170384299Y-115957807D01*
X170392088Y-116000917D01*
X170395165Y-116026415D01*
X170401294Y-116073990D01*
X170410886Y-116130726D01*
X170419855Y-116174989D01*
X170432219Y-116230297D01*
X170445368Y-116288994D01*
X170454237Y-116328499D01*
X170462895Y-116371081D01*
X170468782Y-116407807D01*
X170470415Y-116425919D01*
X170475572Y-116446655D01*
X170483846Y-116452488D01*
X170491990Y-116462515D01*
X170490848Y-116484831D01*
X170490877Y-116515829D01*
X170498273Y-116555438D01*
X170502780Y-116570442D01*
X170513723Y-116615911D01*
X170519856Y-116667381D01*
X170520364Y-116685705D01*
X170521323Y-116722521D01*
X170526231Y-116741287D01*
X170536914Y-116747475D01*
X170541035Y-116747699D01*
X170568325Y-116757498D01*
X170583990Y-116781073D01*
X170583679Y-116804101D01*
X170586650Y-116828087D01*
X170610775Y-116856601D01*
X170611616Y-116857353D01*
X170637659Y-116889547D01*
X170658001Y-116929980D01*
X170660993Y-116939135D01*
X170676861Y-116981084D01*
X170700750Y-117016387D01*
X170737328Y-117050482D01*
X170787001Y-117085991D01*
X170821496Y-117111526D01*
X170847737Y-117135808D01*
X170858767Y-117151182D01*
X170874379Y-117170770D01*
X170902004Y-117189407D01*
X170933756Y-117203477D01*
X170961748Y-117209365D01*
X170976692Y-117205239D01*
X170994814Y-117199395D01*
X171004493Y-117204804D01*
X171029535Y-117221650D01*
X171065069Y-117242069D01*
X171104223Y-117262542D01*
X171140129Y-117279553D01*
X171165917Y-117289585D01*
X171172626Y-117290888D01*
X171188743Y-117297221D01*
X171190977Y-117302989D01*
X171200752Y-117315681D01*
X171220498Y-117326314D01*
X171242387Y-117338461D01*
X171250019Y-117349101D01*
X171259864Y-117358491D01*
X171285435Y-117374270D01*
X171320784Y-117393440D01*
X171359964Y-117413006D01*
X171397028Y-117429972D01*
X171426029Y-117441342D01*
X171439189Y-117444398D01*
X171456823Y-117449212D01*
X171486486Y-117461357D01*
X171500785Y-117468015D01*
X171537995Y-117482699D01*
X171572168Y-117490966D01*
X171580906Y-117491632D01*
X171613626Y-117501485D01*
X171646587Y-117526730D01*
X171672966Y-117549018D01*
X171696274Y-117561328D01*
X171701185Y-117562155D01*
X171719494Y-117565120D01*
X171755893Y-117573032D01*
X171805641Y-117584796D01*
X171863996Y-117599315D01*
X171884216Y-117604493D01*
X171945400Y-117620038D01*
X172000522Y-117633607D01*
X172044495Y-117643979D01*
X172072233Y-117649934D01*
X172076612Y-117650674D01*
X172100130Y-117653991D01*
X172140839Y-117659730D01*
X172192545Y-117667015D01*
X172237002Y-117673278D01*
X172280739Y-117678635D01*
X172339976Y-117684724D01*
X172411323Y-117691301D01*
X172491394Y-117698122D01*
X172576800Y-117704943D01*
X172664154Y-117711521D01*
X172750067Y-117717612D01*
X172831153Y-117722971D01*
X172904023Y-117727356D01*
X172965290Y-117730522D01*
X173011566Y-117732225D01*
X173039462Y-117732222D01*
X173045575Y-117731467D01*
X173059740Y-117729460D01*
X173091063Y-117726229D01*
X173133156Y-117722424D01*
X173139373Y-117721897D01*
X173182839Y-117717652D01*
X173216773Y-117713237D01*
X173234580Y-117709530D01*
X173235350Y-117709156D01*
X173251238Y-117705132D01*
X173282521Y-117700659D01*
X173306871Y-117698140D01*
X173357247Y-117691822D01*
X173417925Y-117681428D01*
X173484003Y-117668118D01*
X173550582Y-117653054D01*
X173612762Y-117637395D01*
X173665643Y-117622301D01*
X173704325Y-117608932D01*
X173722460Y-117599731D01*
X173736769Y-117592693D01*
X173763725Y-117585479D01*
X173807127Y-117577232D01*
X173859689Y-117568784D01*
X173898586Y-117559817D01*
X173931379Y-117547090D01*
X173951225Y-117533605D01*
X173954157Y-117527350D01*
X173964367Y-117518658D01*
X173987524Y-117515249D01*
X174023850Y-117504915D01*
X174048625Y-117485728D01*
X174080678Y-117462653D01*
X174113442Y-117456871D01*
X174139105Y-117468751D01*
X174154956Y-117472159D01*
X174184683Y-117462224D01*
X174215449Y-117446778D01*
X174264007Y-117423472D01*
X174317350Y-117402178D01*
X174344016Y-117393404D01*
X174391922Y-117375132D01*
X174439840Y-117350208D01*
X174458969Y-117337601D01*
X174492960Y-117311473D01*
X174507378Y-117297405D01*
X174502639Y-117294878D01*
X174489794Y-117299059D01*
X174477491Y-117301282D01*
X174479260Y-117292669D01*
X174495969Y-117272229D01*
X174528484Y-117238971D01*
X174577673Y-117191901D01*
X174609455Y-117162263D01*
X174661832Y-117112518D01*
X174700942Y-117071622D01*
X174731745Y-117033405D01*
X174759200Y-116991697D01*
X174788267Y-116940327D01*
X174789165Y-116938668D01*
X174855981Y-116794915D01*
X174910423Y-116635294D01*
X174950761Y-116465015D01*
X174956196Y-116434775D01*
X174968207Y-116360605D01*
X174978628Y-116288490D01*
X174986970Y-116222634D01*
X174992747Y-116167238D01*
X174995472Y-116126505D01*
X174994658Y-116104637D01*
X174994522Y-116104138D01*
X174991880Y-116086706D01*
X174988617Y-116053646D01*
X174986115Y-116021479D01*
X174981988Y-115974679D01*
X174976673Y-115930655D01*
X174973230Y-115909298D01*
X174965395Y-115867987D01*
X174960392Y-115838745D01*
X174956444Y-115810482D01*
X174953351Y-115785310D01*
X174948602Y-115735285D01*
X174945488Y-115682114D01*
X174944580Y-115636840D01*
X174944973Y-115623236D01*
X174949519Y-115609809D01*
X174965335Y-115610532D01*
X174976357Y-115614379D01*
X175011912Y-115624045D01*
X175039239Y-115624515D01*
X175052059Y-115615855D01*
X175052344Y-115613583D01*
X175059640Y-115596429D01*
X175079182Y-115566358D01*
X175107444Y-115528037D01*
X175140903Y-115486130D01*
X175176037Y-115445304D01*
X175194652Y-115425152D01*
X175231019Y-115385107D01*
X175268203Y-115341274D01*
X175286023Y-115318875D01*
X175313575Y-115285133D01*
X175339765Y-115256609D01*
X175351914Y-115245335D01*
X175365746Y-115230809D01*
X175363589Y-115224670D01*
X175360323Y-115215624D01*
X175366802Y-115193320D01*
X175380177Y-115164475D01*
X175397598Y-115135809D01*
X175405936Y-115124832D01*
X175422441Y-115100068D01*
X175441595Y-115064615D01*
X175459639Y-115026391D01*
X175472812Y-114993316D01*
X175477399Y-114974321D01*
X175485346Y-114949932D01*
X175495161Y-114936787D01*
X175509800Y-114914804D01*
X175512874Y-114902333D01*
X175517891Y-114880629D01*
X175530021Y-114851227D01*
X175530586Y-114850085D01*
X175546264Y-114815342D01*
X175565213Y-114768667D01*
X175584592Y-114717646D01*
X175601556Y-114669865D01*
X175613265Y-114632909D01*
X175615988Y-114622176D01*
X175625472Y-114593336D01*
X175634226Y-114577609D01*
X175640937Y-114560837D01*
X175638961Y-114555392D01*
X175638317Y-114540804D01*
X175645222Y-114523204D01*
X175657541Y-114490670D01*
X175662113Y-114468666D01*
X175666408Y-114440318D01*
X175673626Y-114399994D01*
X175678647Y-114374199D01*
X175687127Y-114329970D01*
X175694292Y-114289009D01*
X175696931Y-114271899D01*
X175702390Y-114236859D01*
X175709898Y-114193328D01*
X175712774Y-114177624D01*
X175717859Y-114142615D01*
X175718849Y-114117504D01*
X175717496Y-114111135D01*
X175718414Y-114094707D01*
X175722800Y-114087326D01*
X175726730Y-114082661D01*
X175729752Y-114077989D01*
X175732007Y-114070411D01*
X175733640Y-114057028D01*
X175734793Y-114034941D01*
X175735609Y-114001249D01*
X175736230Y-113953054D01*
X175736800Y-113887457D01*
X175737460Y-113801557D01*
X175737571Y-113787463D01*
X175737803Y-113712510D01*
X175737333Y-113645331D01*
X175736242Y-113589596D01*
X175734611Y-113548972D01*
X175732522Y-113527125D01*
X175731772Y-113524705D01*
X175726676Y-113506703D01*
X175721665Y-113473422D01*
X175718829Y-113444262D01*
X175713486Y-113391049D01*
X175705904Y-113334264D01*
X175702198Y-113311437D01*
X175693914Y-113262550D01*
X175686012Y-113212899D01*
X175683096Y-113193352D01*
X175676627Y-113158605D01*
X175669334Y-113133593D01*
X175666672Y-113128406D01*
X175658481Y-113109232D01*
X175650824Y-113079245D01*
X175650628Y-113078220D01*
X175641049Y-113043392D01*
X175625682Y-113001764D01*
X175619445Y-112987353D01*
X175605295Y-112952902D01*
X175596716Y-112925483D01*
X175595533Y-112917505D01*
X175589939Y-112898368D01*
X175575093Y-112864538D01*
X175553895Y-112821569D01*
X175529248Y-112775017D01*
X175504053Y-112730437D01*
X175481213Y-112693385D01*
X175470177Y-112677520D01*
X175452062Y-112651300D01*
X175442031Y-112632856D01*
X175441376Y-112630286D01*
X175431616Y-112618752D01*
X175407117Y-112599528D01*
X175373767Y-112576434D01*
X175337448Y-112553290D01*
X175304046Y-112533916D01*
X175279445Y-112522133D01*
X175271895Y-112520270D01*
X175251620Y-112513229D01*
X175247183Y-112508462D01*
X175227662Y-112497607D01*
X175192655Y-112496585D01*
X175147772Y-112504606D01*
X175098621Y-112520880D01*
X175071517Y-112533205D01*
X175017908Y-112561450D01*
X174957247Y-112595246D01*
X174894697Y-112631519D01*
X174835422Y-112667197D01*
X174784586Y-112699207D01*
X174747353Y-112724474D01*
X174737292Y-112732112D01*
X174696186Y-112764127D01*
X174655320Y-112794148D01*
X174619517Y-112818827D01*
X174593596Y-112834815D01*
X174583288Y-112839099D01*
X174572685Y-112847166D01*
X174547968Y-112869832D01*
X174511519Y-112904791D01*
X174465717Y-112949738D01*
X174412944Y-113002370D01*
X174372889Y-113042795D01*
X174308918Y-113106817D01*
X174242892Y-113171403D01*
X174179015Y-113232545D01*
X174121493Y-113286238D01*
X174074530Y-113328473D01*
X174060131Y-113340851D01*
X174007166Y-113386374D01*
X173951813Y-113435361D01*
X173901584Y-113481094D01*
X173871897Y-113509122D01*
X173837091Y-113541879D01*
X173808358Y-113567193D01*
X173790033Y-113581320D01*
X173786286Y-113583032D01*
X173777285Y-113592088D01*
X173777030Y-113594840D01*
X173786594Y-113605316D01*
X173794743Y-113606649D01*
X173810460Y-113612828D01*
X173812455Y-113618086D01*
X173803865Y-113623883D01*
X173783398Y-113618942D01*
X173759009Y-113605352D01*
X173756365Y-113603370D01*
X173743964Y-113599551D01*
X173741605Y-113609248D01*
X173736513Y-113627456D01*
X173723015Y-113660188D01*
X173703776Y-113701106D01*
X173698791Y-113711066D01*
X173673906Y-113756767D01*
X173654396Y-113783708D01*
X173637540Y-113795311D01*
X173630892Y-113796426D01*
X173601601Y-113798465D01*
X173565530Y-113802228D01*
X173564423Y-113802364D01*
X173535220Y-113803328D01*
X173518572Y-113792715D01*
X173506166Y-113769342D01*
X173498482Y-113748404D01*
X173496001Y-113727162D01*
X173499136Y-113699210D01*
X173508306Y-113658144D01*
X173515128Y-113631287D01*
X173527806Y-113580812D01*
X173532842Y-113548077D01*
X173528120Y-113527858D01*
X173511521Y-113514935D01*
X173480926Y-113504083D01*
X173461157Y-113498227D01*
X173430869Y-113487144D01*
X173413004Y-113476469D01*
X173410968Y-113472914D01*
X173402170Y-113467483D01*
X173391758Y-113469792D01*
X173368170Y-113470881D01*
X173359285Y-113466760D01*
X173335670Y-113456749D01*
X173328308Y-113455845D01*
X173306982Y-113453026D01*
X173272469Y-113446420D01*
X173251553Y-113441852D01*
X173209416Y-113432870D01*
X173155609Y-113422259D01*
X173101752Y-113412310D01*
X173101550Y-113412274D01*
X173056588Y-113403606D01*
X173020196Y-113395286D01*
X172999097Y-113388879D01*
X172997353Y-113387995D01*
X172976155Y-113380457D01*
X172952516Y-113376074D01*
X172907418Y-113370113D01*
X172853630Y-113362098D01*
X172798630Y-113353245D01*
X172749896Y-113344770D01*
X172714906Y-113337890D01*
X172708364Y-113336358D01*
X172677637Y-113331916D01*
X172628752Y-113328578D01*
X172567145Y-113326366D01*
X172498251Y-113325304D01*
X172427504Y-113325414D01*
X172360340Y-113326719D01*
X172302194Y-113329241D01*
X172258500Y-113333005D01*
X172248715Y-113334431D01*
X172207325Y-113343159D01*
X172155661Y-113356578D01*
X172098145Y-113373230D01*
X172039199Y-113391662D01*
X171983243Y-113410418D01*
X171934700Y-113428043D01*
X171897990Y-113443083D01*
X171877535Y-113454081D01*
X171874789Y-113457488D01*
X171874596Y-113475172D01*
X171875084Y-113509473D01*
X171876149Y-113553405D01*
X171876323Y-113559415D01*
X171877893Y-113618232D01*
X171878127Y-113660069D01*
X171876459Y-113691549D01*
X171872326Y-113719298D01*
X171865163Y-113749937D01*
X171857704Y-113777907D01*
X171841563Y-113826391D01*
X171822681Y-113855029D01*
X171796933Y-113867553D01*
X171760193Y-113867693D01*
X171758604Y-113867513D01*
X171713430Y-113852720D01*
X171682806Y-113822593D01*
X171671888Y-113792101D01*
X171669567Y-113762888D01*
X171671904Y-113744491D01*
X171672081Y-113744171D01*
X171674909Y-113728500D01*
X171677385Y-113695232D01*
X171679119Y-113650387D01*
X171679531Y-113629599D01*
X171681028Y-113525111D01*
X171594510Y-113571784D01*
X171554347Y-113593166D01*
X171522864Y-113609395D01*
X171505215Y-113617832D01*
X171503290Y-113618457D01*
X171502099Y-113608372D01*
X171505526Y-113583825D01*
X171506045Y-113581171D01*
X171509497Y-113556086D01*
X171503409Y-113548097D01*
X171488037Y-113550544D01*
X171467039Y-113550532D01*
X171462572Y-113540597D01*
X171454463Y-113525628D01*
X171448301Y-113523989D01*
X171433303Y-113516013D01*
X171408074Y-113495166D01*
X171379994Y-113467899D01*
X171343142Y-113435262D01*
X171294228Y-113399366D01*
X171242588Y-113366949D01*
X171231898Y-113361013D01*
X171184899Y-113335269D01*
X171141679Y-113310965D01*
X171109534Y-113292222D01*
X171102413Y-113287843D01*
X171062115Y-113263256D01*
X171008679Y-113231838D01*
X170949733Y-113198009D01*
X170892906Y-113166188D01*
X170883957Y-113161269D01*
X170849482Y-113141533D01*
X170821778Y-113124189D01*
X170813106Y-113117981D01*
X170792702Y-113105040D01*
X170759640Y-113087268D01*
X170736351Y-113075807D01*
X170689668Y-113051431D01*
X170641151Y-113022773D01*
X170624171Y-113011709D01*
X170593736Y-112991855D01*
X170571877Y-112979127D01*
X170565128Y-112976486D01*
X170552345Y-112971372D01*
X170527535Y-112957515D01*
X170517895Y-112951633D01*
X170478540Y-112928057D01*
X170438313Y-112905274D01*
X170435235Y-112903605D01*
X170368137Y-112864447D01*
X170296005Y-112817460D01*
X170227223Y-112768396D01*
X170170176Y-112723007D01*
X170163641Y-112717306D01*
X170117032Y-112678173D01*
X170081492Y-112654727D01*
X170052192Y-112645189D01*
X170024303Y-112647782D01*
X170000265Y-112657156D01*
X169963589Y-112680383D01*
X169930426Y-112710276D01*
X169928379Y-112712624D01*
X169903018Y-112745669D01*
X169876994Y-112784651D01*
X169854142Y-112823158D01*
X169838301Y-112854777D01*
X169833205Y-112871701D01*
X169828615Y-112890931D01*
X169817272Y-112922040D01*
X169811147Y-112936647D01*
X169787509Y-113001596D01*
X169764348Y-113085394D01*
X169742639Y-113183279D01*
X169723356Y-113290489D01*
X169707473Y-113402263D01*
X169698164Y-113488564D01*
X169687280Y-113611664D01*
X169679034Y-113716952D01*
X169673116Y-113810049D01*
X169669218Y-113896573D01*
X169667032Y-113982147D01*
X169666255Y-114070489D01*
X169515157Y-114070489D01*
X169515244Y-113983432D01*
X169516844Y-113884860D01*
X169519837Y-113790848D01*
X169524116Y-113707028D01*
X169529573Y-113639027D01*
X169531940Y-113618457D01*
X169535698Y-113584962D01*
X169540207Y-113538568D01*
X169544057Y-113494468D01*
X169548297Y-113448088D01*
X169552775Y-113407399D01*
X169556348Y-113382288D01*
X169561797Y-113349309D01*
X169567162Y-113311456D01*
X169567164Y-113311437D01*
X169572285Y-113279142D01*
X169580720Y-113233413D01*
X169590687Y-113183879D01*
X169591179Y-113181544D01*
X169600658Y-113135480D01*
X169608318Y-113096069D01*
X169612659Y-113071053D01*
X169612889Y-113069364D01*
X169622294Y-113022817D01*
X169639559Y-112961899D01*
X169662378Y-112893554D01*
X169688446Y-112824729D01*
X169713314Y-112766954D01*
X169727885Y-112733095D01*
X169736995Y-112707276D01*
X169738536Y-112699467D01*
X169745736Y-112683136D01*
X169763800Y-112657743D01*
X169772230Y-112647622D01*
X169796760Y-112617084D01*
X169815899Y-112589336D01*
X169819104Y-112583713D01*
X169836240Y-112565746D01*
X169867965Y-112543625D01*
X169903794Y-112523989D01*
X169933546Y-112509971D01*
X169958017Y-112500839D01*
X169982263Y-112496507D01*
X170011342Y-112496888D01*
X170050309Y-112501896D01*
X170104220Y-112511445D01*
X170148393Y-112519801D01*
X170157890Y-112527063D01*
X170181348Y-112546169D01*
X170214658Y-112573754D01*
X170235451Y-112591121D01*
X170273012Y-112621963D01*
X170303721Y-112646028D01*
X170323189Y-112659932D01*
X170327454Y-112662026D01*
X170339906Y-112669424D01*
X170362176Y-112687884D01*
X170371041Y-112695994D01*
X170401348Y-112720269D01*
X170447674Y-112752357D01*
X170505063Y-112789212D01*
X170568562Y-112827789D01*
X170633216Y-112865043D01*
X170694071Y-112897930D01*
X170724543Y-112913255D01*
X170760649Y-112933350D01*
X170791643Y-112954772D01*
X170797471Y-112959732D01*
X170818877Y-112974585D01*
X170833510Y-112976882D01*
X170848298Y-112978736D01*
X170878116Y-112989423D01*
X170917100Y-113006773D01*
X170925900Y-113011059D01*
X170966571Y-113030410D01*
X170999633Y-113044747D01*
X171018961Y-113051447D01*
X171020577Y-113051639D01*
X171036375Y-113059812D01*
X171057514Y-113079625D01*
X171058876Y-113081172D01*
X171083355Y-113101795D01*
X171106887Y-113110685D01*
X171107421Y-113110693D01*
X171132409Y-113116927D01*
X171163191Y-113132302D01*
X171191928Y-113151829D01*
X171210780Y-113170517D01*
X171214094Y-113178592D01*
X171224895Y-113189236D01*
X171250390Y-113193352D01*
X171279052Y-113198767D01*
X171292891Y-113210826D01*
X171306688Y-113227575D01*
X171332974Y-113248116D01*
X171342706Y-113254326D01*
X171372653Y-113274607D01*
X171412022Y-113304158D01*
X171454809Y-113338127D01*
X171495011Y-113371657D01*
X171526622Y-113399894D01*
X171541181Y-113414797D01*
X171552654Y-113422633D01*
X171570333Y-113420702D01*
X171600290Y-113407901D01*
X171612499Y-113401816D01*
X171670154Y-113372600D01*
X171661525Y-113264592D01*
X171656297Y-113211535D01*
X171649797Y-113163175D01*
X171643151Y-113127450D01*
X171640834Y-113118878D01*
X171632046Y-113083514D01*
X171624273Y-113039384D01*
X171622149Y-113023078D01*
X171617154Y-112983450D01*
X171612167Y-112950286D01*
X171610336Y-112940419D01*
X171605799Y-112913870D01*
X171600483Y-112875932D01*
X171598496Y-112859927D01*
X171591860Y-112818509D01*
X171579758Y-112757886D01*
X171562977Y-112681630D01*
X171542303Y-112593311D01*
X171518559Y-112496653D01*
X171507239Y-112456048D01*
X171495789Y-112421946D01*
X171489854Y-112408090D01*
X171481557Y-112385655D01*
X171470725Y-112347449D01*
X171459414Y-112300868D01*
X171457017Y-112290005D01*
X171435837Y-112218192D01*
X171405624Y-112150489D01*
X171369903Y-112093710D01*
X171337498Y-112058841D01*
X171310181Y-112047710D01*
X171269828Y-112043386D01*
X171225921Y-112045565D01*
X171187944Y-112053941D01*
X171168898Y-112064252D01*
X171145685Y-112079497D01*
X171131005Y-112083733D01*
X171108471Y-112090789D01*
X171092934Y-112100251D01*
X171075530Y-112109385D01*
X171054609Y-112108228D01*
X171025035Y-112098084D01*
X170996253Y-112084010D01*
X170979775Y-112070597D01*
X170978277Y-112066805D01*
X170970685Y-112051730D01*
X170951184Y-112026081D01*
X170930725Y-112002792D01*
X170904378Y-111973120D01*
X170891705Y-111952469D01*
X170889794Y-111933049D01*
X170895381Y-111908325D01*
X170903643Y-111869694D01*
X170907476Y-111834277D01*
X170907508Y-111831957D01*
X170917468Y-111786994D01*
X170944130Y-111737356D01*
X170982914Y-111688606D01*
X171029237Y-111646305D01*
X171078520Y-111616014D01*
X171089006Y-111611627D01*
X171127076Y-111603205D01*
X171178299Y-111599536D01*
X171232638Y-111600915D01*
X171273636Y-111606244D01*
X171306758Y-111616689D01*
X171342963Y-111633662D01*
X171375526Y-111653241D01*
X171397726Y-111671506D01*
X171403529Y-111682018D01*
X171412878Y-111693017D01*
X171418290Y-111693923D01*
X171436727Y-111704086D01*
X171466095Y-111733366D01*
X171505263Y-111780574D01*
X171524663Y-111805858D01*
X171550931Y-111846820D01*
X171581267Y-111903685D01*
X171612559Y-111969859D01*
X171641699Y-112038744D01*
X171665576Y-112103746D01*
X171666641Y-112106974D01*
X171681777Y-112154295D01*
X171694350Y-112196963D01*
X171706298Y-112242253D01*
X171719559Y-112297441D01*
X171732720Y-112354952D01*
X171741947Y-112399992D01*
X171751757Y-112454858D01*
X171761406Y-112514408D01*
X171770150Y-112573505D01*
X171777243Y-112627008D01*
X171781942Y-112669779D01*
X171783502Y-112696677D01*
X171783015Y-112702111D01*
X171785001Y-112721087D01*
X171788834Y-112731632D01*
X171795061Y-112747148D01*
X171799616Y-112765092D01*
X171803222Y-112790683D01*
X171806603Y-112829142D01*
X171810486Y-112885688D01*
X171810719Y-112889285D01*
X171815081Y-112940151D01*
X171820837Y-112985136D01*
X171826951Y-113016622D01*
X171828845Y-113022685D01*
X171835784Y-113050102D01*
X171842449Y-113091504D01*
X171846835Y-113131912D01*
X171851113Y-113181115D01*
X171855527Y-113227910D01*
X171859480Y-113266359D01*
X171862373Y-113290523D01*
X171863305Y-113295594D01*
X171873982Y-113293331D01*
X171901200Y-113285594D01*
X171937862Y-113274430D01*
X172001464Y-113255756D01*
X172070924Y-113237286D01*
X172139656Y-113220595D01*
X172201076Y-113207257D01*
X172248600Y-113198848D01*
X172259643Y-113197472D01*
X172334006Y-113192738D01*
X172424650Y-113191676D01*
X172524573Y-113194023D01*
X172626767Y-113199517D01*
X172724230Y-113207894D01*
X172803269Y-113217857D01*
X172864146Y-113226928D01*
X172917507Y-113234543D01*
X172958580Y-113240046D01*
X172982593Y-113242782D01*
X172985863Y-113242966D01*
X173006144Y-113245440D01*
X173041330Y-113251830D01*
X173078398Y-113259583D01*
X173118382Y-113267229D01*
X173149141Y-113270893D01*
X173163194Y-113269981D01*
X173177479Y-113271965D01*
X173180265Y-113275303D01*
X173195750Y-113281978D01*
X173204323Y-113280280D01*
X173225095Y-113280176D01*
X173257477Y-113287560D01*
X173271844Y-113292363D01*
X173317950Y-113305808D01*
X173367007Y-113315195D01*
X173375542Y-113316190D01*
X173407193Y-113319647D01*
X173426212Y-113322377D01*
X173428680Y-113323133D01*
X173438915Y-113325667D01*
X173463667Y-113329447D01*
X173464905Y-113329612D01*
X173501918Y-113337826D01*
X173540537Y-113350954D01*
X173540978Y-113351139D01*
X173568392Y-113360996D01*
X173584975Y-113358624D01*
X173601230Y-113341932D01*
X173603852Y-113338620D01*
X173615760Y-113317667D01*
X173622937Y-113288603D01*
X173625798Y-113247158D01*
X173624757Y-113189064D01*
X173622532Y-113146119D01*
X173623645Y-113117129D01*
X173628466Y-113077036D01*
X173631914Y-113056360D01*
X173637110Y-113007076D01*
X173633061Y-112970676D01*
X173632049Y-112967797D01*
X173625383Y-112941147D01*
X173619189Y-112900541D01*
X173615466Y-112862716D01*
X173606930Y-112744392D01*
X173597733Y-112615126D01*
X173595619Y-112585217D01*
X173582641Y-112462495D01*
X173561942Y-112344548D01*
X173534786Y-112237043D01*
X173502438Y-112145645D01*
X173492716Y-112123911D01*
X173479007Y-112093447D01*
X173470927Y-112072636D01*
X173470010Y-112068667D01*
X173463433Y-112051148D01*
X173446036Y-112020174D01*
X173421324Y-111981071D01*
X173392799Y-111939161D01*
X173363965Y-111899769D01*
X173338325Y-111868219D01*
X173337503Y-111867292D01*
X173305943Y-111834555D01*
X173279126Y-111815659D01*
X173247995Y-111805281D01*
X173224969Y-111801155D01*
X173184282Y-111796880D01*
X173160328Y-111800001D01*
X173149660Y-111807692D01*
X173128538Y-111819281D01*
X173105393Y-111821947D01*
X173071890Y-111823129D01*
X173033627Y-111828425D01*
X173032340Y-111828681D01*
X173002881Y-111831859D01*
X172982146Y-111824554D01*
X172965793Y-111802883D01*
X172949479Y-111762964D01*
X172945309Y-111750892D01*
X172934736Y-111715092D01*
X172933353Y-111689515D01*
X172941087Y-111662662D01*
X172944704Y-111653762D01*
X172958484Y-111626560D01*
X172970630Y-111611862D01*
X172973055Y-111611019D01*
X172984450Y-111601474D01*
X173000435Y-111577548D01*
X173006311Y-111566737D01*
X173030560Y-111531637D01*
X173060835Y-111502447D01*
X173066056Y-111498838D01*
X173090437Y-111479797D01*
X173103041Y-111463193D01*
X173103493Y-111460876D01*
X173113545Y-111444306D01*
X173135105Y-111430480D01*
X173156777Y-111425824D01*
X173162418Y-111427634D01*
X173177491Y-111426275D01*
X173179849Y-111423464D01*
X173193850Y-111418946D01*
X173225825Y-111415834D01*
X173270153Y-111414551D01*
X173295798Y-111414739D01*
G37*
D14*
X119080000Y-61320000D02*
X119080000Y-56020000D01*
X149670000Y-58670000D02*
X152320000Y-58670000D01*
X149670000Y-61320000D02*
X119080000Y-61320000D01*
X149670000Y-61320000D02*
X149670000Y-58670000D01*
X150940000Y-61320000D02*
X152320000Y-61320000D01*
X152320000Y-56020000D02*
X119080000Y-56020000D01*
X152320000Y-58670000D02*
X152320000Y-56020000D01*
X152320000Y-61320000D02*
X152320000Y-59940000D01*
X204935000Y-53975000D02*
X218905000Y-53975000D01*
X204935000Y-67945000D02*
X204935000Y-53975000D01*
X218905000Y-53975000D02*
X218905000Y-67945000D01*
X218905000Y-67945000D02*
X204935000Y-67945000D01*
D13*
X111550000Y-53945000D02*
X196950000Y-53945000D01*
X111550000Y-109545000D02*
X111550000Y-53945000D01*
X196950000Y-53945000D02*
X196950000Y-109545000D01*
X196950000Y-109545000D02*
X111550000Y-109545000D01*
M02*
