G04 #@! TF.GenerationSoftware,KiCad,Pcbnew,10.0.1*
G04 #@! TF.CreationDate,2026-06-05T01:59:55+08:00*
G04 #@! TF.ProjectId,Spotify Car Thing,53706f74-6966-4792-9043-617220546869,rev?*
G04 #@! TF.SameCoordinates,Original*
G04 #@! TF.FileFunction,Soldermask,Bot*
G04 #@! TF.FilePolarity,Negative*
%FSLAX46Y46*%
G04 Gerber Fmt 4.6, Leading zero omitted, Abs format (unit mm)*
G04 Created by KiCad (PCBNEW 10.0.1) date 2026-06-05 01:59:55*
%MOMM*%
%LPD*%
G01*
G04 APERTURE LIST*
G04 APERTURE END LIST*
G36*
X117373513Y-112944208D02*
G01*
X117612293Y-113021793D01*
X117835998Y-113135776D01*
X118039117Y-113283350D01*
X118216650Y-113460883D01*
X118364224Y-113664002D01*
X118478207Y-113887707D01*
X118555792Y-114126487D01*
X118595068Y-114374465D01*
X118595068Y-114625535D01*
X118555792Y-114873513D01*
X118478207Y-115112293D01*
X118364224Y-115335998D01*
X118216650Y-115539117D01*
X118039117Y-115716650D01*
X117835998Y-115864224D01*
X117612293Y-115978207D01*
X117373513Y-116055792D01*
X117125535Y-116095068D01*
X116874465Y-116095068D01*
X116626487Y-116055792D01*
X116387707Y-115978207D01*
X116164002Y-115864224D01*
X115960883Y-115716650D01*
X115783350Y-115539117D01*
X115635776Y-115335998D01*
X115521793Y-115112293D01*
X115444208Y-114873513D01*
X115404932Y-114625535D01*
X115404932Y-114374465D01*
X115444208Y-114126487D01*
X115521793Y-113887707D01*
X115635776Y-113664002D01*
X115783350Y-113460883D01*
X115960883Y-113283350D01*
X116164002Y-113135776D01*
X116387707Y-113021793D01*
X116626487Y-112944208D01*
X116874465Y-112904932D01*
X117125535Y-112904932D01*
X117373513Y-112944208D01*
G37*
G36*
X218873513Y-112944208D02*
G01*
X219112293Y-113021793D01*
X219335998Y-113135776D01*
X219539117Y-113283350D01*
X219716650Y-113460883D01*
X219864224Y-113664002D01*
X219978207Y-113887707D01*
X220055792Y-114126487D01*
X220095068Y-114374465D01*
X220095068Y-114625535D01*
X220055792Y-114873513D01*
X219978207Y-115112293D01*
X219864224Y-115335998D01*
X219716650Y-115539117D01*
X219539117Y-115716650D01*
X219335998Y-115864224D01*
X219112293Y-115978207D01*
X218873513Y-116055792D01*
X218625535Y-116095068D01*
X218374465Y-116095068D01*
X218126487Y-116055792D01*
X217887707Y-115978207D01*
X217664002Y-115864224D01*
X217460883Y-115716650D01*
X217283350Y-115539117D01*
X217135776Y-115335998D01*
X217021793Y-115112293D01*
X216944208Y-114873513D01*
X216904932Y-114625535D01*
X216904932Y-114374465D01*
X216944208Y-114126487D01*
X217021793Y-113887707D01*
X217135776Y-113664002D01*
X217283350Y-113460883D01*
X217460883Y-113283350D01*
X217664002Y-113135776D01*
X217887707Y-113021793D01*
X218126487Y-112944208D01*
X218374465Y-112904932D01*
X218625535Y-112904932D01*
X218873513Y-112944208D01*
G37*
G36*
X119070000Y-107100000D02*
G01*
X117370000Y-107100000D01*
X117370000Y-105400000D01*
X119070000Y-105400000D01*
X119070000Y-107100000D01*
G37*
G36*
X121006742Y-105436601D02*
G01*
X121160687Y-105500367D01*
X121299234Y-105592941D01*
X121417059Y-105710766D01*
X121509633Y-105849313D01*
X121573399Y-106003258D01*
X121605907Y-106166685D01*
X121605907Y-106333315D01*
X121573399Y-106496742D01*
X121509633Y-106650687D01*
X121417059Y-106789234D01*
X121299234Y-106907059D01*
X121160687Y-106999633D01*
X121006742Y-107063399D01*
X120843315Y-107095907D01*
X120676685Y-107095907D01*
X120513258Y-107063399D01*
X120359313Y-106999633D01*
X120220766Y-106907059D01*
X120102941Y-106789234D01*
X120010367Y-106650687D01*
X119946601Y-106496742D01*
X119914093Y-106333315D01*
X119914093Y-106166685D01*
X119946601Y-106003258D01*
X120010367Y-105849313D01*
X120102941Y-105710766D01*
X120220766Y-105592941D01*
X120359313Y-105500367D01*
X120513258Y-105436601D01*
X120676685Y-105404093D01*
X120843315Y-105404093D01*
X121006742Y-105436601D01*
G37*
G36*
X123546742Y-105436601D02*
G01*
X123700687Y-105500367D01*
X123839234Y-105592941D01*
X123957059Y-105710766D01*
X124049633Y-105849313D01*
X124113399Y-106003258D01*
X124145907Y-106166685D01*
X124145907Y-106333315D01*
X124113399Y-106496742D01*
X124049633Y-106650687D01*
X123957059Y-106789234D01*
X123839234Y-106907059D01*
X123700687Y-106999633D01*
X123546742Y-107063399D01*
X123383315Y-107095907D01*
X123216685Y-107095907D01*
X123053258Y-107063399D01*
X122899313Y-106999633D01*
X122760766Y-106907059D01*
X122642941Y-106789234D01*
X122550367Y-106650687D01*
X122486601Y-106496742D01*
X122454093Y-106333315D01*
X122454093Y-106166685D01*
X122486601Y-106003258D01*
X122550367Y-105849313D01*
X122642941Y-105710766D01*
X122760766Y-105592941D01*
X122899313Y-105500367D01*
X123053258Y-105436601D01*
X123216685Y-105404093D01*
X123383315Y-105404093D01*
X123546742Y-105436601D01*
G37*
G36*
X126086742Y-105436601D02*
G01*
X126240687Y-105500367D01*
X126379234Y-105592941D01*
X126497059Y-105710766D01*
X126589633Y-105849313D01*
X126653399Y-106003258D01*
X126685907Y-106166685D01*
X126685907Y-106333315D01*
X126653399Y-106496742D01*
X126589633Y-106650687D01*
X126497059Y-106789234D01*
X126379234Y-106907059D01*
X126240687Y-106999633D01*
X126086742Y-107063399D01*
X125923315Y-107095907D01*
X125756685Y-107095907D01*
X125593258Y-107063399D01*
X125439313Y-106999633D01*
X125300766Y-106907059D01*
X125182941Y-106789234D01*
X125090367Y-106650687D01*
X125026601Y-106496742D01*
X124994093Y-106333315D01*
X124994093Y-106166685D01*
X125026601Y-106003258D01*
X125090367Y-105849313D01*
X125182941Y-105710766D01*
X125300766Y-105592941D01*
X125439313Y-105500367D01*
X125593258Y-105436601D01*
X125756685Y-105404093D01*
X125923315Y-105404093D01*
X126086742Y-105436601D01*
G37*
G36*
X128626742Y-105436601D02*
G01*
X128780687Y-105500367D01*
X128919234Y-105592941D01*
X129037059Y-105710766D01*
X129129633Y-105849313D01*
X129193399Y-106003258D01*
X129225907Y-106166685D01*
X129225907Y-106333315D01*
X129193399Y-106496742D01*
X129129633Y-106650687D01*
X129037059Y-106789234D01*
X128919234Y-106907059D01*
X128780687Y-106999633D01*
X128626742Y-107063399D01*
X128463315Y-107095907D01*
X128296685Y-107095907D01*
X128133258Y-107063399D01*
X127979313Y-106999633D01*
X127840766Y-106907059D01*
X127722941Y-106789234D01*
X127630367Y-106650687D01*
X127566601Y-106496742D01*
X127534093Y-106333315D01*
X127534093Y-106166685D01*
X127566601Y-106003258D01*
X127630367Y-105849313D01*
X127722941Y-105710766D01*
X127840766Y-105592941D01*
X127979313Y-105500367D01*
X128133258Y-105436601D01*
X128296685Y-105404093D01*
X128463315Y-105404093D01*
X128626742Y-105436601D01*
G37*
G36*
X131166742Y-105436601D02*
G01*
X131320687Y-105500367D01*
X131459234Y-105592941D01*
X131577059Y-105710766D01*
X131669633Y-105849313D01*
X131733399Y-106003258D01*
X131765907Y-106166685D01*
X131765907Y-106333315D01*
X131733399Y-106496742D01*
X131669633Y-106650687D01*
X131577059Y-106789234D01*
X131459234Y-106907059D01*
X131320687Y-106999633D01*
X131166742Y-107063399D01*
X131003315Y-107095907D01*
X130836685Y-107095907D01*
X130673258Y-107063399D01*
X130519313Y-106999633D01*
X130380766Y-106907059D01*
X130262941Y-106789234D01*
X130170367Y-106650687D01*
X130106601Y-106496742D01*
X130074093Y-106333315D01*
X130074093Y-106166685D01*
X130106601Y-106003258D01*
X130170367Y-105849313D01*
X130262941Y-105710766D01*
X130380766Y-105592941D01*
X130519313Y-105500367D01*
X130673258Y-105436601D01*
X130836685Y-105404093D01*
X131003315Y-105404093D01*
X131166742Y-105436601D01*
G37*
G36*
X133706742Y-105436601D02*
G01*
X133860687Y-105500367D01*
X133999234Y-105592941D01*
X134117059Y-105710766D01*
X134209633Y-105849313D01*
X134273399Y-106003258D01*
X134305907Y-106166685D01*
X134305907Y-106333315D01*
X134273399Y-106496742D01*
X134209633Y-106650687D01*
X134117059Y-106789234D01*
X133999234Y-106907059D01*
X133860687Y-106999633D01*
X133706742Y-107063399D01*
X133543315Y-107095907D01*
X133376685Y-107095907D01*
X133213258Y-107063399D01*
X133059313Y-106999633D01*
X132920766Y-106907059D01*
X132802941Y-106789234D01*
X132710367Y-106650687D01*
X132646601Y-106496742D01*
X132614093Y-106333315D01*
X132614093Y-106166685D01*
X132646601Y-106003258D01*
X132710367Y-105849313D01*
X132802941Y-105710766D01*
X132920766Y-105592941D01*
X133059313Y-105500367D01*
X133213258Y-105436601D01*
X133376685Y-105404093D01*
X133543315Y-105404093D01*
X133706742Y-105436601D01*
G37*
G36*
X136246742Y-105436601D02*
G01*
X136400687Y-105500367D01*
X136539234Y-105592941D01*
X136657059Y-105710766D01*
X136749633Y-105849313D01*
X136813399Y-106003258D01*
X136845907Y-106166685D01*
X136845907Y-106333315D01*
X136813399Y-106496742D01*
X136749633Y-106650687D01*
X136657059Y-106789234D01*
X136539234Y-106907059D01*
X136400687Y-106999633D01*
X136246742Y-107063399D01*
X136083315Y-107095907D01*
X135916685Y-107095907D01*
X135753258Y-107063399D01*
X135599313Y-106999633D01*
X135460766Y-106907059D01*
X135342941Y-106789234D01*
X135250367Y-106650687D01*
X135186601Y-106496742D01*
X135154093Y-106333315D01*
X135154093Y-106166685D01*
X135186601Y-106003258D01*
X135250367Y-105849313D01*
X135342941Y-105710766D01*
X135460766Y-105592941D01*
X135599313Y-105500367D01*
X135753258Y-105436601D01*
X135916685Y-105404093D01*
X136083315Y-105404093D01*
X136246742Y-105436601D01*
G37*
G36*
X138786742Y-105436601D02*
G01*
X138940687Y-105500367D01*
X139079234Y-105592941D01*
X139197059Y-105710766D01*
X139289633Y-105849313D01*
X139353399Y-106003258D01*
X139385907Y-106166685D01*
X139385907Y-106333315D01*
X139353399Y-106496742D01*
X139289633Y-106650687D01*
X139197059Y-106789234D01*
X139079234Y-106907059D01*
X138940687Y-106999633D01*
X138786742Y-107063399D01*
X138623315Y-107095907D01*
X138456685Y-107095907D01*
X138293258Y-107063399D01*
X138139313Y-106999633D01*
X138000766Y-106907059D01*
X137882941Y-106789234D01*
X137790367Y-106650687D01*
X137726601Y-106496742D01*
X137694093Y-106333315D01*
X137694093Y-106166685D01*
X137726601Y-106003258D01*
X137790367Y-105849313D01*
X137882941Y-105710766D01*
X138000766Y-105592941D01*
X138139313Y-105500367D01*
X138293258Y-105436601D01*
X138456685Y-105404093D01*
X138623315Y-105404093D01*
X138786742Y-105436601D01*
G37*
G36*
X141326742Y-105436601D02*
G01*
X141480687Y-105500367D01*
X141619234Y-105592941D01*
X141737059Y-105710766D01*
X141829633Y-105849313D01*
X141893399Y-106003258D01*
X141925907Y-106166685D01*
X141925907Y-106333315D01*
X141893399Y-106496742D01*
X141829633Y-106650687D01*
X141737059Y-106789234D01*
X141619234Y-106907059D01*
X141480687Y-106999633D01*
X141326742Y-107063399D01*
X141163315Y-107095907D01*
X140996685Y-107095907D01*
X140833258Y-107063399D01*
X140679313Y-106999633D01*
X140540766Y-106907059D01*
X140422941Y-106789234D01*
X140330367Y-106650687D01*
X140266601Y-106496742D01*
X140234093Y-106333315D01*
X140234093Y-106166685D01*
X140266601Y-106003258D01*
X140330367Y-105849313D01*
X140422941Y-105710766D01*
X140540766Y-105592941D01*
X140679313Y-105500367D01*
X140833258Y-105436601D01*
X140996685Y-105404093D01*
X141163315Y-105404093D01*
X141326742Y-105436601D01*
G37*
G36*
X143866742Y-105436601D02*
G01*
X144020687Y-105500367D01*
X144159234Y-105592941D01*
X144277059Y-105710766D01*
X144369633Y-105849313D01*
X144433399Y-106003258D01*
X144465907Y-106166685D01*
X144465907Y-106333315D01*
X144433399Y-106496742D01*
X144369633Y-106650687D01*
X144277059Y-106789234D01*
X144159234Y-106907059D01*
X144020687Y-106999633D01*
X143866742Y-107063399D01*
X143703315Y-107095907D01*
X143536685Y-107095907D01*
X143373258Y-107063399D01*
X143219313Y-106999633D01*
X143080766Y-106907059D01*
X142962941Y-106789234D01*
X142870367Y-106650687D01*
X142806601Y-106496742D01*
X142774093Y-106333315D01*
X142774093Y-106166685D01*
X142806601Y-106003258D01*
X142870367Y-105849313D01*
X142962941Y-105710766D01*
X143080766Y-105592941D01*
X143219313Y-105500367D01*
X143373258Y-105436601D01*
X143536685Y-105404093D01*
X143703315Y-105404093D01*
X143866742Y-105436601D01*
G37*
G36*
X146406742Y-105436601D02*
G01*
X146560687Y-105500367D01*
X146699234Y-105592941D01*
X146817059Y-105710766D01*
X146909633Y-105849313D01*
X146973399Y-106003258D01*
X147005907Y-106166685D01*
X147005907Y-106333315D01*
X146973399Y-106496742D01*
X146909633Y-106650687D01*
X146817059Y-106789234D01*
X146699234Y-106907059D01*
X146560687Y-106999633D01*
X146406742Y-107063399D01*
X146243315Y-107095907D01*
X146076685Y-107095907D01*
X145913258Y-107063399D01*
X145759313Y-106999633D01*
X145620766Y-106907059D01*
X145502941Y-106789234D01*
X145410367Y-106650687D01*
X145346601Y-106496742D01*
X145314093Y-106333315D01*
X145314093Y-106166685D01*
X145346601Y-106003258D01*
X145410367Y-105849313D01*
X145502941Y-105710766D01*
X145620766Y-105592941D01*
X145759313Y-105500367D01*
X145913258Y-105436601D01*
X146076685Y-105404093D01*
X146243315Y-105404093D01*
X146406742Y-105436601D01*
G37*
G36*
X148946742Y-105436601D02*
G01*
X149100687Y-105500367D01*
X149239234Y-105592941D01*
X149357059Y-105710766D01*
X149449633Y-105849313D01*
X149513399Y-106003258D01*
X149545907Y-106166685D01*
X149545907Y-106333315D01*
X149513399Y-106496742D01*
X149449633Y-106650687D01*
X149357059Y-106789234D01*
X149239234Y-106907059D01*
X149100687Y-106999633D01*
X148946742Y-107063399D01*
X148783315Y-107095907D01*
X148616685Y-107095907D01*
X148453258Y-107063399D01*
X148299313Y-106999633D01*
X148160766Y-106907059D01*
X148042941Y-106789234D01*
X147950367Y-106650687D01*
X147886601Y-106496742D01*
X147854093Y-106333315D01*
X147854093Y-106166685D01*
X147886601Y-106003258D01*
X147950367Y-105849313D01*
X148042941Y-105710766D01*
X148160766Y-105592941D01*
X148299313Y-105500367D01*
X148453258Y-105436601D01*
X148616685Y-105404093D01*
X148783315Y-105404093D01*
X148946742Y-105436601D01*
G37*
G36*
X151486742Y-105436601D02*
G01*
X151640687Y-105500367D01*
X151779234Y-105592941D01*
X151897059Y-105710766D01*
X151989633Y-105849313D01*
X152053399Y-106003258D01*
X152085907Y-106166685D01*
X152085907Y-106333315D01*
X152053399Y-106496742D01*
X151989633Y-106650687D01*
X151897059Y-106789234D01*
X151779234Y-106907059D01*
X151640687Y-106999633D01*
X151486742Y-107063399D01*
X151323315Y-107095907D01*
X151156685Y-107095907D01*
X150993258Y-107063399D01*
X150839313Y-106999633D01*
X150700766Y-106907059D01*
X150582941Y-106789234D01*
X150490367Y-106650687D01*
X150426601Y-106496742D01*
X150394093Y-106333315D01*
X150394093Y-106166685D01*
X150426601Y-106003258D01*
X150490367Y-105849313D01*
X150582941Y-105710766D01*
X150700766Y-105592941D01*
X150839313Y-105500367D01*
X150993258Y-105436601D01*
X151156685Y-105404093D01*
X151323315Y-105404093D01*
X151486742Y-105436601D01*
G37*
G36*
X154026742Y-105436601D02*
G01*
X154180687Y-105500367D01*
X154319234Y-105592941D01*
X154437059Y-105710766D01*
X154529633Y-105849313D01*
X154593399Y-106003258D01*
X154625907Y-106166685D01*
X154625907Y-106333315D01*
X154593399Y-106496742D01*
X154529633Y-106650687D01*
X154437059Y-106789234D01*
X154319234Y-106907059D01*
X154180687Y-106999633D01*
X154026742Y-107063399D01*
X153863315Y-107095907D01*
X153696685Y-107095907D01*
X153533258Y-107063399D01*
X153379313Y-106999633D01*
X153240766Y-106907059D01*
X153122941Y-106789234D01*
X153030367Y-106650687D01*
X152966601Y-106496742D01*
X152934093Y-106333315D01*
X152934093Y-106166685D01*
X152966601Y-106003258D01*
X153030367Y-105849313D01*
X153122941Y-105710766D01*
X153240766Y-105592941D01*
X153379313Y-105500367D01*
X153533258Y-105436601D01*
X153696685Y-105404093D01*
X153863315Y-105404093D01*
X154026742Y-105436601D01*
G37*
G36*
X212310181Y-100588429D02*
G01*
X212562879Y-100656140D01*
X212804577Y-100756255D01*
X213031140Y-100887061D01*
X213238692Y-101046320D01*
X213423680Y-101231308D01*
X213582939Y-101438860D01*
X213713745Y-101665423D01*
X213813860Y-101907121D01*
X213881571Y-102159819D01*
X213915718Y-102419194D01*
X213915718Y-102680806D01*
X213881571Y-102940181D01*
X213813860Y-103192879D01*
X213713745Y-103434577D01*
X213582939Y-103661140D01*
X213423680Y-103868692D01*
X213238692Y-104053680D01*
X213031140Y-104212939D01*
X212804577Y-104343745D01*
X212562879Y-104443860D01*
X212310181Y-104511571D01*
X212050806Y-104545718D01*
X211789194Y-104545718D01*
X211529819Y-104511571D01*
X211277121Y-104443860D01*
X211035423Y-104343745D01*
X210808860Y-104212939D01*
X210601308Y-104053680D01*
X210416320Y-103868692D01*
X210257061Y-103661140D01*
X210126255Y-103434577D01*
X210026140Y-103192879D01*
X209958429Y-102940181D01*
X209924282Y-102680806D01*
X209924282Y-102419194D01*
X209958429Y-102159819D01*
X210026140Y-101907121D01*
X210126255Y-101665423D01*
X210257061Y-101438860D01*
X210416320Y-101231308D01*
X210601308Y-101046320D01*
X210808860Y-100887061D01*
X211035423Y-100756255D01*
X211277121Y-100656140D01*
X211529819Y-100588429D01*
X211789194Y-100554282D01*
X212050806Y-100554282D01*
X212310181Y-100588429D01*
G37*
G36*
X207086742Y-101736601D02*
G01*
X207240687Y-101800367D01*
X207379234Y-101892941D01*
X207497059Y-102010766D01*
X207589633Y-102149313D01*
X207653399Y-102303258D01*
X207685907Y-102466685D01*
X207685907Y-102633315D01*
X207653399Y-102796742D01*
X207589633Y-102950687D01*
X207497059Y-103089234D01*
X207379234Y-103207059D01*
X207240687Y-103299633D01*
X207086742Y-103363399D01*
X206923315Y-103395907D01*
X206756685Y-103395907D01*
X206593258Y-103363399D01*
X206439313Y-103299633D01*
X206300766Y-103207059D01*
X206182941Y-103089234D01*
X206090367Y-102950687D01*
X206026601Y-102796742D01*
X205994093Y-102633315D01*
X205994093Y-102466685D01*
X206026601Y-102303258D01*
X206090367Y-102149313D01*
X206182941Y-102010766D01*
X206300766Y-101892941D01*
X206439313Y-101800367D01*
X206593258Y-101736601D01*
X206756685Y-101704093D01*
X206923315Y-101704093D01*
X207086742Y-101736601D01*
G37*
G36*
X217246742Y-101736601D02*
G01*
X217400687Y-101800367D01*
X217539234Y-101892941D01*
X217657059Y-102010766D01*
X217749633Y-102149313D01*
X217813399Y-102303258D01*
X217845907Y-102466685D01*
X217845907Y-102633315D01*
X217813399Y-102796742D01*
X217749633Y-102950687D01*
X217657059Y-103089234D01*
X217539234Y-103207059D01*
X217400687Y-103299633D01*
X217246742Y-103363399D01*
X217083315Y-103395907D01*
X216916685Y-103395907D01*
X216753258Y-103363399D01*
X216599313Y-103299633D01*
X216460766Y-103207059D01*
X216342941Y-103089234D01*
X216250367Y-102950687D01*
X216186601Y-102796742D01*
X216154093Y-102633315D01*
X216154093Y-102466685D01*
X216186601Y-102303258D01*
X216250367Y-102149313D01*
X216342941Y-102010766D01*
X216460766Y-101892941D01*
X216599313Y-101800367D01*
X216753258Y-101736601D01*
X216916685Y-101704093D01*
X217083315Y-101704093D01*
X217246742Y-101736601D01*
G37*
G36*
X208366790Y-98940393D02*
G01*
X208530952Y-98993733D01*
X208684748Y-99072096D01*
X208824393Y-99173553D01*
X208946447Y-99295607D01*
X209047904Y-99435252D01*
X209126267Y-99589048D01*
X209179607Y-99753210D01*
X209206609Y-99923695D01*
X209206609Y-100096305D01*
X209179607Y-100266790D01*
X209126267Y-100430952D01*
X209047904Y-100584748D01*
X208946447Y-100724393D01*
X208824393Y-100846447D01*
X208684748Y-100947904D01*
X208530952Y-101026267D01*
X208366790Y-101079607D01*
X208196305Y-101106609D01*
X208023695Y-101106609D01*
X207853210Y-101079607D01*
X207689048Y-101026267D01*
X207535252Y-100947904D01*
X207395607Y-100846447D01*
X207273553Y-100724393D01*
X207172096Y-100584748D01*
X207093733Y-100430952D01*
X207040393Y-100266790D01*
X207013391Y-100096305D01*
X207013391Y-99923695D01*
X207040393Y-99753210D01*
X207093733Y-99589048D01*
X207172096Y-99435252D01*
X207273553Y-99295607D01*
X207395607Y-99173553D01*
X207535252Y-99072096D01*
X207689048Y-98993733D01*
X207853210Y-98940393D01*
X208023695Y-98913391D01*
X208196305Y-98913391D01*
X208366790Y-98940393D01*
G37*
G36*
X214716790Y-96400393D02*
G01*
X214880952Y-96453733D01*
X215034748Y-96532096D01*
X215174393Y-96633553D01*
X215296447Y-96755607D01*
X215397904Y-96895252D01*
X215476267Y-97049048D01*
X215529607Y-97213210D01*
X215556609Y-97383695D01*
X215556609Y-97556305D01*
X215529607Y-97726790D01*
X215476267Y-97890952D01*
X215397904Y-98044748D01*
X215296447Y-98184393D01*
X215174393Y-98306447D01*
X215034748Y-98407904D01*
X214880952Y-98486267D01*
X214716790Y-98539607D01*
X214546305Y-98566609D01*
X214373695Y-98566609D01*
X214203210Y-98539607D01*
X214039048Y-98486267D01*
X213885252Y-98407904D01*
X213745607Y-98306447D01*
X213623553Y-98184393D01*
X213522096Y-98044748D01*
X213443733Y-97890952D01*
X213390393Y-97726790D01*
X213363391Y-97556305D01*
X213363391Y-97383695D01*
X213390393Y-97213210D01*
X213443733Y-97049048D01*
X213522096Y-96895252D01*
X213623553Y-96755607D01*
X213745607Y-96633553D01*
X213885252Y-96532096D01*
X214039048Y-96453733D01*
X214203210Y-96400393D01*
X214373695Y-96373391D01*
X214546305Y-96373391D01*
X214716790Y-96400393D01*
G37*
G36*
X212310181Y-79318429D02*
G01*
X212562879Y-79386140D01*
X212804577Y-79486255D01*
X213031140Y-79617061D01*
X213238692Y-79776320D01*
X213423680Y-79961308D01*
X213582939Y-80168860D01*
X213713745Y-80395423D01*
X213813860Y-80637121D01*
X213881571Y-80889819D01*
X213915718Y-81149194D01*
X213915718Y-81410806D01*
X213881571Y-81670181D01*
X213813860Y-81922879D01*
X213713745Y-82164577D01*
X213582939Y-82391140D01*
X213423680Y-82598692D01*
X213238692Y-82783680D01*
X213031140Y-82942939D01*
X212804577Y-83073745D01*
X212562879Y-83173860D01*
X212310181Y-83241571D01*
X212050806Y-83275718D01*
X211789194Y-83275718D01*
X211529819Y-83241571D01*
X211277121Y-83173860D01*
X211035423Y-83073745D01*
X210808860Y-82942939D01*
X210601308Y-82783680D01*
X210416320Y-82598692D01*
X210257061Y-82391140D01*
X210126255Y-82164577D01*
X210026140Y-81922879D01*
X209958429Y-81670181D01*
X209924282Y-81410806D01*
X209924282Y-81149194D01*
X209958429Y-80889819D01*
X210026140Y-80637121D01*
X210126255Y-80395423D01*
X210257061Y-80168860D01*
X210416320Y-79961308D01*
X210601308Y-79776320D01*
X210808860Y-79617061D01*
X211035423Y-79486255D01*
X211277121Y-79386140D01*
X211529819Y-79318429D01*
X211789194Y-79284282D01*
X212050806Y-79284282D01*
X212310181Y-79318429D01*
G37*
G36*
X207086742Y-80466601D02*
G01*
X207240687Y-80530367D01*
X207379234Y-80622941D01*
X207497059Y-80740766D01*
X207589633Y-80879313D01*
X207653399Y-81033258D01*
X207685907Y-81196685D01*
X207685907Y-81363315D01*
X207653399Y-81526742D01*
X207589633Y-81680687D01*
X207497059Y-81819234D01*
X207379234Y-81937059D01*
X207240687Y-82029633D01*
X207086742Y-82093399D01*
X206923315Y-82125907D01*
X206756685Y-82125907D01*
X206593258Y-82093399D01*
X206439313Y-82029633D01*
X206300766Y-81937059D01*
X206182941Y-81819234D01*
X206090367Y-81680687D01*
X206026601Y-81526742D01*
X205994093Y-81363315D01*
X205994093Y-81196685D01*
X206026601Y-81033258D01*
X206090367Y-80879313D01*
X206182941Y-80740766D01*
X206300766Y-80622941D01*
X206439313Y-80530367D01*
X206593258Y-80466601D01*
X206756685Y-80434093D01*
X206923315Y-80434093D01*
X207086742Y-80466601D01*
G37*
G36*
X217246742Y-80466601D02*
G01*
X217400687Y-80530367D01*
X217539234Y-80622941D01*
X217657059Y-80740766D01*
X217749633Y-80879313D01*
X217813399Y-81033258D01*
X217845907Y-81196685D01*
X217845907Y-81363315D01*
X217813399Y-81526742D01*
X217749633Y-81680687D01*
X217657059Y-81819234D01*
X217539234Y-81937059D01*
X217400687Y-82029633D01*
X217246742Y-82093399D01*
X217083315Y-82125907D01*
X216916685Y-82125907D01*
X216753258Y-82093399D01*
X216599313Y-82029633D01*
X216460766Y-81937059D01*
X216342941Y-81819234D01*
X216250367Y-81680687D01*
X216186601Y-81526742D01*
X216154093Y-81363315D01*
X216154093Y-81196685D01*
X216186601Y-81033258D01*
X216250367Y-80879313D01*
X216342941Y-80740766D01*
X216460766Y-80622941D01*
X216599313Y-80530367D01*
X216753258Y-80466601D01*
X216916685Y-80434093D01*
X217083315Y-80434093D01*
X217246742Y-80466601D01*
G37*
G36*
X119070000Y-81650000D02*
G01*
X117370000Y-81650000D01*
X117370000Y-79950000D01*
X119070000Y-79950000D01*
X119070000Y-81650000D01*
G37*
G36*
X121006742Y-79986601D02*
G01*
X121160687Y-80050367D01*
X121299234Y-80142941D01*
X121417059Y-80260766D01*
X121509633Y-80399313D01*
X121573399Y-80553258D01*
X121605907Y-80716685D01*
X121605907Y-80883315D01*
X121573399Y-81046742D01*
X121509633Y-81200687D01*
X121417059Y-81339234D01*
X121299234Y-81457059D01*
X121160687Y-81549633D01*
X121006742Y-81613399D01*
X120843315Y-81645907D01*
X120676685Y-81645907D01*
X120513258Y-81613399D01*
X120359313Y-81549633D01*
X120220766Y-81457059D01*
X120102941Y-81339234D01*
X120010367Y-81200687D01*
X119946601Y-81046742D01*
X119914093Y-80883315D01*
X119914093Y-80716685D01*
X119946601Y-80553258D01*
X120010367Y-80399313D01*
X120102941Y-80260766D01*
X120220766Y-80142941D01*
X120359313Y-80050367D01*
X120513258Y-79986601D01*
X120676685Y-79954093D01*
X120843315Y-79954093D01*
X121006742Y-79986601D01*
G37*
G36*
X123546742Y-79986601D02*
G01*
X123700687Y-80050367D01*
X123839234Y-80142941D01*
X123957059Y-80260766D01*
X124049633Y-80399313D01*
X124113399Y-80553258D01*
X124145907Y-80716685D01*
X124145907Y-80883315D01*
X124113399Y-81046742D01*
X124049633Y-81200687D01*
X123957059Y-81339234D01*
X123839234Y-81457059D01*
X123700687Y-81549633D01*
X123546742Y-81613399D01*
X123383315Y-81645907D01*
X123216685Y-81645907D01*
X123053258Y-81613399D01*
X122899313Y-81549633D01*
X122760766Y-81457059D01*
X122642941Y-81339234D01*
X122550367Y-81200687D01*
X122486601Y-81046742D01*
X122454093Y-80883315D01*
X122454093Y-80716685D01*
X122486601Y-80553258D01*
X122550367Y-80399313D01*
X122642941Y-80260766D01*
X122760766Y-80142941D01*
X122899313Y-80050367D01*
X123053258Y-79986601D01*
X123216685Y-79954093D01*
X123383315Y-79954093D01*
X123546742Y-79986601D01*
G37*
G36*
X126086742Y-79986601D02*
G01*
X126240687Y-80050367D01*
X126379234Y-80142941D01*
X126497059Y-80260766D01*
X126589633Y-80399313D01*
X126653399Y-80553258D01*
X126685907Y-80716685D01*
X126685907Y-80883315D01*
X126653399Y-81046742D01*
X126589633Y-81200687D01*
X126497059Y-81339234D01*
X126379234Y-81457059D01*
X126240687Y-81549633D01*
X126086742Y-81613399D01*
X125923315Y-81645907D01*
X125756685Y-81645907D01*
X125593258Y-81613399D01*
X125439313Y-81549633D01*
X125300766Y-81457059D01*
X125182941Y-81339234D01*
X125090367Y-81200687D01*
X125026601Y-81046742D01*
X124994093Y-80883315D01*
X124994093Y-80716685D01*
X125026601Y-80553258D01*
X125090367Y-80399313D01*
X125182941Y-80260766D01*
X125300766Y-80142941D01*
X125439313Y-80050367D01*
X125593258Y-79986601D01*
X125756685Y-79954093D01*
X125923315Y-79954093D01*
X126086742Y-79986601D01*
G37*
G36*
X128626742Y-79986601D02*
G01*
X128780687Y-80050367D01*
X128919234Y-80142941D01*
X129037059Y-80260766D01*
X129129633Y-80399313D01*
X129193399Y-80553258D01*
X129225907Y-80716685D01*
X129225907Y-80883315D01*
X129193399Y-81046742D01*
X129129633Y-81200687D01*
X129037059Y-81339234D01*
X128919234Y-81457059D01*
X128780687Y-81549633D01*
X128626742Y-81613399D01*
X128463315Y-81645907D01*
X128296685Y-81645907D01*
X128133258Y-81613399D01*
X127979313Y-81549633D01*
X127840766Y-81457059D01*
X127722941Y-81339234D01*
X127630367Y-81200687D01*
X127566601Y-81046742D01*
X127534093Y-80883315D01*
X127534093Y-80716685D01*
X127566601Y-80553258D01*
X127630367Y-80399313D01*
X127722941Y-80260766D01*
X127840766Y-80142941D01*
X127979313Y-80050367D01*
X128133258Y-79986601D01*
X128296685Y-79954093D01*
X128463315Y-79954093D01*
X128626742Y-79986601D01*
G37*
G36*
X131166742Y-79986601D02*
G01*
X131320687Y-80050367D01*
X131459234Y-80142941D01*
X131577059Y-80260766D01*
X131669633Y-80399313D01*
X131733399Y-80553258D01*
X131765907Y-80716685D01*
X131765907Y-80883315D01*
X131733399Y-81046742D01*
X131669633Y-81200687D01*
X131577059Y-81339234D01*
X131459234Y-81457059D01*
X131320687Y-81549633D01*
X131166742Y-81613399D01*
X131003315Y-81645907D01*
X130836685Y-81645907D01*
X130673258Y-81613399D01*
X130519313Y-81549633D01*
X130380766Y-81457059D01*
X130262941Y-81339234D01*
X130170367Y-81200687D01*
X130106601Y-81046742D01*
X130074093Y-80883315D01*
X130074093Y-80716685D01*
X130106601Y-80553258D01*
X130170367Y-80399313D01*
X130262941Y-80260766D01*
X130380766Y-80142941D01*
X130519313Y-80050367D01*
X130673258Y-79986601D01*
X130836685Y-79954093D01*
X131003315Y-79954093D01*
X131166742Y-79986601D01*
G37*
G36*
X133706742Y-79986601D02*
G01*
X133860687Y-80050367D01*
X133999234Y-80142941D01*
X134117059Y-80260766D01*
X134209633Y-80399313D01*
X134273399Y-80553258D01*
X134305907Y-80716685D01*
X134305907Y-80883315D01*
X134273399Y-81046742D01*
X134209633Y-81200687D01*
X134117059Y-81339234D01*
X133999234Y-81457059D01*
X133860687Y-81549633D01*
X133706742Y-81613399D01*
X133543315Y-81645907D01*
X133376685Y-81645907D01*
X133213258Y-81613399D01*
X133059313Y-81549633D01*
X132920766Y-81457059D01*
X132802941Y-81339234D01*
X132710367Y-81200687D01*
X132646601Y-81046742D01*
X132614093Y-80883315D01*
X132614093Y-80716685D01*
X132646601Y-80553258D01*
X132710367Y-80399313D01*
X132802941Y-80260766D01*
X132920766Y-80142941D01*
X133059313Y-80050367D01*
X133213258Y-79986601D01*
X133376685Y-79954093D01*
X133543315Y-79954093D01*
X133706742Y-79986601D01*
G37*
G36*
X136246742Y-79986601D02*
G01*
X136400687Y-80050367D01*
X136539234Y-80142941D01*
X136657059Y-80260766D01*
X136749633Y-80399313D01*
X136813399Y-80553258D01*
X136845907Y-80716685D01*
X136845907Y-80883315D01*
X136813399Y-81046742D01*
X136749633Y-81200687D01*
X136657059Y-81339234D01*
X136539234Y-81457059D01*
X136400687Y-81549633D01*
X136246742Y-81613399D01*
X136083315Y-81645907D01*
X135916685Y-81645907D01*
X135753258Y-81613399D01*
X135599313Y-81549633D01*
X135460766Y-81457059D01*
X135342941Y-81339234D01*
X135250367Y-81200687D01*
X135186601Y-81046742D01*
X135154093Y-80883315D01*
X135154093Y-80716685D01*
X135186601Y-80553258D01*
X135250367Y-80399313D01*
X135342941Y-80260766D01*
X135460766Y-80142941D01*
X135599313Y-80050367D01*
X135753258Y-79986601D01*
X135916685Y-79954093D01*
X136083315Y-79954093D01*
X136246742Y-79986601D01*
G37*
G36*
X138786742Y-79986601D02*
G01*
X138940687Y-80050367D01*
X139079234Y-80142941D01*
X139197059Y-80260766D01*
X139289633Y-80399313D01*
X139353399Y-80553258D01*
X139385907Y-80716685D01*
X139385907Y-80883315D01*
X139353399Y-81046742D01*
X139289633Y-81200687D01*
X139197059Y-81339234D01*
X139079234Y-81457059D01*
X138940687Y-81549633D01*
X138786742Y-81613399D01*
X138623315Y-81645907D01*
X138456685Y-81645907D01*
X138293258Y-81613399D01*
X138139313Y-81549633D01*
X138000766Y-81457059D01*
X137882941Y-81339234D01*
X137790367Y-81200687D01*
X137726601Y-81046742D01*
X137694093Y-80883315D01*
X137694093Y-80716685D01*
X137726601Y-80553258D01*
X137790367Y-80399313D01*
X137882941Y-80260766D01*
X138000766Y-80142941D01*
X138139313Y-80050367D01*
X138293258Y-79986601D01*
X138456685Y-79954093D01*
X138623315Y-79954093D01*
X138786742Y-79986601D01*
G37*
G36*
X141326742Y-79986601D02*
G01*
X141480687Y-80050367D01*
X141619234Y-80142941D01*
X141737059Y-80260766D01*
X141829633Y-80399313D01*
X141893399Y-80553258D01*
X141925907Y-80716685D01*
X141925907Y-80883315D01*
X141893399Y-81046742D01*
X141829633Y-81200687D01*
X141737059Y-81339234D01*
X141619234Y-81457059D01*
X141480687Y-81549633D01*
X141326742Y-81613399D01*
X141163315Y-81645907D01*
X140996685Y-81645907D01*
X140833258Y-81613399D01*
X140679313Y-81549633D01*
X140540766Y-81457059D01*
X140422941Y-81339234D01*
X140330367Y-81200687D01*
X140266601Y-81046742D01*
X140234093Y-80883315D01*
X140234093Y-80716685D01*
X140266601Y-80553258D01*
X140330367Y-80399313D01*
X140422941Y-80260766D01*
X140540766Y-80142941D01*
X140679313Y-80050367D01*
X140833258Y-79986601D01*
X140996685Y-79954093D01*
X141163315Y-79954093D01*
X141326742Y-79986601D01*
G37*
G36*
X143866742Y-79986601D02*
G01*
X144020687Y-80050367D01*
X144159234Y-80142941D01*
X144277059Y-80260766D01*
X144369633Y-80399313D01*
X144433399Y-80553258D01*
X144465907Y-80716685D01*
X144465907Y-80883315D01*
X144433399Y-81046742D01*
X144369633Y-81200687D01*
X144277059Y-81339234D01*
X144159234Y-81457059D01*
X144020687Y-81549633D01*
X143866742Y-81613399D01*
X143703315Y-81645907D01*
X143536685Y-81645907D01*
X143373258Y-81613399D01*
X143219313Y-81549633D01*
X143080766Y-81457059D01*
X142962941Y-81339234D01*
X142870367Y-81200687D01*
X142806601Y-81046742D01*
X142774093Y-80883315D01*
X142774093Y-80716685D01*
X142806601Y-80553258D01*
X142870367Y-80399313D01*
X142962941Y-80260766D01*
X143080766Y-80142941D01*
X143219313Y-80050367D01*
X143373258Y-79986601D01*
X143536685Y-79954093D01*
X143703315Y-79954093D01*
X143866742Y-79986601D01*
G37*
G36*
X146406742Y-79986601D02*
G01*
X146560687Y-80050367D01*
X146699234Y-80142941D01*
X146817059Y-80260766D01*
X146909633Y-80399313D01*
X146973399Y-80553258D01*
X147005907Y-80716685D01*
X147005907Y-80883315D01*
X146973399Y-81046742D01*
X146909633Y-81200687D01*
X146817059Y-81339234D01*
X146699234Y-81457059D01*
X146560687Y-81549633D01*
X146406742Y-81613399D01*
X146243315Y-81645907D01*
X146076685Y-81645907D01*
X145913258Y-81613399D01*
X145759313Y-81549633D01*
X145620766Y-81457059D01*
X145502941Y-81339234D01*
X145410367Y-81200687D01*
X145346601Y-81046742D01*
X145314093Y-80883315D01*
X145314093Y-80716685D01*
X145346601Y-80553258D01*
X145410367Y-80399313D01*
X145502941Y-80260766D01*
X145620766Y-80142941D01*
X145759313Y-80050367D01*
X145913258Y-79986601D01*
X146076685Y-79954093D01*
X146243315Y-79954093D01*
X146406742Y-79986601D01*
G37*
G36*
X148946742Y-79986601D02*
G01*
X149100687Y-80050367D01*
X149239234Y-80142941D01*
X149357059Y-80260766D01*
X149449633Y-80399313D01*
X149513399Y-80553258D01*
X149545907Y-80716685D01*
X149545907Y-80883315D01*
X149513399Y-81046742D01*
X149449633Y-81200687D01*
X149357059Y-81339234D01*
X149239234Y-81457059D01*
X149100687Y-81549633D01*
X148946742Y-81613399D01*
X148783315Y-81645907D01*
X148616685Y-81645907D01*
X148453258Y-81613399D01*
X148299313Y-81549633D01*
X148160766Y-81457059D01*
X148042941Y-81339234D01*
X147950367Y-81200687D01*
X147886601Y-81046742D01*
X147854093Y-80883315D01*
X147854093Y-80716685D01*
X147886601Y-80553258D01*
X147950367Y-80399313D01*
X148042941Y-80260766D01*
X148160766Y-80142941D01*
X148299313Y-80050367D01*
X148453258Y-79986601D01*
X148616685Y-79954093D01*
X148783315Y-79954093D01*
X148946742Y-79986601D01*
G37*
G36*
X151486742Y-79986601D02*
G01*
X151640687Y-80050367D01*
X151779234Y-80142941D01*
X151897059Y-80260766D01*
X151989633Y-80399313D01*
X152053399Y-80553258D01*
X152085907Y-80716685D01*
X152085907Y-80883315D01*
X152053399Y-81046742D01*
X151989633Y-81200687D01*
X151897059Y-81339234D01*
X151779234Y-81457059D01*
X151640687Y-81549633D01*
X151486742Y-81613399D01*
X151323315Y-81645907D01*
X151156685Y-81645907D01*
X150993258Y-81613399D01*
X150839313Y-81549633D01*
X150700766Y-81457059D01*
X150582941Y-81339234D01*
X150490367Y-81200687D01*
X150426601Y-81046742D01*
X150394093Y-80883315D01*
X150394093Y-80716685D01*
X150426601Y-80553258D01*
X150490367Y-80399313D01*
X150582941Y-80260766D01*
X150700766Y-80142941D01*
X150839313Y-80050367D01*
X150993258Y-79986601D01*
X151156685Y-79954093D01*
X151323315Y-79954093D01*
X151486742Y-79986601D01*
G37*
G36*
X154026742Y-79986601D02*
G01*
X154180687Y-80050367D01*
X154319234Y-80142941D01*
X154437059Y-80260766D01*
X154529633Y-80399313D01*
X154593399Y-80553258D01*
X154625907Y-80716685D01*
X154625907Y-80883315D01*
X154593399Y-81046742D01*
X154529633Y-81200687D01*
X154437059Y-81339234D01*
X154319234Y-81457059D01*
X154180687Y-81549633D01*
X154026742Y-81613399D01*
X153863315Y-81645907D01*
X153696685Y-81645907D01*
X153533258Y-81613399D01*
X153379313Y-81549633D01*
X153240766Y-81457059D01*
X153122941Y-81339234D01*
X153030367Y-81200687D01*
X152966601Y-81046742D01*
X152934093Y-80883315D01*
X152934093Y-80716685D01*
X152966601Y-80553258D01*
X153030367Y-80399313D01*
X153122941Y-80260766D01*
X153240766Y-80142941D01*
X153379313Y-80050367D01*
X153533258Y-79986601D01*
X153696685Y-79954093D01*
X153863315Y-79954093D01*
X154026742Y-79986601D01*
G37*
G36*
X208366790Y-77670393D02*
G01*
X208530952Y-77723733D01*
X208684748Y-77802096D01*
X208824393Y-77903553D01*
X208946447Y-78025607D01*
X209047904Y-78165252D01*
X209126267Y-78319048D01*
X209179607Y-78483210D01*
X209206609Y-78653695D01*
X209206609Y-78826305D01*
X209179607Y-78996790D01*
X209126267Y-79160952D01*
X209047904Y-79314748D01*
X208946447Y-79454393D01*
X208824393Y-79576447D01*
X208684748Y-79677904D01*
X208530952Y-79756267D01*
X208366790Y-79809607D01*
X208196305Y-79836609D01*
X208023695Y-79836609D01*
X207853210Y-79809607D01*
X207689048Y-79756267D01*
X207535252Y-79677904D01*
X207395607Y-79576447D01*
X207273553Y-79454393D01*
X207172096Y-79314748D01*
X207093733Y-79160952D01*
X207040393Y-78996790D01*
X207013391Y-78826305D01*
X207013391Y-78653695D01*
X207040393Y-78483210D01*
X207093733Y-78319048D01*
X207172096Y-78165252D01*
X207273553Y-78025607D01*
X207395607Y-77903553D01*
X207535252Y-77802096D01*
X207689048Y-77723733D01*
X207853210Y-77670393D01*
X208023695Y-77643391D01*
X208196305Y-77643391D01*
X208366790Y-77670393D01*
G37*
G36*
X214716790Y-75130393D02*
G01*
X214880952Y-75183733D01*
X215034748Y-75262096D01*
X215174393Y-75363553D01*
X215296447Y-75485607D01*
X215397904Y-75625252D01*
X215476267Y-75779048D01*
X215529607Y-75943210D01*
X215556609Y-76113695D01*
X215556609Y-76286305D01*
X215529607Y-76456790D01*
X215476267Y-76620952D01*
X215397904Y-76774748D01*
X215296447Y-76914393D01*
X215174393Y-77036447D01*
X215034748Y-77137904D01*
X214880952Y-77216267D01*
X214716790Y-77269607D01*
X214546305Y-77296609D01*
X214373695Y-77296609D01*
X214203210Y-77269607D01*
X214039048Y-77216267D01*
X213885252Y-77137904D01*
X213745607Y-77036447D01*
X213623553Y-76914393D01*
X213522096Y-76774748D01*
X213443733Y-76620952D01*
X213390393Y-76456790D01*
X213363391Y-76286305D01*
X213363391Y-76113695D01*
X213390393Y-75943210D01*
X213443733Y-75779048D01*
X213522096Y-75625252D01*
X213623553Y-75485607D01*
X213745607Y-75363553D01*
X213885252Y-75262096D01*
X214039048Y-75183733D01*
X214203210Y-75130393D01*
X214373695Y-75103391D01*
X214546305Y-75103391D01*
X214716790Y-75130393D01*
G37*
G36*
X212310181Y-58998429D02*
G01*
X212562879Y-59066140D01*
X212804577Y-59166255D01*
X213031140Y-59297061D01*
X213238692Y-59456320D01*
X213423680Y-59641308D01*
X213582939Y-59848860D01*
X213713745Y-60075423D01*
X213813860Y-60317121D01*
X213881571Y-60569819D01*
X213915718Y-60829194D01*
X213915718Y-61090806D01*
X213881571Y-61350181D01*
X213813860Y-61602879D01*
X213713745Y-61844577D01*
X213582939Y-62071140D01*
X213423680Y-62278692D01*
X213238692Y-62463680D01*
X213031140Y-62622939D01*
X212804577Y-62753745D01*
X212562879Y-62853860D01*
X212310181Y-62921571D01*
X212050806Y-62955718D01*
X211789194Y-62955718D01*
X211529819Y-62921571D01*
X211277121Y-62853860D01*
X211035423Y-62753745D01*
X210808860Y-62622939D01*
X210601308Y-62463680D01*
X210416320Y-62278692D01*
X210257061Y-62071140D01*
X210126255Y-61844577D01*
X210026140Y-61602879D01*
X209958429Y-61350181D01*
X209924282Y-61090806D01*
X209924282Y-60829194D01*
X209958429Y-60569819D01*
X210026140Y-60317121D01*
X210126255Y-60075423D01*
X210257061Y-59848860D01*
X210416320Y-59641308D01*
X210601308Y-59456320D01*
X210808860Y-59297061D01*
X211035423Y-59166255D01*
X211277121Y-59066140D01*
X211529819Y-58998429D01*
X211789194Y-58964282D01*
X212050806Y-58964282D01*
X212310181Y-58998429D01*
G37*
G36*
X207086742Y-60146601D02*
G01*
X207240687Y-60210367D01*
X207379234Y-60302941D01*
X207497059Y-60420766D01*
X207589633Y-60559313D01*
X207653399Y-60713258D01*
X207685907Y-60876685D01*
X207685907Y-61043315D01*
X207653399Y-61206742D01*
X207589633Y-61360687D01*
X207497059Y-61499234D01*
X207379234Y-61617059D01*
X207240687Y-61709633D01*
X207086742Y-61773399D01*
X206923315Y-61805907D01*
X206756685Y-61805907D01*
X206593258Y-61773399D01*
X206439313Y-61709633D01*
X206300766Y-61617059D01*
X206182941Y-61499234D01*
X206090367Y-61360687D01*
X206026601Y-61206742D01*
X205994093Y-61043315D01*
X205994093Y-60876685D01*
X206026601Y-60713258D01*
X206090367Y-60559313D01*
X206182941Y-60420766D01*
X206300766Y-60302941D01*
X206439313Y-60210367D01*
X206593258Y-60146601D01*
X206756685Y-60114093D01*
X206923315Y-60114093D01*
X207086742Y-60146601D01*
G37*
G36*
X217246742Y-60146601D02*
G01*
X217400687Y-60210367D01*
X217539234Y-60302941D01*
X217657059Y-60420766D01*
X217749633Y-60559313D01*
X217813399Y-60713258D01*
X217845907Y-60876685D01*
X217845907Y-61043315D01*
X217813399Y-61206742D01*
X217749633Y-61360687D01*
X217657059Y-61499234D01*
X217539234Y-61617059D01*
X217400687Y-61709633D01*
X217246742Y-61773399D01*
X217083315Y-61805907D01*
X216916685Y-61805907D01*
X216753258Y-61773399D01*
X216599313Y-61709633D01*
X216460766Y-61617059D01*
X216342941Y-61499234D01*
X216250367Y-61360687D01*
X216186601Y-61206742D01*
X216154093Y-61043315D01*
X216154093Y-60876685D01*
X216186601Y-60713258D01*
X216250367Y-60559313D01*
X216342941Y-60420766D01*
X216460766Y-60302941D01*
X216599313Y-60210367D01*
X216753258Y-60146601D01*
X216916685Y-60114093D01*
X217083315Y-60114093D01*
X217246742Y-60146601D01*
G37*
G36*
X151790000Y-60790000D02*
G01*
X150090000Y-60790000D01*
X150090000Y-59090000D01*
X151790000Y-59090000D01*
X151790000Y-60790000D01*
G37*
G36*
X120706742Y-59126601D02*
G01*
X120860687Y-59190367D01*
X120999234Y-59282941D01*
X121117059Y-59400766D01*
X121209633Y-59539313D01*
X121273399Y-59693258D01*
X121305907Y-59856685D01*
X121305907Y-60023315D01*
X121273399Y-60186742D01*
X121209633Y-60340687D01*
X121117059Y-60479234D01*
X120999234Y-60597059D01*
X120860687Y-60689633D01*
X120706742Y-60753399D01*
X120543315Y-60785907D01*
X120376685Y-60785907D01*
X120213258Y-60753399D01*
X120059313Y-60689633D01*
X119920766Y-60597059D01*
X119802941Y-60479234D01*
X119710367Y-60340687D01*
X119646601Y-60186742D01*
X119614093Y-60023315D01*
X119614093Y-59856685D01*
X119646601Y-59693258D01*
X119710367Y-59539313D01*
X119802941Y-59400766D01*
X119920766Y-59282941D01*
X120059313Y-59190367D01*
X120213258Y-59126601D01*
X120376685Y-59094093D01*
X120543315Y-59094093D01*
X120706742Y-59126601D01*
G37*
G36*
X123246742Y-59126601D02*
G01*
X123400687Y-59190367D01*
X123539234Y-59282941D01*
X123657059Y-59400766D01*
X123749633Y-59539313D01*
X123813399Y-59693258D01*
X123845907Y-59856685D01*
X123845907Y-60023315D01*
X123813399Y-60186742D01*
X123749633Y-60340687D01*
X123657059Y-60479234D01*
X123539234Y-60597059D01*
X123400687Y-60689633D01*
X123246742Y-60753399D01*
X123083315Y-60785907D01*
X122916685Y-60785907D01*
X122753258Y-60753399D01*
X122599313Y-60689633D01*
X122460766Y-60597059D01*
X122342941Y-60479234D01*
X122250367Y-60340687D01*
X122186601Y-60186742D01*
X122154093Y-60023315D01*
X122154093Y-59856685D01*
X122186601Y-59693258D01*
X122250367Y-59539313D01*
X122342941Y-59400766D01*
X122460766Y-59282941D01*
X122599313Y-59190367D01*
X122753258Y-59126601D01*
X122916685Y-59094093D01*
X123083315Y-59094093D01*
X123246742Y-59126601D01*
G37*
G36*
X125786742Y-59126601D02*
G01*
X125940687Y-59190367D01*
X126079234Y-59282941D01*
X126197059Y-59400766D01*
X126289633Y-59539313D01*
X126353399Y-59693258D01*
X126385907Y-59856685D01*
X126385907Y-60023315D01*
X126353399Y-60186742D01*
X126289633Y-60340687D01*
X126197059Y-60479234D01*
X126079234Y-60597059D01*
X125940687Y-60689633D01*
X125786742Y-60753399D01*
X125623315Y-60785907D01*
X125456685Y-60785907D01*
X125293258Y-60753399D01*
X125139313Y-60689633D01*
X125000766Y-60597059D01*
X124882941Y-60479234D01*
X124790367Y-60340687D01*
X124726601Y-60186742D01*
X124694093Y-60023315D01*
X124694093Y-59856685D01*
X124726601Y-59693258D01*
X124790367Y-59539313D01*
X124882941Y-59400766D01*
X125000766Y-59282941D01*
X125139313Y-59190367D01*
X125293258Y-59126601D01*
X125456685Y-59094093D01*
X125623315Y-59094093D01*
X125786742Y-59126601D01*
G37*
G36*
X128326742Y-59126601D02*
G01*
X128480687Y-59190367D01*
X128619234Y-59282941D01*
X128737059Y-59400766D01*
X128829633Y-59539313D01*
X128893399Y-59693258D01*
X128925907Y-59856685D01*
X128925907Y-60023315D01*
X128893399Y-60186742D01*
X128829633Y-60340687D01*
X128737059Y-60479234D01*
X128619234Y-60597059D01*
X128480687Y-60689633D01*
X128326742Y-60753399D01*
X128163315Y-60785907D01*
X127996685Y-60785907D01*
X127833258Y-60753399D01*
X127679313Y-60689633D01*
X127540766Y-60597059D01*
X127422941Y-60479234D01*
X127330367Y-60340687D01*
X127266601Y-60186742D01*
X127234093Y-60023315D01*
X127234093Y-59856685D01*
X127266601Y-59693258D01*
X127330367Y-59539313D01*
X127422941Y-59400766D01*
X127540766Y-59282941D01*
X127679313Y-59190367D01*
X127833258Y-59126601D01*
X127996685Y-59094093D01*
X128163315Y-59094093D01*
X128326742Y-59126601D01*
G37*
G36*
X130866742Y-59126601D02*
G01*
X131020687Y-59190367D01*
X131159234Y-59282941D01*
X131277059Y-59400766D01*
X131369633Y-59539313D01*
X131433399Y-59693258D01*
X131465907Y-59856685D01*
X131465907Y-60023315D01*
X131433399Y-60186742D01*
X131369633Y-60340687D01*
X131277059Y-60479234D01*
X131159234Y-60597059D01*
X131020687Y-60689633D01*
X130866742Y-60753399D01*
X130703315Y-60785907D01*
X130536685Y-60785907D01*
X130373258Y-60753399D01*
X130219313Y-60689633D01*
X130080766Y-60597059D01*
X129962941Y-60479234D01*
X129870367Y-60340687D01*
X129806601Y-60186742D01*
X129774093Y-60023315D01*
X129774093Y-59856685D01*
X129806601Y-59693258D01*
X129870367Y-59539313D01*
X129962941Y-59400766D01*
X130080766Y-59282941D01*
X130219313Y-59190367D01*
X130373258Y-59126601D01*
X130536685Y-59094093D01*
X130703315Y-59094093D01*
X130866742Y-59126601D01*
G37*
G36*
X133406742Y-59126601D02*
G01*
X133560687Y-59190367D01*
X133699234Y-59282941D01*
X133817059Y-59400766D01*
X133909633Y-59539313D01*
X133973399Y-59693258D01*
X134005907Y-59856685D01*
X134005907Y-60023315D01*
X133973399Y-60186742D01*
X133909633Y-60340687D01*
X133817059Y-60479234D01*
X133699234Y-60597059D01*
X133560687Y-60689633D01*
X133406742Y-60753399D01*
X133243315Y-60785907D01*
X133076685Y-60785907D01*
X132913258Y-60753399D01*
X132759313Y-60689633D01*
X132620766Y-60597059D01*
X132502941Y-60479234D01*
X132410367Y-60340687D01*
X132346601Y-60186742D01*
X132314093Y-60023315D01*
X132314093Y-59856685D01*
X132346601Y-59693258D01*
X132410367Y-59539313D01*
X132502941Y-59400766D01*
X132620766Y-59282941D01*
X132759313Y-59190367D01*
X132913258Y-59126601D01*
X133076685Y-59094093D01*
X133243315Y-59094093D01*
X133406742Y-59126601D01*
G37*
G36*
X135946742Y-59126601D02*
G01*
X136100687Y-59190367D01*
X136239234Y-59282941D01*
X136357059Y-59400766D01*
X136449633Y-59539313D01*
X136513399Y-59693258D01*
X136545907Y-59856685D01*
X136545907Y-60023315D01*
X136513399Y-60186742D01*
X136449633Y-60340687D01*
X136357059Y-60479234D01*
X136239234Y-60597059D01*
X136100687Y-60689633D01*
X135946742Y-60753399D01*
X135783315Y-60785907D01*
X135616685Y-60785907D01*
X135453258Y-60753399D01*
X135299313Y-60689633D01*
X135160766Y-60597059D01*
X135042941Y-60479234D01*
X134950367Y-60340687D01*
X134886601Y-60186742D01*
X134854093Y-60023315D01*
X134854093Y-59856685D01*
X134886601Y-59693258D01*
X134950367Y-59539313D01*
X135042941Y-59400766D01*
X135160766Y-59282941D01*
X135299313Y-59190367D01*
X135453258Y-59126601D01*
X135616685Y-59094093D01*
X135783315Y-59094093D01*
X135946742Y-59126601D01*
G37*
G36*
X138486742Y-59126601D02*
G01*
X138640687Y-59190367D01*
X138779234Y-59282941D01*
X138897059Y-59400766D01*
X138989633Y-59539313D01*
X139053399Y-59693258D01*
X139085907Y-59856685D01*
X139085907Y-60023315D01*
X139053399Y-60186742D01*
X138989633Y-60340687D01*
X138897059Y-60479234D01*
X138779234Y-60597059D01*
X138640687Y-60689633D01*
X138486742Y-60753399D01*
X138323315Y-60785907D01*
X138156685Y-60785907D01*
X137993258Y-60753399D01*
X137839313Y-60689633D01*
X137700766Y-60597059D01*
X137582941Y-60479234D01*
X137490367Y-60340687D01*
X137426601Y-60186742D01*
X137394093Y-60023315D01*
X137394093Y-59856685D01*
X137426601Y-59693258D01*
X137490367Y-59539313D01*
X137582941Y-59400766D01*
X137700766Y-59282941D01*
X137839313Y-59190367D01*
X137993258Y-59126601D01*
X138156685Y-59094093D01*
X138323315Y-59094093D01*
X138486742Y-59126601D01*
G37*
G36*
X141026742Y-59126601D02*
G01*
X141180687Y-59190367D01*
X141319234Y-59282941D01*
X141437059Y-59400766D01*
X141529633Y-59539313D01*
X141593399Y-59693258D01*
X141625907Y-59856685D01*
X141625907Y-60023315D01*
X141593399Y-60186742D01*
X141529633Y-60340687D01*
X141437059Y-60479234D01*
X141319234Y-60597059D01*
X141180687Y-60689633D01*
X141026742Y-60753399D01*
X140863315Y-60785907D01*
X140696685Y-60785907D01*
X140533258Y-60753399D01*
X140379313Y-60689633D01*
X140240766Y-60597059D01*
X140122941Y-60479234D01*
X140030367Y-60340687D01*
X139966601Y-60186742D01*
X139934093Y-60023315D01*
X139934093Y-59856685D01*
X139966601Y-59693258D01*
X140030367Y-59539313D01*
X140122941Y-59400766D01*
X140240766Y-59282941D01*
X140379313Y-59190367D01*
X140533258Y-59126601D01*
X140696685Y-59094093D01*
X140863315Y-59094093D01*
X141026742Y-59126601D01*
G37*
G36*
X143566742Y-59126601D02*
G01*
X143720687Y-59190367D01*
X143859234Y-59282941D01*
X143977059Y-59400766D01*
X144069633Y-59539313D01*
X144133399Y-59693258D01*
X144165907Y-59856685D01*
X144165907Y-60023315D01*
X144133399Y-60186742D01*
X144069633Y-60340687D01*
X143977059Y-60479234D01*
X143859234Y-60597059D01*
X143720687Y-60689633D01*
X143566742Y-60753399D01*
X143403315Y-60785907D01*
X143236685Y-60785907D01*
X143073258Y-60753399D01*
X142919313Y-60689633D01*
X142780766Y-60597059D01*
X142662941Y-60479234D01*
X142570367Y-60340687D01*
X142506601Y-60186742D01*
X142474093Y-60023315D01*
X142474093Y-59856685D01*
X142506601Y-59693258D01*
X142570367Y-59539313D01*
X142662941Y-59400766D01*
X142780766Y-59282941D01*
X142919313Y-59190367D01*
X143073258Y-59126601D01*
X143236685Y-59094093D01*
X143403315Y-59094093D01*
X143566742Y-59126601D01*
G37*
G36*
X146106742Y-59126601D02*
G01*
X146260687Y-59190367D01*
X146399234Y-59282941D01*
X146517059Y-59400766D01*
X146609633Y-59539313D01*
X146673399Y-59693258D01*
X146705907Y-59856685D01*
X146705907Y-60023315D01*
X146673399Y-60186742D01*
X146609633Y-60340687D01*
X146517059Y-60479234D01*
X146399234Y-60597059D01*
X146260687Y-60689633D01*
X146106742Y-60753399D01*
X145943315Y-60785907D01*
X145776685Y-60785907D01*
X145613258Y-60753399D01*
X145459313Y-60689633D01*
X145320766Y-60597059D01*
X145202941Y-60479234D01*
X145110367Y-60340687D01*
X145046601Y-60186742D01*
X145014093Y-60023315D01*
X145014093Y-59856685D01*
X145046601Y-59693258D01*
X145110367Y-59539313D01*
X145202941Y-59400766D01*
X145320766Y-59282941D01*
X145459313Y-59190367D01*
X145613258Y-59126601D01*
X145776685Y-59094093D01*
X145943315Y-59094093D01*
X146106742Y-59126601D01*
G37*
G36*
X148646742Y-59126601D02*
G01*
X148800687Y-59190367D01*
X148939234Y-59282941D01*
X149057059Y-59400766D01*
X149149633Y-59539313D01*
X149213399Y-59693258D01*
X149245907Y-59856685D01*
X149245907Y-60023315D01*
X149213399Y-60186742D01*
X149149633Y-60340687D01*
X149057059Y-60479234D01*
X148939234Y-60597059D01*
X148800687Y-60689633D01*
X148646742Y-60753399D01*
X148483315Y-60785907D01*
X148316685Y-60785907D01*
X148153258Y-60753399D01*
X147999313Y-60689633D01*
X147860766Y-60597059D01*
X147742941Y-60479234D01*
X147650367Y-60340687D01*
X147586601Y-60186742D01*
X147554093Y-60023315D01*
X147554093Y-59856685D01*
X147586601Y-59693258D01*
X147650367Y-59539313D01*
X147742941Y-59400766D01*
X147860766Y-59282941D01*
X147999313Y-59190367D01*
X148153258Y-59126601D01*
X148316685Y-59094093D01*
X148483315Y-59094093D01*
X148646742Y-59126601D01*
G37*
G36*
X208366790Y-57350393D02*
G01*
X208530952Y-57403733D01*
X208684748Y-57482096D01*
X208824393Y-57583553D01*
X208946447Y-57705607D01*
X209047904Y-57845252D01*
X209126267Y-57999048D01*
X209179607Y-58163210D01*
X209206609Y-58333695D01*
X209206609Y-58506305D01*
X209179607Y-58676790D01*
X209126267Y-58840952D01*
X209047904Y-58994748D01*
X208946447Y-59134393D01*
X208824393Y-59256447D01*
X208684748Y-59357904D01*
X208530952Y-59436267D01*
X208366790Y-59489607D01*
X208196305Y-59516609D01*
X208023695Y-59516609D01*
X207853210Y-59489607D01*
X207689048Y-59436267D01*
X207535252Y-59357904D01*
X207395607Y-59256447D01*
X207273553Y-59134393D01*
X207172096Y-58994748D01*
X207093733Y-58840952D01*
X207040393Y-58676790D01*
X207013391Y-58506305D01*
X207013391Y-58333695D01*
X207040393Y-58163210D01*
X207093733Y-57999048D01*
X207172096Y-57845252D01*
X207273553Y-57705607D01*
X207395607Y-57583553D01*
X207535252Y-57482096D01*
X207689048Y-57403733D01*
X207853210Y-57350393D01*
X208023695Y-57323391D01*
X208196305Y-57323391D01*
X208366790Y-57350393D01*
G37*
G36*
X120706742Y-56586601D02*
G01*
X120860687Y-56650367D01*
X120999234Y-56742941D01*
X121117059Y-56860766D01*
X121209633Y-56999313D01*
X121273399Y-57153258D01*
X121305907Y-57316685D01*
X121305907Y-57483315D01*
X121273399Y-57646742D01*
X121209633Y-57800687D01*
X121117059Y-57939234D01*
X120999234Y-58057059D01*
X120860687Y-58149633D01*
X120706742Y-58213399D01*
X120543315Y-58245907D01*
X120376685Y-58245907D01*
X120213258Y-58213399D01*
X120059313Y-58149633D01*
X119920766Y-58057059D01*
X119802941Y-57939234D01*
X119710367Y-57800687D01*
X119646601Y-57646742D01*
X119614093Y-57483315D01*
X119614093Y-57316685D01*
X119646601Y-57153258D01*
X119710367Y-56999313D01*
X119802941Y-56860766D01*
X119920766Y-56742941D01*
X120059313Y-56650367D01*
X120213258Y-56586601D01*
X120376685Y-56554093D01*
X120543315Y-56554093D01*
X120706742Y-56586601D01*
G37*
G36*
X123246742Y-56586601D02*
G01*
X123400687Y-56650367D01*
X123539234Y-56742941D01*
X123657059Y-56860766D01*
X123749633Y-56999313D01*
X123813399Y-57153258D01*
X123845907Y-57316685D01*
X123845907Y-57483315D01*
X123813399Y-57646742D01*
X123749633Y-57800687D01*
X123657059Y-57939234D01*
X123539234Y-58057059D01*
X123400687Y-58149633D01*
X123246742Y-58213399D01*
X123083315Y-58245907D01*
X122916685Y-58245907D01*
X122753258Y-58213399D01*
X122599313Y-58149633D01*
X122460766Y-58057059D01*
X122342941Y-57939234D01*
X122250367Y-57800687D01*
X122186601Y-57646742D01*
X122154093Y-57483315D01*
X122154093Y-57316685D01*
X122186601Y-57153258D01*
X122250367Y-56999313D01*
X122342941Y-56860766D01*
X122460766Y-56742941D01*
X122599313Y-56650367D01*
X122753258Y-56586601D01*
X122916685Y-56554093D01*
X123083315Y-56554093D01*
X123246742Y-56586601D01*
G37*
G36*
X125786742Y-56586601D02*
G01*
X125940687Y-56650367D01*
X126079234Y-56742941D01*
X126197059Y-56860766D01*
X126289633Y-56999313D01*
X126353399Y-57153258D01*
X126385907Y-57316685D01*
X126385907Y-57483315D01*
X126353399Y-57646742D01*
X126289633Y-57800687D01*
X126197059Y-57939234D01*
X126079234Y-58057059D01*
X125940687Y-58149633D01*
X125786742Y-58213399D01*
X125623315Y-58245907D01*
X125456685Y-58245907D01*
X125293258Y-58213399D01*
X125139313Y-58149633D01*
X125000766Y-58057059D01*
X124882941Y-57939234D01*
X124790367Y-57800687D01*
X124726601Y-57646742D01*
X124694093Y-57483315D01*
X124694093Y-57316685D01*
X124726601Y-57153258D01*
X124790367Y-56999313D01*
X124882941Y-56860766D01*
X125000766Y-56742941D01*
X125139313Y-56650367D01*
X125293258Y-56586601D01*
X125456685Y-56554093D01*
X125623315Y-56554093D01*
X125786742Y-56586601D01*
G37*
G36*
X128326742Y-56586601D02*
G01*
X128480687Y-56650367D01*
X128619234Y-56742941D01*
X128737059Y-56860766D01*
X128829633Y-56999313D01*
X128893399Y-57153258D01*
X128925907Y-57316685D01*
X128925907Y-57483315D01*
X128893399Y-57646742D01*
X128829633Y-57800687D01*
X128737059Y-57939234D01*
X128619234Y-58057059D01*
X128480687Y-58149633D01*
X128326742Y-58213399D01*
X128163315Y-58245907D01*
X127996685Y-58245907D01*
X127833258Y-58213399D01*
X127679313Y-58149633D01*
X127540766Y-58057059D01*
X127422941Y-57939234D01*
X127330367Y-57800687D01*
X127266601Y-57646742D01*
X127234093Y-57483315D01*
X127234093Y-57316685D01*
X127266601Y-57153258D01*
X127330367Y-56999313D01*
X127422941Y-56860766D01*
X127540766Y-56742941D01*
X127679313Y-56650367D01*
X127833258Y-56586601D01*
X127996685Y-56554093D01*
X128163315Y-56554093D01*
X128326742Y-56586601D01*
G37*
G36*
X130866742Y-56586601D02*
G01*
X131020687Y-56650367D01*
X131159234Y-56742941D01*
X131277059Y-56860766D01*
X131369633Y-56999313D01*
X131433399Y-57153258D01*
X131465907Y-57316685D01*
X131465907Y-57483315D01*
X131433399Y-57646742D01*
X131369633Y-57800687D01*
X131277059Y-57939234D01*
X131159234Y-58057059D01*
X131020687Y-58149633D01*
X130866742Y-58213399D01*
X130703315Y-58245907D01*
X130536685Y-58245907D01*
X130373258Y-58213399D01*
X130219313Y-58149633D01*
X130080766Y-58057059D01*
X129962941Y-57939234D01*
X129870367Y-57800687D01*
X129806601Y-57646742D01*
X129774093Y-57483315D01*
X129774093Y-57316685D01*
X129806601Y-57153258D01*
X129870367Y-56999313D01*
X129962941Y-56860766D01*
X130080766Y-56742941D01*
X130219313Y-56650367D01*
X130373258Y-56586601D01*
X130536685Y-56554093D01*
X130703315Y-56554093D01*
X130866742Y-56586601D01*
G37*
G36*
X133406742Y-56586601D02*
G01*
X133560687Y-56650367D01*
X133699234Y-56742941D01*
X133817059Y-56860766D01*
X133909633Y-56999313D01*
X133973399Y-57153258D01*
X134005907Y-57316685D01*
X134005907Y-57483315D01*
X133973399Y-57646742D01*
X133909633Y-57800687D01*
X133817059Y-57939234D01*
X133699234Y-58057059D01*
X133560687Y-58149633D01*
X133406742Y-58213399D01*
X133243315Y-58245907D01*
X133076685Y-58245907D01*
X132913258Y-58213399D01*
X132759313Y-58149633D01*
X132620766Y-58057059D01*
X132502941Y-57939234D01*
X132410367Y-57800687D01*
X132346601Y-57646742D01*
X132314093Y-57483315D01*
X132314093Y-57316685D01*
X132346601Y-57153258D01*
X132410367Y-56999313D01*
X132502941Y-56860766D01*
X132620766Y-56742941D01*
X132759313Y-56650367D01*
X132913258Y-56586601D01*
X133076685Y-56554093D01*
X133243315Y-56554093D01*
X133406742Y-56586601D01*
G37*
G36*
X135946742Y-56586601D02*
G01*
X136100687Y-56650367D01*
X136239234Y-56742941D01*
X136357059Y-56860766D01*
X136449633Y-56999313D01*
X136513399Y-57153258D01*
X136545907Y-57316685D01*
X136545907Y-57483315D01*
X136513399Y-57646742D01*
X136449633Y-57800687D01*
X136357059Y-57939234D01*
X136239234Y-58057059D01*
X136100687Y-58149633D01*
X135946742Y-58213399D01*
X135783315Y-58245907D01*
X135616685Y-58245907D01*
X135453258Y-58213399D01*
X135299313Y-58149633D01*
X135160766Y-58057059D01*
X135042941Y-57939234D01*
X134950367Y-57800687D01*
X134886601Y-57646742D01*
X134854093Y-57483315D01*
X134854093Y-57316685D01*
X134886601Y-57153258D01*
X134950367Y-56999313D01*
X135042941Y-56860766D01*
X135160766Y-56742941D01*
X135299313Y-56650367D01*
X135453258Y-56586601D01*
X135616685Y-56554093D01*
X135783315Y-56554093D01*
X135946742Y-56586601D01*
G37*
G36*
X138486742Y-56586601D02*
G01*
X138640687Y-56650367D01*
X138779234Y-56742941D01*
X138897059Y-56860766D01*
X138989633Y-56999313D01*
X139053399Y-57153258D01*
X139085907Y-57316685D01*
X139085907Y-57483315D01*
X139053399Y-57646742D01*
X138989633Y-57800687D01*
X138897059Y-57939234D01*
X138779234Y-58057059D01*
X138640687Y-58149633D01*
X138486742Y-58213399D01*
X138323315Y-58245907D01*
X138156685Y-58245907D01*
X137993258Y-58213399D01*
X137839313Y-58149633D01*
X137700766Y-58057059D01*
X137582941Y-57939234D01*
X137490367Y-57800687D01*
X137426601Y-57646742D01*
X137394093Y-57483315D01*
X137394093Y-57316685D01*
X137426601Y-57153258D01*
X137490367Y-56999313D01*
X137582941Y-56860766D01*
X137700766Y-56742941D01*
X137839313Y-56650367D01*
X137993258Y-56586601D01*
X138156685Y-56554093D01*
X138323315Y-56554093D01*
X138486742Y-56586601D01*
G37*
G36*
X141026742Y-56586601D02*
G01*
X141180687Y-56650367D01*
X141319234Y-56742941D01*
X141437059Y-56860766D01*
X141529633Y-56999313D01*
X141593399Y-57153258D01*
X141625907Y-57316685D01*
X141625907Y-57483315D01*
X141593399Y-57646742D01*
X141529633Y-57800687D01*
X141437059Y-57939234D01*
X141319234Y-58057059D01*
X141180687Y-58149633D01*
X141026742Y-58213399D01*
X140863315Y-58245907D01*
X140696685Y-58245907D01*
X140533258Y-58213399D01*
X140379313Y-58149633D01*
X140240766Y-58057059D01*
X140122941Y-57939234D01*
X140030367Y-57800687D01*
X139966601Y-57646742D01*
X139934093Y-57483315D01*
X139934093Y-57316685D01*
X139966601Y-57153258D01*
X140030367Y-56999313D01*
X140122941Y-56860766D01*
X140240766Y-56742941D01*
X140379313Y-56650367D01*
X140533258Y-56586601D01*
X140696685Y-56554093D01*
X140863315Y-56554093D01*
X141026742Y-56586601D01*
G37*
G36*
X143566742Y-56586601D02*
G01*
X143720687Y-56650367D01*
X143859234Y-56742941D01*
X143977059Y-56860766D01*
X144069633Y-56999313D01*
X144133399Y-57153258D01*
X144165907Y-57316685D01*
X144165907Y-57483315D01*
X144133399Y-57646742D01*
X144069633Y-57800687D01*
X143977059Y-57939234D01*
X143859234Y-58057059D01*
X143720687Y-58149633D01*
X143566742Y-58213399D01*
X143403315Y-58245907D01*
X143236685Y-58245907D01*
X143073258Y-58213399D01*
X142919313Y-58149633D01*
X142780766Y-58057059D01*
X142662941Y-57939234D01*
X142570367Y-57800687D01*
X142506601Y-57646742D01*
X142474093Y-57483315D01*
X142474093Y-57316685D01*
X142506601Y-57153258D01*
X142570367Y-56999313D01*
X142662941Y-56860766D01*
X142780766Y-56742941D01*
X142919313Y-56650367D01*
X143073258Y-56586601D01*
X143236685Y-56554093D01*
X143403315Y-56554093D01*
X143566742Y-56586601D01*
G37*
G36*
X146106742Y-56586601D02*
G01*
X146260687Y-56650367D01*
X146399234Y-56742941D01*
X146517059Y-56860766D01*
X146609633Y-56999313D01*
X146673399Y-57153258D01*
X146705907Y-57316685D01*
X146705907Y-57483315D01*
X146673399Y-57646742D01*
X146609633Y-57800687D01*
X146517059Y-57939234D01*
X146399234Y-58057059D01*
X146260687Y-58149633D01*
X146106742Y-58213399D01*
X145943315Y-58245907D01*
X145776685Y-58245907D01*
X145613258Y-58213399D01*
X145459313Y-58149633D01*
X145320766Y-58057059D01*
X145202941Y-57939234D01*
X145110367Y-57800687D01*
X145046601Y-57646742D01*
X145014093Y-57483315D01*
X145014093Y-57316685D01*
X145046601Y-57153258D01*
X145110367Y-56999313D01*
X145202941Y-56860766D01*
X145320766Y-56742941D01*
X145459313Y-56650367D01*
X145613258Y-56586601D01*
X145776685Y-56554093D01*
X145943315Y-56554093D01*
X146106742Y-56586601D01*
G37*
G36*
X148646742Y-56586601D02*
G01*
X148800687Y-56650367D01*
X148939234Y-56742941D01*
X149057059Y-56860766D01*
X149149633Y-56999313D01*
X149213399Y-57153258D01*
X149245907Y-57316685D01*
X149245907Y-57483315D01*
X149213399Y-57646742D01*
X149149633Y-57800687D01*
X149057059Y-57939234D01*
X148939234Y-58057059D01*
X148800687Y-58149633D01*
X148646742Y-58213399D01*
X148483315Y-58245907D01*
X148316685Y-58245907D01*
X148153258Y-58213399D01*
X147999313Y-58149633D01*
X147860766Y-58057059D01*
X147742941Y-57939234D01*
X147650367Y-57800687D01*
X147586601Y-57646742D01*
X147554093Y-57483315D01*
X147554093Y-57316685D01*
X147586601Y-57153258D01*
X147650367Y-56999313D01*
X147742941Y-56860766D01*
X147860766Y-56742941D01*
X147999313Y-56650367D01*
X148153258Y-56586601D01*
X148316685Y-56554093D01*
X148483315Y-56554093D01*
X148646742Y-56586601D01*
G37*
G36*
X151186742Y-56586601D02*
G01*
X151340687Y-56650367D01*
X151479234Y-56742941D01*
X151597059Y-56860766D01*
X151689633Y-56999313D01*
X151753399Y-57153258D01*
X151785907Y-57316685D01*
X151785907Y-57483315D01*
X151753399Y-57646742D01*
X151689633Y-57800687D01*
X151597059Y-57939234D01*
X151479234Y-58057059D01*
X151340687Y-58149633D01*
X151186742Y-58213399D01*
X151023315Y-58245907D01*
X150856685Y-58245907D01*
X150693258Y-58213399D01*
X150539313Y-58149633D01*
X150400766Y-58057059D01*
X150282941Y-57939234D01*
X150190367Y-57800687D01*
X150126601Y-57646742D01*
X150094093Y-57483315D01*
X150094093Y-57316685D01*
X150126601Y-57153258D01*
X150190367Y-56999313D01*
X150282941Y-56860766D01*
X150400766Y-56742941D01*
X150539313Y-56650367D01*
X150693258Y-56586601D01*
X150856685Y-56554093D01*
X151023315Y-56554093D01*
X151186742Y-56586601D01*
G37*
G36*
X214716790Y-54810393D02*
G01*
X214880952Y-54863733D01*
X215034748Y-54942096D01*
X215174393Y-55043553D01*
X215296447Y-55165607D01*
X215397904Y-55305252D01*
X215476267Y-55459048D01*
X215529607Y-55623210D01*
X215556609Y-55793695D01*
X215556609Y-55966305D01*
X215529607Y-56136790D01*
X215476267Y-56300952D01*
X215397904Y-56454748D01*
X215296447Y-56594393D01*
X215174393Y-56716447D01*
X215034748Y-56817904D01*
X214880952Y-56896267D01*
X214716790Y-56949607D01*
X214546305Y-56976609D01*
X214373695Y-56976609D01*
X214203210Y-56949607D01*
X214039048Y-56896267D01*
X213885252Y-56817904D01*
X213745607Y-56716447D01*
X213623553Y-56594393D01*
X213522096Y-56454748D01*
X213443733Y-56300952D01*
X213390393Y-56136790D01*
X213363391Y-55966305D01*
X213363391Y-55793695D01*
X213390393Y-55623210D01*
X213443733Y-55459048D01*
X213522096Y-55305252D01*
X213623553Y-55165607D01*
X213745607Y-55043553D01*
X213885252Y-54942096D01*
X214039048Y-54863733D01*
X214203210Y-54810393D01*
X214373695Y-54783391D01*
X214546305Y-54783391D01*
X214716790Y-54810393D01*
G37*
G36*
X117373513Y-47444208D02*
G01*
X117612293Y-47521793D01*
X117835998Y-47635776D01*
X118039117Y-47783350D01*
X118216650Y-47960883D01*
X118364224Y-48164002D01*
X118478207Y-48387707D01*
X118555792Y-48626487D01*
X118595068Y-48874465D01*
X118595068Y-49125535D01*
X118555792Y-49373513D01*
X118478207Y-49612293D01*
X118364224Y-49835998D01*
X118216650Y-50039117D01*
X118039117Y-50216650D01*
X117835998Y-50364224D01*
X117612293Y-50478207D01*
X117373513Y-50555792D01*
X117125535Y-50595068D01*
X116874465Y-50595068D01*
X116626487Y-50555792D01*
X116387707Y-50478207D01*
X116164002Y-50364224D01*
X115960883Y-50216650D01*
X115783350Y-50039117D01*
X115635776Y-49835998D01*
X115521793Y-49612293D01*
X115444208Y-49373513D01*
X115404932Y-49125535D01*
X115404932Y-48874465D01*
X115444208Y-48626487D01*
X115521793Y-48387707D01*
X115635776Y-48164002D01*
X115783350Y-47960883D01*
X115960883Y-47783350D01*
X116164002Y-47635776D01*
X116387707Y-47521793D01*
X116626487Y-47444208D01*
X116874465Y-47404932D01*
X117125535Y-47404932D01*
X117373513Y-47444208D01*
G37*
G36*
X218873513Y-47444208D02*
G01*
X219112293Y-47521793D01*
X219335998Y-47635776D01*
X219539117Y-47783350D01*
X219716650Y-47960883D01*
X219864224Y-48164002D01*
X219978207Y-48387707D01*
X220055792Y-48626487D01*
X220095068Y-48874465D01*
X220095068Y-49125535D01*
X220055792Y-49373513D01*
X219978207Y-49612293D01*
X219864224Y-49835998D01*
X219716650Y-50039117D01*
X219539117Y-50216650D01*
X219335998Y-50364224D01*
X219112293Y-50478207D01*
X218873513Y-50555792D01*
X218625535Y-50595068D01*
X218374465Y-50595068D01*
X218126487Y-50555792D01*
X217887707Y-50478207D01*
X217664002Y-50364224D01*
X217460883Y-50216650D01*
X217283350Y-50039117D01*
X217135776Y-49835998D01*
X217021793Y-49612293D01*
X216944208Y-49373513D01*
X216904932Y-49125535D01*
X216904932Y-48874465D01*
X216944208Y-48626487D01*
X217021793Y-48387707D01*
X217135776Y-48164002D01*
X217283350Y-47960883D01*
X217460883Y-47783350D01*
X217664002Y-47635776D01*
X217887707Y-47521793D01*
X218126487Y-47444208D01*
X218374465Y-47404932D01*
X218625535Y-47404932D01*
X218873513Y-47444208D01*
G37*
M02*
